<?xml version="1.0" encoding="utf-8" standalone="no"?>
<!DOCTYPE svg PUBLIC "-//W3C//DTD SVG 1.1//EN"
  "http://www.w3.org/Graphics/SVG/1.1/DTD/svg11.dtd">
<!-- Created with matplotlib (https://matplotlib.org/) -->
<svg height="161.858937pt" version="1.1" viewBox="0 0 155.134062 161.858937" width="155.134062pt" xmlns="http://www.w3.org/2000/svg" xmlns:xlink="http://www.w3.org/1999/xlink">
 <metadata>
  <rdf:RDF xmlns:cc="http://creativecommons.org/ns#" xmlns:dc="http://purl.org/dc/elements/1.1/" xmlns:rdf="http://www.w3.org/1999/02/22-rdf-syntax-ns#">
   <cc:Work>
    <dc:type rdf:resource="http://purl.org/dc/dcmitype/StillImage"/>
    <dc:date>2022-06-26T15:42:23.312262</dc:date>
    <dc:format>image/svg+xml</dc:format>
    <dc:creator>
     <cc:Agent>
      <dc:title>Matplotlib v3.3.2, https://matplotlib.org/</dc:title>
     </cc:Agent>
    </dc:creator>
   </cc:Work>
  </rdf:RDF>
 </metadata>
 <defs>
  <style type="text/css">*{stroke-linecap:butt;stroke-linejoin:round;}</style>
 </defs>
 <g id="figure_1">
  <g id="patch_1">
   <path d="M 0 161.858937 
L 155.134062 161.858937 
L 155.134062 0 
L 0 0 
z
" style="fill:none;"/>
  </g>
  <g id="axes_1">
   <g id="patch_2">
    <path d="M 36.334063 133.077375 
L 147.934062 133.077375 
L 147.934062 24.357375 
L 36.334063 24.357375 
z
" style="fill:#ffffff;"/>
   </g>
   <g id="PolyCollection_1">
    <defs>
     <path d="M 45.152345 -29.610661 
L 45.152345 -28.781562 
L 45.643345 -28.781562 
L 46.134345 -28.781562 
L 46.625345 -28.781562 
L 47.116345 -28.781562 
L 47.607345 -28.781562 
L 48.098344 -28.781562 
L 48.589344 -28.781562 
L 49.080344 -28.781562 
L 49.571344 -28.781562 
L 50.062344 -28.781562 
L 50.553344 -28.781562 
L 51.044344 -28.781562 
L 51.535344 -28.781562 
L 52.026344 -28.781562 
L 52.517344 -28.781562 
L 53.008344 -28.781562 
L 53.499344 -28.781562 
L 53.990344 -28.781562 
L 54.481344 -28.781562 
L 54.972344 -28.781562 
L 55.463344 -28.781562 
L 55.954344 -28.781562 
L 56.445344 -28.781562 
L 56.936344 -28.781562 
L 57.427344 -28.781562 
L 57.918344 -28.781562 
L 58.409343 -28.781562 
L 58.900343 -28.781562 
L 59.391343 -28.781562 
L 59.882343 -28.781562 
L 60.373343 -28.781562 
L 60.864343 -28.781562 
L 61.355343 -28.781562 
L 61.846343 -28.781562 
L 62.337343 -28.781562 
L 62.828343 -28.781562 
L 63.319343 -28.781562 
L 63.810343 -28.781562 
L 64.301343 -28.781562 
L 64.792343 -28.781562 
L 65.283343 -28.781562 
L 65.774343 -28.781562 
L 66.265343 -28.781562 
L 66.756343 -28.781562 
L 67.247343 -28.781562 
L 67.738343 -28.781562 
L 68.229343 -28.781562 
L 68.720342 -28.781562 
L 69.211342 -28.781562 
L 69.702342 -28.781562 
L 70.193342 -28.781562 
L 70.684342 -28.781562 
L 71.175342 -28.781562 
L 71.666342 -28.781562 
L 72.157342 -28.781562 
L 72.648342 -28.781562 
L 73.139342 -28.781562 
L 73.630342 -28.781562 
L 74.121342 -28.781562 
L 74.612342 -28.781562 
L 75.103342 -28.781562 
L 75.594342 -28.781562 
L 76.085342 -28.781562 
L 76.576342 -28.781562 
L 77.067342 -28.781562 
L 77.558342 -28.781562 
L 78.049342 -28.781562 
L 78.540341 -28.781562 
L 79.031341 -28.781562 
L 79.522341 -28.781562 
L 80.013341 -28.781562 
L 80.504341 -28.781562 
L 80.995341 -28.781562 
L 81.486341 -28.781562 
L 81.977341 -28.781562 
L 82.468341 -28.781562 
L 82.959341 -28.781562 
L 83.450341 -28.781562 
L 83.941341 -28.781562 
L 84.432341 -28.781562 
L 84.923341 -28.781562 
L 85.414341 -28.781562 
L 85.905341 -28.781562 
L 86.396341 -28.781562 
L 86.887341 -28.781562 
L 87.378341 -28.781562 
L 87.869341 -28.781562 
L 88.360341 -28.781562 
L 88.85134 -28.781562 
L 89.34234 -28.781562 
L 89.83334 -28.781562 
L 90.32434 -28.781562 
L 90.81534 -28.781562 
L 91.30634 -28.781562 
L 91.79734 -28.781562 
L 92.28834 -28.781562 
L 92.77934 -28.781562 
L 93.27034 -28.781562 
L 93.76134 -28.781562 
L 94.25234 -28.781562 
L 94.74334 -28.781562 
L 95.23434 -28.781562 
L 95.72534 -28.781562 
L 96.21634 -28.781562 
L 96.70734 -28.781562 
L 97.19834 -28.781562 
L 97.68934 -28.781562 
L 98.18034 -28.781562 
L 98.67134 -28.781562 
L 99.162339 -28.781562 
L 99.653339 -28.781562 
L 100.144339 -28.781562 
L 100.635339 -28.781562 
L 101.126339 -28.781562 
L 101.617339 -28.781562 
L 102.108339 -28.781562 
L 102.599339 -28.781562 
L 103.090339 -28.781562 
L 103.581339 -28.781562 
L 104.072339 -28.781562 
L 104.563339 -28.781562 
L 105.054339 -28.781562 
L 105.545339 -28.781562 
L 106.036339 -28.781562 
L 106.527339 -28.781562 
L 107.018339 -28.781562 
L 107.509339 -28.781562 
L 108.000339 -28.781562 
L 108.491339 -28.781562 
L 108.982339 -28.781562 
L 109.473338 -28.781562 
L 109.964338 -28.781562 
L 110.455338 -28.781562 
L 110.946338 -28.781562 
L 111.437338 -28.781562 
L 111.928338 -28.781562 
L 112.419338 -28.781562 
L 112.910338 -28.781562 
L 113.401338 -28.781562 
L 113.892338 -28.781562 
L 114.383338 -28.781562 
L 114.874338 -28.781562 
L 115.365338 -28.781562 
L 115.856338 -28.781562 
L 116.347338 -28.781562 
L 116.838338 -28.781562 
L 117.329338 -28.781562 
L 117.820338 -28.781562 
L 118.311338 -28.781562 
L 118.802338 -28.781562 
L 119.293338 -28.781562 
L 119.784337 -28.781562 
L 120.275337 -28.781562 
L 120.766337 -28.781562 
L 121.257337 -28.781562 
L 121.748337 -28.781562 
L 122.239337 -28.781562 
L 122.730337 -28.781562 
L 123.221337 -28.781562 
L 123.712337 -28.781562 
L 124.203337 -28.781562 
L 124.694337 -28.781562 
L 125.185337 -28.781562 
L 125.676337 -28.781562 
L 126.167337 -28.781562 
L 126.658337 -28.781562 
L 127.149337 -28.781562 
L 127.640337 -28.781562 
L 128.131337 -28.781562 
L 128.622337 -28.781562 
L 129.113337 -28.781562 
L 129.604337 -28.781562 
L 130.095336 -28.781562 
L 130.586336 -28.781562 
L 131.077336 -28.781562 
L 131.568336 -28.781562 
L 132.059336 -28.781562 
L 132.550336 -28.781562 
L 133.041336 -28.781562 
L 133.532336 -28.781562 
L 134.023336 -28.781562 
L 134.514336 -28.781562 
L 135.005336 -28.781562 
L 135.496336 -28.781562 
L 135.987336 -28.781562 
L 136.478336 -28.781562 
L 136.969336 -28.781562 
L 137.460336 -28.781562 
L 137.951336 -28.781562 
L 138.442336 -28.781562 
L 138.933336 -28.781562 
L 139.424336 -28.781562 
L 139.915336 -28.781562 
L 140.406335 -28.781562 
L 140.897335 -28.781562 
L 141.388335 -28.781562 
L 141.879335 -28.781562 
L 142.370335 -28.781562 
L 142.861335 -28.781562 
L 142.861335 -28.782263 
L 142.861335 -28.782263 
L 142.370335 -28.782963 
L 141.879335 -28.784207 
L 141.388335 -28.786274 
L 140.897335 -28.789484 
L 140.406335 -28.794129 
L 139.915336 -28.800376 
L 139.424336 -28.80814 
L 138.933336 -28.816992 
L 138.442336 -28.82613 
L 137.951336 -28.834466 
L 137.460336 -28.840822 
L 136.969336 -28.8442 
L 136.478336 -28.844039 
L 135.987336 -28.840366 
L 135.496336 -28.833791 
L 135.005336 -28.825336 
L 134.514336 -28.816182 
L 134.023336 -28.807399 
L 133.532336 -28.799758 
L 133.041336 -28.793654 
L 132.550336 -28.789145 
L 132.059336 -28.78605 
L 131.568336 -28.784069 
L 131.077336 -28.782887 
L 130.586336 -28.78223 
L 130.095336 -28.781901 
L 129.604337 -28.781774 
L 129.113337 -28.781795 
L 128.622337 -28.781975 
L 128.131337 -28.782389 
L 127.640337 -28.783185 
L 127.149337 -28.784589 
L 126.658337 -28.786901 
L 126.167337 -28.790462 
L 125.676337 -28.795589 
L 125.185337 -28.802479 
L 124.694337 -28.811106 
L 124.203337 -28.821151 
L 123.712337 -28.832001 
L 123.221337 -28.84284 
L 122.730337 -28.852818 
L 122.239337 -28.861227 
L 121.748337 -28.867634 
L 121.257337 -28.87189 
L 120.766337 -28.874043 
L 120.275337 -28.874208 
L 119.784337 -28.872491 
L 119.293338 -28.869027 
L 118.802338 -28.86414 
L 118.311338 -28.858548 
L 117.820338 -28.853526 
L 117.329338 -28.850929 
L 116.838338 -28.853051 
L 116.347338 -28.862346 
L 115.856338 -28.8811 
L 115.365338 -28.911129 
L 114.874338 -28.953618 
L 114.383338 -29.009137 
L 113.892338 -29.077858 
L 113.401338 -29.159892 
L 112.910338 -29.255634 
L 112.419338 -29.365958 
L 111.928338 -29.492164 
L 111.437338 -29.635659 
L 110.946338 -29.797479 
L 110.455338 -29.977842 
L 109.964338 -30.17591 
L 109.473338 -30.389805 
L 108.982339 -30.616852 
L 108.491339 -30.853897 
L 108.000339 -31.097604 
L 107.509339 -31.344759 
L 107.018339 -31.592696 
L 106.527339 -31.839979 
L 106.036339 -32.087292 
L 105.545339 -32.338263 
L 105.054339 -32.599796 
L 104.563339 -32.881547 
L 104.072339 -33.19454 
L 103.581339 -33.549338 
L 103.090339 -33.954463 
L 102.599339 -34.415747 
L 102.108339 -34.936842 
L 101.617339 -35.520637 
L 101.126339 -36.170868 
L 100.635339 -36.893206 
L 100.144339 -37.695337 
L 99.653339 -38.586063 
L 99.162339 -39.573746 
L 98.67134 -40.664632 
L 98.18034 -41.861458 
L 97.68934 -43.162742 
L 97.19834 -44.563029 
L 96.70734 -46.054351 
L 96.21634 -47.628808 
L 95.72534 -49.281627 
L 95.23434 -51.013416 
L 94.74334 -52.830125 
L 94.25234 -54.739879 
L 93.76134 -56.7473 
L 93.27034 -58.847553 
L 92.77934 -61.023206 
L 92.28834 -63.246392 
L 91.79734 -65.486736 
L 91.30634 -67.722858 
L 90.81534 -69.953274 
L 90.32434 -72.202208 
L 89.83334 -74.517435 
L 89.34234 -76.960244 
L 88.85134 -79.590571 
L 88.360341 -82.45209 
L 87.869341 -85.561814 
L 87.378341 -88.906699 
L 86.887341 -92.447034 
L 86.396341 -96.124079 
L 85.905341 -99.86869 
L 85.414341 -103.608435 
L 84.923341 -107.272405 
L 84.432341 -110.794372 
L 83.941341 -114.115455 
L 83.450341 -117.186947 
L 82.959341 -119.973005 
L 82.468341 -122.452312 
L 81.977341 -124.617949 
L 81.486341 -126.475369 
L 80.995341 -128.03909 
L 80.504341 -129.328941 
L 80.013341 -130.366489 
L 79.522341 -131.171861 
L 79.031341 -131.761059 
L 78.540341 -132.144068 
L 78.049342 -132.32442 
L 77.558342 -132.300758 
L 77.067342 -132.07033 
L 76.576342 -131.633261 
L 76.085342 -130.995822 
L 75.594342 -130.17104 
L 75.103342 -129.176199 
L 74.612342 -128.028247 
L 74.121342 -126.73918 
L 73.630342 -125.313464 
L 73.139342 -123.748644 
L 72.648342 -122.038905 
L 72.157342 -120.180259 
L 71.666342 -118.175533 
L 71.175342 -116.03751 
L 70.684342 -113.789242 
L 70.193342 -111.461396 
L 69.702342 -109.087398 
L 69.211342 -106.69784 
L 68.720342 -104.315987 
L 68.229343 -101.955952 
L 67.738343 -99.624262 
L 67.247343 -97.324203 
L 66.756343 -95.061011 
L 66.265343 -92.845313 
L 65.774343 -90.692637 
L 65.283343 -88.61833 
L 64.792343 -86.62939 
L 64.301343 -84.716407 
L 63.810343 -82.849408 
L 63.319343 -80.980265 
L 62.828343 -79.052054 
L 62.337343 -77.013036 
L 61.846343 -74.831002 
L 61.355343 -72.503309 
L 60.864343 -70.059165 
L 60.373343 -67.553358 
L 59.882343 -65.053552 
L 59.391343 -62.625891 
L 58.900343 -60.32489 
L 58.409343 -58.193182 
L 57.918344 -56.274468 
L 57.427344 -54.63917 
L 56.936344 -53.417163 
L 56.445344 -52.826428 
L 55.954344 -53.181723 
L 55.463344 -54.866002 
L 54.972344 -58.252483 
L 54.481344 -63.579479 
L 53.990344 -70.802348 
L 53.499344 -79.470049 
L 53.008344 -88.685382 
L 52.517344 -97.195442 
L 52.026344 -103.618717 
L 51.535344 -106.759383 
L 51.044344 -105.912978 
L 50.553344 -101.057015 
L 50.062344 -92.855996 
L 49.571344 -82.47919 
L 49.080344 -71.29929 
L 48.589344 -60.57784 
L 48.098344 -51.234339 
L 47.607345 -43.75011 
L 47.116345 -38.201639 
L 46.625345 -34.377308 
L 46.134345 -31.918917 
L 45.643345 -30.441727 
L 45.152345 -29.610661 
z
" id="m2e29b4458b" style="stroke:#808080;"/>
    </defs>
    <g clip-path="url(#p2ebce11274)">
     <use style="fill:#808080;fill-opacity:0.25;stroke:#808080;" x="0" xlink:href="#m2e29b4458b" y="161.858937"/>
    </g>
   </g>
   <g id="PolyCollection_2">
    <defs>
     <path d="M 41.40679 -29.780913 
L 41.40679 -28.781562 
L 41.817182 -28.781562 
L 42.227574 -28.781562 
L 42.637966 -28.781562 
L 43.048358 -28.781562 
L 43.45875 -28.781562 
L 43.869142 -28.781562 
L 44.279534 -28.781562 
L 44.689926 -28.781562 
L 45.100318 -28.781562 
L 45.51071 -28.781562 
L 45.921102 -28.781562 
L 46.331493 -28.781562 
L 46.741885 -28.781562 
L 47.152277 -28.781562 
L 47.562669 -28.781562 
L 47.973061 -28.781562 
L 48.383453 -28.781562 
L 48.793845 -28.781562 
L 49.204237 -28.781562 
L 49.614629 -28.781562 
L 50.025021 -28.781562 
L 50.435413 -28.781562 
L 50.845805 -28.781562 
L 51.256197 -28.781562 
L 51.666589 -28.781562 
L 52.076981 -28.781562 
L 52.487373 -28.781562 
L 52.897765 -28.781562 
L 53.308157 -28.781562 
L 53.718549 -28.781562 
L 54.128941 -28.781562 
L 54.539333 -28.781562 
L 54.949725 -28.781562 
L 55.360117 -28.781562 
L 55.770509 -28.781562 
L 56.180901 -28.781562 
L 56.591293 -28.781562 
L 57.001685 -28.781562 
L 57.412077 -28.781562 
L 57.822469 -28.781562 
L 58.232861 -28.781562 
L 58.643253 -28.781562 
L 59.053645 -28.781562 
L 59.464037 -28.781562 
L 59.874429 -28.781562 
L 60.284821 -28.781562 
L 60.695213 -28.781562 
L 61.105605 -28.781562 
L 61.515997 -28.781562 
L 61.926389 -28.781562 
L 62.336781 -28.781562 
L 62.747173 -28.781562 
L 63.157565 -28.781562 
L 63.567956 -28.781562 
L 63.978348 -28.781562 
L 64.38874 -28.781562 
L 64.799132 -28.781562 
L 65.209524 -28.781562 
L 65.619916 -28.781562 
L 66.030308 -28.781562 
L 66.4407 -28.781562 
L 66.851092 -28.781562 
L 67.261484 -28.781562 
L 67.671876 -28.781562 
L 68.082268 -28.781562 
L 68.49266 -28.781562 
L 68.903052 -28.781562 
L 69.313444 -28.781562 
L 69.723836 -28.781562 
L 70.134228 -28.781562 
L 70.54462 -28.781562 
L 70.955012 -28.781562 
L 71.365404 -28.781562 
L 71.775796 -28.781562 
L 72.186188 -28.781562 
L 72.59658 -28.781562 
L 73.006972 -28.781562 
L 73.417364 -28.781562 
L 73.827756 -28.781562 
L 74.238148 -28.781562 
L 74.64854 -28.781562 
L 75.058932 -28.781562 
L 75.469324 -28.781562 
L 75.879716 -28.781562 
L 76.290108 -28.781562 
L 76.7005 -28.781562 
L 77.110892 -28.781562 
L 77.521284 -28.781562 
L 77.931676 -28.781562 
L 78.342068 -28.781562 
L 78.75246 -28.781562 
L 79.162852 -28.781562 
L 79.573244 -28.781562 
L 79.983636 -28.781562 
L 80.394028 -28.781562 
L 80.804419 -28.781562 
L 81.214811 -28.781562 
L 81.625203 -28.781562 
L 82.035595 -28.781562 
L 82.445987 -28.781562 
L 82.856379 -28.781562 
L 83.266771 -28.781562 
L 83.677163 -28.781562 
L 84.087555 -28.781562 
L 84.497947 -28.781562 
L 84.908339 -28.781562 
L 85.318731 -28.781562 
L 85.729123 -28.781562 
L 86.139515 -28.781562 
L 86.549907 -28.781562 
L 86.960299 -28.781562 
L 87.370691 -28.781562 
L 87.781083 -28.781562 
L 88.191475 -28.781562 
L 88.601867 -28.781562 
L 89.012259 -28.781562 
L 89.422651 -28.781562 
L 89.833043 -28.781562 
L 90.243435 -28.781562 
L 90.653827 -28.781562 
L 91.064219 -28.781562 
L 91.474611 -28.781562 
L 91.885003 -28.781562 
L 92.295395 -28.781562 
L 92.705787 -28.781562 
L 93.116179 -28.781562 
L 93.526571 -28.781562 
L 93.936963 -28.781562 
L 94.347355 -28.781562 
L 94.757747 -28.781562 
L 95.168139 -28.781562 
L 95.578531 -28.781562 
L 95.988923 -28.781562 
L 96.399315 -28.781562 
L 96.809707 -28.781562 
L 97.220099 -28.781562 
L 97.630491 -28.781562 
L 98.040882 -28.781562 
L 98.451274 -28.781562 
L 98.861666 -28.781562 
L 99.272058 -28.781562 
L 99.68245 -28.781562 
L 100.092842 -28.781562 
L 100.503234 -28.781562 
L 100.913626 -28.781562 
L 101.324018 -28.781562 
L 101.73441 -28.781562 
L 102.144802 -28.781562 
L 102.555194 -28.781562 
L 102.965586 -28.781562 
L 103.375978 -28.781562 
L 103.78637 -28.781562 
L 104.196762 -28.781562 
L 104.607154 -28.781562 
L 105.017546 -28.781562 
L 105.427938 -28.781562 
L 105.83833 -28.781562 
L 106.248722 -28.781562 
L 106.659114 -28.781562 
L 107.069506 -28.781562 
L 107.479898 -28.781562 
L 107.89029 -28.781562 
L 108.300682 -28.781562 
L 108.711074 -28.781562 
L 109.121466 -28.781562 
L 109.531858 -28.781562 
L 109.94225 -28.781562 
L 110.352642 -28.781562 
L 110.763034 -28.781562 
L 111.173426 -28.781562 
L 111.583818 -28.781562 
L 111.99421 -28.781562 
L 112.404602 -28.781562 
L 112.814994 -28.781562 
L 113.225386 -28.781562 
L 113.635778 -28.781562 
L 114.04617 -28.781562 
L 114.456562 -28.781562 
L 114.866954 -28.781562 
L 115.277345 -28.781562 
L 115.687737 -28.781562 
L 116.098129 -28.781562 
L 116.508521 -28.781562 
L 116.918913 -28.781562 
L 117.329305 -28.781562 
L 117.739697 -28.781562 
L 118.150089 -28.781562 
L 118.560481 -28.781562 
L 118.970873 -28.781562 
L 119.381265 -28.781562 
L 119.791657 -28.781562 
L 120.202049 -28.781562 
L 120.612441 -28.781562 
L 121.022833 -28.781562 
L 121.433225 -28.781562 
L 121.843617 -28.781562 
L 122.254009 -28.781562 
L 122.664401 -28.781562 
L 123.074793 -28.781562 
L 123.074793 -28.784693 
L 123.074793 -28.784693 
L 122.664401 -28.786188 
L 122.254009 -28.788307 
L 121.843617 -28.791266 
L 121.433225 -28.795341 
L 121.022833 -28.800874 
L 120.612441 -28.808288 
L 120.202049 -28.818086 
L 119.791657 -28.830866 
L 119.381265 -28.847317 
L 118.970873 -28.868222 
L 118.560481 -28.894453 
L 118.150089 -28.926957 
L 117.739697 -28.96674 
L 117.329305 -29.014843 
L 116.918913 -29.07231 
L 116.508521 -29.14015 
L 116.098129 -29.219296 
L 115.687737 -29.31055 
L 115.277345 -29.414541 
L 114.866954 -29.531665 
L 114.456562 -29.662048 
L 114.04617 -29.805497 
L 113.635778 -29.961478 
L 113.225386 -30.1291 
L 112.814994 -30.307125 
L 112.404602 -30.493991 
L 111.99421 -30.68787 
L 111.583818 -30.886732 
L 111.173426 -31.088446 
L 110.763034 -31.290884 
L 110.352642 -31.492035 
L 109.94225 -31.69013 
L 109.531858 -31.88375 
L 109.121466 -32.071937 
L 108.711074 -32.254275 
L 108.300682 -32.430968 
L 107.89029 -32.602886 
L 107.479898 -32.771595 
L 107.069506 -32.939376 
L 106.659114 -33.10922 
L 106.248722 -33.284813 
L 105.83833 -33.470503 
L 105.427938 -33.671255 
L 105.017546 -33.892587 
L 104.607154 -34.140481 
L 104.196762 -34.421277 
L 103.78637 -34.741537 
L 103.375978 -35.107885 
L 102.965586 -35.52683 
L 102.555194 -36.004566 
L 102.144802 -36.546777 
L 101.73441 -37.158435 
L 101.324018 -37.843627 
L 100.913626 -38.605395 
L 100.503234 -39.445626 
L 100.092842 -40.364978 
L 99.68245 -41.362857 
L 99.272058 -42.437444 
L 98.861666 -43.585772 
L 98.451274 -44.80384 
L 98.040882 -46.086779 
L 97.630491 -47.429041 
L 97.220099 -48.824621 
L 96.809707 -50.267292 
L 96.399315 -51.750857 
L 95.988923 -53.26941 
L 95.578531 -54.817591 
L 95.168139 -56.390838 
L 94.757747 -57.985619 
L 94.347355 -59.599641 
L 93.936963 -61.232028 
L 93.526571 -62.883439 
L 93.116179 -64.556134 
L 92.705787 -66.253949 
L 92.295395 -67.982179 
L 91.885003 -69.747352 
L 91.474611 -71.556873 
L 91.064219 -73.418551 
L 90.653827 -75.340003 
L 90.243435 -77.327963 
L 89.833043 -79.38753 
L 89.422651 -81.521397 
L 89.012259 -83.729138 
L 88.601867 -86.006599 
L 88.191475 -88.345487 
L 87.781083 -90.733194 
L 87.370691 -93.152923 
L 86.960299 -95.584128 
L 86.549907 -98.003264 
L 86.139515 -100.384813 
L 85.729123 -102.702511 
L 85.318731 -104.930696 
L 84.908339 -107.045642 
L 84.497947 -109.026795 
L 84.087555 -110.857767 
L 83.677163 -112.527019 
L 83.266771 -114.028168 
L 82.856379 -115.359875 
L 82.445987 -116.525356 
L 82.035595 -117.531545 
L 81.625203 -118.388012 
L 81.214811 -119.105738 
L 80.804419 -119.695863 
L 80.394028 -120.168538 
L 79.983636 -120.531965 
L 79.573244 -120.791722 
L 79.162852 -120.950398 
L 78.75246 -121.007551 
L 78.342068 -120.959979 
L 77.931676 -120.802214 
L 77.521284 -120.527207 
L 77.110892 -120.127086 
L 76.7005 -119.593936 
L 76.290108 -118.920506 
L 75.879716 -118.100815 
L 75.469324 -117.130621 
L 75.058932 -116.00774 
L 74.64854 -114.73224 
L 74.238148 -113.306513 
L 73.827756 -111.735275 
L 73.417364 -110.025499 
L 73.006972 -108.186309 
L 72.59658 -106.228842 
L 72.186188 -104.166069 
L 71.775796 -102.012576 
L 71.365404 -99.78428 
L 70.955012 -97.49808 
L 70.54462 -95.171438 
L 70.134228 -92.821891 
L 69.723836 -90.466522 
L 69.313444 -88.12142 
L 68.903052 -85.801165 
L 68.49266 -83.518377 
L 68.082268 -81.283376 
L 67.671876 -79.103986 
L 67.261484 -76.98548 
L 66.851092 -74.930709 
L 66.4407 -72.940377 
L 66.030308 -71.013452 
L 65.619916 -69.147692 
L 65.209524 -67.340247 
L 64.799132 -65.588308 
L 64.38874 -63.889782 
L 63.978348 -62.243965 
L 63.567956 -60.65221 
L 63.157565 -59.118593 
L 62.747173 -57.650569 
L 62.336781 -56.259632 
L 61.926389 -54.961978 
L 61.515997 -53.779159 
L 61.105605 -52.738694 
L 60.695213 -51.874578 
L 60.284821 -51.227585 
L 59.874429 -50.84525 
L 59.464037 -50.781342 
L 59.053645 -51.094672 
L 58.643253 -51.847045 
L 58.232861 -53.10022 
L 57.822469 -54.91182 
L 57.412077 -57.330234 
L 57.001685 -60.388718 
L 56.591293 -64.099058 
L 56.180901 -68.445337 
L 55.770509 -73.378472 
L 55.360117 -78.812288 
L 54.949725 -84.621863 
L 54.539333 -90.644793 
L 54.128941 -96.685777 
L 53.718549 -102.524623 
L 53.308157 -107.927381 
L 52.897765 -112.659913 
L 52.487373 -116.502837 
L 52.076981 -119.266548 
L 51.666589 -120.80486 
L 51.256197 -121.025905 
L 50.845805 -119.899148 
L 50.435413 -117.457754 
L 50.025021 -113.79605 
L 49.614629 -109.062352 
L 49.204237 -103.447903 
L 48.793845 -97.173073 
L 48.383453 -90.472203 
L 47.973061 -83.578536 
L 47.562669 -76.710555 
L 47.152277 -70.060802 
L 46.741885 -63.787874 
L 46.331493 -58.0119 
L 45.921102 -52.81341 
L 45.51071 -48.235193 
L 45.100318 -44.286486 
L 44.689926 -40.94875 
L 44.279534 -38.182239 
L 43.869142 -35.932676 
L 43.45875 -34.137453 
L 43.048358 -32.730964 
L 42.637966 -31.648848 
L 42.227574 -30.831069 
L 41.817182 -30.223894 
L 41.40679 -29.780913 
z
" id="mf135d8cbcc" style="stroke:#dc9514;"/>
    </defs>
    <g clip-path="url(#p2ebce11274)">
     <use style="fill:#dc9514;fill-opacity:0.25;stroke:#dc9514;" x="0" xlink:href="#mf135d8cbcc" y="161.858937"/>
    </g>
   </g>
   <g id="matplotlib.axis_1">
    <g id="xtick_1">
     <g id="line2d_1">
      <defs>
       <path d="M 0 0 
L 0 3.5 
" id="m121557c562" style="stroke:#000000;stroke-width:0.8;"/>
      </defs>
      <g>
       <use style="stroke:#000000;stroke-width:0.8;" x="51.268094" xlink:href="#m121557c562" y="133.077375"/>
      </g>
     </g>
     <g id="text_1">
      <!-- 0 -->
      <g transform="translate(49.359344 144.636437)scale(0.06 -0.06)">
       <defs>
        <path d="M 31.78125 66.40625 
Q 24.171875 66.40625 20.328125 58.90625 
Q 16.5 51.421875 16.5 36.375 
Q 16.5 21.390625 20.328125 13.890625 
Q 24.171875 6.390625 31.78125 6.390625 
Q 39.453125 6.390625 43.28125 13.890625 
Q 47.125 21.390625 47.125 36.375 
Q 47.125 51.421875 43.28125 58.90625 
Q 39.453125 66.40625 31.78125 66.40625 
z
M 31.78125 74.21875 
Q 44.046875 74.21875 50.515625 64.515625 
Q 56.984375 54.828125 56.984375 36.375 
Q 56.984375 17.96875 50.515625 8.265625 
Q 44.046875 -1.421875 31.78125 -1.421875 
Q 19.53125 -1.421875 13.0625 8.265625 
Q 6.59375 17.96875 6.59375 36.375 
Q 6.59375 54.828125 13.0625 64.515625 
Q 19.53125 74.21875 31.78125 74.21875 
z
" id="DejaVuSans-48"/>
       </defs>
       <use xlink:href="#DejaVuSans-48"/>
      </g>
     </g>
    </g>
    <g id="xtick_2">
     <g id="line2d_2">
      <g>
       <use style="stroke:#000000;stroke-width:0.8;" x="72.942858" xlink:href="#m121557c562" y="133.077375"/>
      </g>
     </g>
     <g id="text_2">
      <!-- 5 -->
      <g transform="translate(71.034108 144.636437)scale(0.06 -0.06)">
       <defs>
        <path d="M 10.796875 72.90625 
L 49.515625 72.90625 
L 49.515625 64.59375 
L 19.828125 64.59375 
L 19.828125 46.734375 
Q 21.96875 47.46875 24.109375 47.828125 
Q 26.265625 48.1875 28.421875 48.1875 
Q 40.625 48.1875 47.75 41.5 
Q 54.890625 34.8125 54.890625 23.390625 
Q 54.890625 11.625 47.5625 5.09375 
Q 40.234375 -1.421875 26.90625 -1.421875 
Q 22.3125 -1.421875 17.546875 -0.640625 
Q 12.796875 0.140625 7.71875 1.703125 
L 7.71875 11.625 
Q 12.109375 9.234375 16.796875 8.0625 
Q 21.484375 6.890625 26.703125 6.890625 
Q 35.15625 6.890625 40.078125 11.328125 
Q 45.015625 15.765625 45.015625 23.390625 
Q 45.015625 31 40.078125 35.4375 
Q 35.15625 39.890625 26.703125 39.890625 
Q 22.75 39.890625 18.8125 39.015625 
Q 14.890625 38.140625 10.796875 36.28125 
z
" id="DejaVuSans-53"/>
       </defs>
       <use xlink:href="#DejaVuSans-53"/>
      </g>
     </g>
    </g>
    <g id="xtick_3">
     <g id="line2d_3">
      <g>
       <use style="stroke:#000000;stroke-width:0.8;" x="94.617622" xlink:href="#m121557c562" y="133.077375"/>
      </g>
     </g>
     <g id="text_3">
      <!-- 10 -->
      <g transform="translate(90.800122 144.636437)scale(0.06 -0.06)">
       <defs>
        <path d="M 12.40625 8.296875 
L 28.515625 8.296875 
L 28.515625 63.921875 
L 10.984375 60.40625 
L 10.984375 69.390625 
L 28.421875 72.90625 
L 38.28125 72.90625 
L 38.28125 8.296875 
L 54.390625 8.296875 
L 54.390625 0 
L 12.40625 0 
z
" id="DejaVuSans-49"/>
       </defs>
       <use xlink:href="#DejaVuSans-49"/>
       <use x="63.623047" xlink:href="#DejaVuSans-48"/>
      </g>
     </g>
    </g>
    <g id="xtick_4">
     <g id="line2d_4">
      <g>
       <use style="stroke:#000000;stroke-width:0.8;" x="116.292387" xlink:href="#m121557c562" y="133.077375"/>
      </g>
     </g>
     <g id="text_4">
      <!-- 15 -->
      <g transform="translate(112.474887 144.636437)scale(0.06 -0.06)">
       <use xlink:href="#DejaVuSans-49"/>
       <use x="63.623047" xlink:href="#DejaVuSans-53"/>
      </g>
     </g>
    </g>
    <g id="xtick_5">
     <g id="line2d_5">
      <g>
       <use style="stroke:#000000;stroke-width:0.8;" x="137.967151" xlink:href="#m121557c562" y="133.077375"/>
      </g>
     </g>
     <g id="text_5">
      <!-- 20 -->
      <g transform="translate(134.149651 144.636437)scale(0.06 -0.06)">
       <defs>
        <path d="M 19.1875 8.296875 
L 53.609375 8.296875 
L 53.609375 0 
L 7.328125 0 
L 7.328125 8.296875 
Q 12.9375 14.109375 22.625 23.890625 
Q 32.328125 33.6875 34.8125 36.53125 
Q 39.546875 41.84375 41.421875 45.53125 
Q 43.3125 49.21875 43.3125 52.78125 
Q 43.3125 58.59375 39.234375 62.25 
Q 35.15625 65.921875 28.609375 65.921875 
Q 23.96875 65.921875 18.8125 64.3125 
Q 13.671875 62.703125 7.8125 59.421875 
L 7.8125 69.390625 
Q 13.765625 71.78125 18.9375 73 
Q 24.125 74.21875 28.421875 74.21875 
Q 39.75 74.21875 46.484375 68.546875 
Q 53.21875 62.890625 53.21875 53.421875 
Q 53.21875 48.921875 51.53125 44.890625 
Q 49.859375 40.875 45.40625 35.40625 
Q 44.1875 33.984375 37.640625 27.21875 
Q 31.109375 20.453125 19.1875 8.296875 
z
" id="DejaVuSans-50"/>
       </defs>
       <use xlink:href="#DejaVuSans-50"/>
       <use x="63.623047" xlink:href="#DejaVuSans-48"/>
      </g>
     </g>
    </g>
    <g id="text_6">
     <!-- Predicted occupancy (a.u.) -->
     <g transform="translate(45.371875 153.203156)scale(0.07 -0.07)">
      <defs>
       <path d="M 19.671875 64.796875 
L 19.671875 37.40625 
L 32.078125 37.40625 
Q 38.96875 37.40625 42.71875 40.96875 
Q 46.484375 44.53125 46.484375 51.125 
Q 46.484375 57.671875 42.71875 61.234375 
Q 38.96875 64.796875 32.078125 64.796875 
z
M 9.8125 72.90625 
L 32.078125 72.90625 
Q 44.34375 72.90625 50.609375 67.359375 
Q 56.890625 61.8125 56.890625 51.125 
Q 56.890625 40.328125 50.609375 34.8125 
Q 44.34375 29.296875 32.078125 29.296875 
L 19.671875 29.296875 
L 19.671875 0 
L 9.8125 0 
z
" id="DejaVuSans-80"/>
       <path d="M 41.109375 46.296875 
Q 39.59375 47.171875 37.8125 47.578125 
Q 36.03125 48 33.890625 48 
Q 26.265625 48 22.1875 43.046875 
Q 18.109375 38.09375 18.109375 28.8125 
L 18.109375 0 
L 9.078125 0 
L 9.078125 54.6875 
L 18.109375 54.6875 
L 18.109375 46.1875 
Q 20.953125 51.171875 25.484375 53.578125 
Q 30.03125 56 36.53125 56 
Q 37.453125 56 38.578125 55.875 
Q 39.703125 55.765625 41.0625 55.515625 
z
" id="DejaVuSans-114"/>
       <path d="M 56.203125 29.59375 
L 56.203125 25.203125 
L 14.890625 25.203125 
Q 15.484375 15.921875 20.484375 11.0625 
Q 25.484375 6.203125 34.421875 6.203125 
Q 39.59375 6.203125 44.453125 7.46875 
Q 49.3125 8.734375 54.109375 11.28125 
L 54.109375 2.78125 
Q 49.265625 0.734375 44.1875 -0.34375 
Q 39.109375 -1.421875 33.890625 -1.421875 
Q 20.796875 -1.421875 13.15625 6.1875 
Q 5.515625 13.8125 5.515625 26.8125 
Q 5.515625 40.234375 12.765625 48.109375 
Q 20.015625 56 32.328125 56 
Q 43.359375 56 49.78125 48.890625 
Q 56.203125 41.796875 56.203125 29.59375 
z
M 47.21875 32.234375 
Q 47.125 39.59375 43.09375 43.984375 
Q 39.0625 48.390625 32.421875 48.390625 
Q 24.90625 48.390625 20.390625 44.140625 
Q 15.875 39.890625 15.1875 32.171875 
z
" id="DejaVuSans-101"/>
       <path d="M 45.40625 46.390625 
L 45.40625 75.984375 
L 54.390625 75.984375 
L 54.390625 0 
L 45.40625 0 
L 45.40625 8.203125 
Q 42.578125 3.328125 38.25 0.953125 
Q 33.9375 -1.421875 27.875 -1.421875 
Q 17.96875 -1.421875 11.734375 6.484375 
Q 5.515625 14.40625 5.515625 27.296875 
Q 5.515625 40.1875 11.734375 48.09375 
Q 17.96875 56 27.875 56 
Q 33.9375 56 38.25 53.625 
Q 42.578125 51.265625 45.40625 46.390625 
z
M 14.796875 27.296875 
Q 14.796875 17.390625 18.875 11.75 
Q 22.953125 6.109375 30.078125 6.109375 
Q 37.203125 6.109375 41.296875 11.75 
Q 45.40625 17.390625 45.40625 27.296875 
Q 45.40625 37.203125 41.296875 42.84375 
Q 37.203125 48.484375 30.078125 48.484375 
Q 22.953125 48.484375 18.875 42.84375 
Q 14.796875 37.203125 14.796875 27.296875 
z
" id="DejaVuSans-100"/>
       <path d="M 9.421875 54.6875 
L 18.40625 54.6875 
L 18.40625 0 
L 9.421875 0 
z
M 9.421875 75.984375 
L 18.40625 75.984375 
L 18.40625 64.59375 
L 9.421875 64.59375 
z
" id="DejaVuSans-105"/>
       <path d="M 48.78125 52.59375 
L 48.78125 44.1875 
Q 44.96875 46.296875 41.140625 47.34375 
Q 37.3125 48.390625 33.40625 48.390625 
Q 24.65625 48.390625 19.8125 42.84375 
Q 14.984375 37.3125 14.984375 27.296875 
Q 14.984375 17.28125 19.8125 11.734375 
Q 24.65625 6.203125 33.40625 6.203125 
Q 37.3125 6.203125 41.140625 7.25 
Q 44.96875 8.296875 48.78125 10.40625 
L 48.78125 2.09375 
Q 45.015625 0.34375 40.984375 -0.53125 
Q 36.96875 -1.421875 32.421875 -1.421875 
Q 20.0625 -1.421875 12.78125 6.34375 
Q 5.515625 14.109375 5.515625 27.296875 
Q 5.515625 40.671875 12.859375 48.328125 
Q 20.21875 56 33.015625 56 
Q 37.15625 56 41.109375 55.140625 
Q 45.0625 54.296875 48.78125 52.59375 
z
" id="DejaVuSans-99"/>
       <path d="M 18.3125 70.21875 
L 18.3125 54.6875 
L 36.8125 54.6875 
L 36.8125 47.703125 
L 18.3125 47.703125 
L 18.3125 18.015625 
Q 18.3125 11.328125 20.140625 9.421875 
Q 21.96875 7.515625 27.59375 7.515625 
L 36.8125 7.515625 
L 36.8125 0 
L 27.59375 0 
Q 17.1875 0 13.234375 3.875 
Q 9.28125 7.765625 9.28125 18.015625 
L 9.28125 47.703125 
L 2.6875 47.703125 
L 2.6875 54.6875 
L 9.28125 54.6875 
L 9.28125 70.21875 
z
" id="DejaVuSans-116"/>
       <path id="DejaVuSans-32"/>
       <path d="M 30.609375 48.390625 
Q 23.390625 48.390625 19.1875 42.75 
Q 14.984375 37.109375 14.984375 27.296875 
Q 14.984375 17.484375 19.15625 11.84375 
Q 23.34375 6.203125 30.609375 6.203125 
Q 37.796875 6.203125 41.984375 11.859375 
Q 46.1875 17.53125 46.1875 27.296875 
Q 46.1875 37.015625 41.984375 42.703125 
Q 37.796875 48.390625 30.609375 48.390625 
z
M 30.609375 56 
Q 42.328125 56 49.015625 48.375 
Q 55.71875 40.765625 55.71875 27.296875 
Q 55.71875 13.875 49.015625 6.21875 
Q 42.328125 -1.421875 30.609375 -1.421875 
Q 18.84375 -1.421875 12.171875 6.21875 
Q 5.515625 13.875 5.515625 27.296875 
Q 5.515625 40.765625 12.171875 48.375 
Q 18.84375 56 30.609375 56 
z
" id="DejaVuSans-111"/>
       <path d="M 8.5 21.578125 
L 8.5 54.6875 
L 17.484375 54.6875 
L 17.484375 21.921875 
Q 17.484375 14.15625 20.5 10.265625 
Q 23.53125 6.390625 29.59375 6.390625 
Q 36.859375 6.390625 41.078125 11.03125 
Q 45.3125 15.671875 45.3125 23.6875 
L 45.3125 54.6875 
L 54.296875 54.6875 
L 54.296875 0 
L 45.3125 0 
L 45.3125 8.40625 
Q 42.046875 3.421875 37.71875 1 
Q 33.40625 -1.421875 27.6875 -1.421875 
Q 18.265625 -1.421875 13.375 4.4375 
Q 8.5 10.296875 8.5 21.578125 
z
M 31.109375 56 
z
" id="DejaVuSans-117"/>
       <path d="M 18.109375 8.203125 
L 18.109375 -20.796875 
L 9.078125 -20.796875 
L 9.078125 54.6875 
L 18.109375 54.6875 
L 18.109375 46.390625 
Q 20.953125 51.265625 25.265625 53.625 
Q 29.59375 56 35.59375 56 
Q 45.5625 56 51.78125 48.09375 
Q 58.015625 40.1875 58.015625 27.296875 
Q 58.015625 14.40625 51.78125 6.484375 
Q 45.5625 -1.421875 35.59375 -1.421875 
Q 29.59375 -1.421875 25.265625 0.953125 
Q 20.953125 3.328125 18.109375 8.203125 
z
M 48.6875 27.296875 
Q 48.6875 37.203125 44.609375 42.84375 
Q 40.53125 48.484375 33.40625 48.484375 
Q 26.265625 48.484375 22.1875 42.84375 
Q 18.109375 37.203125 18.109375 27.296875 
Q 18.109375 17.390625 22.1875 11.75 
Q 26.265625 6.109375 33.40625 6.109375 
Q 40.53125 6.109375 44.609375 11.75 
Q 48.6875 17.390625 48.6875 27.296875 
z
" id="DejaVuSans-112"/>
       <path d="M 34.28125 27.484375 
Q 23.390625 27.484375 19.1875 25 
Q 14.984375 22.515625 14.984375 16.5 
Q 14.984375 11.71875 18.140625 8.90625 
Q 21.296875 6.109375 26.703125 6.109375 
Q 34.1875 6.109375 38.703125 11.40625 
Q 43.21875 16.703125 43.21875 25.484375 
L 43.21875 27.484375 
z
M 52.203125 31.203125 
L 52.203125 0 
L 43.21875 0 
L 43.21875 8.296875 
Q 40.140625 3.328125 35.546875 0.953125 
Q 30.953125 -1.421875 24.3125 -1.421875 
Q 15.921875 -1.421875 10.953125 3.296875 
Q 6 8.015625 6 15.921875 
Q 6 25.140625 12.171875 29.828125 
Q 18.359375 34.515625 30.609375 34.515625 
L 43.21875 34.515625 
L 43.21875 35.40625 
Q 43.21875 41.609375 39.140625 45 
Q 35.0625 48.390625 27.6875 48.390625 
Q 23 48.390625 18.546875 47.265625 
Q 14.109375 46.140625 10.015625 43.890625 
L 10.015625 52.203125 
Q 14.9375 54.109375 19.578125 55.046875 
Q 24.21875 56 28.609375 56 
Q 40.484375 56 46.34375 49.84375 
Q 52.203125 43.703125 52.203125 31.203125 
z
" id="DejaVuSans-97"/>
       <path d="M 54.890625 33.015625 
L 54.890625 0 
L 45.90625 0 
L 45.90625 32.71875 
Q 45.90625 40.484375 42.875 44.328125 
Q 39.84375 48.1875 33.796875 48.1875 
Q 26.515625 48.1875 22.3125 43.546875 
Q 18.109375 38.921875 18.109375 30.90625 
L 18.109375 0 
L 9.078125 0 
L 9.078125 54.6875 
L 18.109375 54.6875 
L 18.109375 46.1875 
Q 21.34375 51.125 25.703125 53.5625 
Q 30.078125 56 35.796875 56 
Q 45.21875 56 50.046875 50.171875 
Q 54.890625 44.34375 54.890625 33.015625 
z
" id="DejaVuSans-110"/>
       <path d="M 32.171875 -5.078125 
Q 28.375 -14.84375 24.75 -17.8125 
Q 21.140625 -20.796875 15.09375 -20.796875 
L 7.90625 -20.796875 
L 7.90625 -13.28125 
L 13.1875 -13.28125 
Q 16.890625 -13.28125 18.9375 -11.515625 
Q 21 -9.765625 23.484375 -3.21875 
L 25.09375 0.875 
L 2.984375 54.6875 
L 12.5 54.6875 
L 29.59375 11.921875 
L 46.6875 54.6875 
L 56.203125 54.6875 
z
" id="DejaVuSans-121"/>
       <path d="M 31 75.875 
Q 24.46875 64.65625 21.28125 53.65625 
Q 18.109375 42.671875 18.109375 31.390625 
Q 18.109375 20.125 21.3125 9.0625 
Q 24.515625 -2 31 -13.1875 
L 23.1875 -13.1875 
Q 15.875 -1.703125 12.234375 9.375 
Q 8.59375 20.453125 8.59375 31.390625 
Q 8.59375 42.28125 12.203125 53.3125 
Q 15.828125 64.359375 23.1875 75.875 
z
" id="DejaVuSans-40"/>
       <path d="M 10.6875 12.40625 
L 21 12.40625 
L 21 0 
L 10.6875 0 
z
" id="DejaVuSans-46"/>
       <path d="M 8.015625 75.875 
L 15.828125 75.875 
Q 23.140625 64.359375 26.78125 53.3125 
Q 30.421875 42.28125 30.421875 31.390625 
Q 30.421875 20.453125 26.78125 9.375 
Q 23.140625 -1.703125 15.828125 -13.1875 
L 8.015625 -13.1875 
Q 14.5 -2 17.703125 9.0625 
Q 20.90625 20.125 20.90625 31.390625 
Q 20.90625 42.671875 17.703125 53.65625 
Q 14.5 64.65625 8.015625 75.875 
z
" id="DejaVuSans-41"/>
      </defs>
      <use xlink:href="#DejaVuSans-80"/>
      <use x="58.552734" xlink:href="#DejaVuSans-114"/>
      <use x="97.416016" xlink:href="#DejaVuSans-101"/>
      <use x="158.939453" xlink:href="#DejaVuSans-100"/>
      <use x="222.416016" xlink:href="#DejaVuSans-105"/>
      <use x="250.199219" xlink:href="#DejaVuSans-99"/>
      <use x="305.179688" xlink:href="#DejaVuSans-116"/>
      <use x="344.388672" xlink:href="#DejaVuSans-101"/>
      <use x="405.912109" xlink:href="#DejaVuSans-100"/>
      <use x="469.388672" xlink:href="#DejaVuSans-32"/>
      <use x="501.175781" xlink:href="#DejaVuSans-111"/>
      <use x="562.357422" xlink:href="#DejaVuSans-99"/>
      <use x="617.337891" xlink:href="#DejaVuSans-99"/>
      <use x="672.318359" xlink:href="#DejaVuSans-117"/>
      <use x="735.697266" xlink:href="#DejaVuSans-112"/>
      <use x="799.173828" xlink:href="#DejaVuSans-97"/>
      <use x="860.453125" xlink:href="#DejaVuSans-110"/>
      <use x="923.832031" xlink:href="#DejaVuSans-99"/>
      <use x="978.8125" xlink:href="#DejaVuSans-121"/>
      <use x="1037.992188" xlink:href="#DejaVuSans-32"/>
      <use x="1069.779297" xlink:href="#DejaVuSans-40"/>
      <use x="1108.792969" xlink:href="#DejaVuSans-97"/>
      <use x="1170.072266" xlink:href="#DejaVuSans-46"/>
      <use x="1201.859375" xlink:href="#DejaVuSans-117"/>
      <use x="1265.238281" xlink:href="#DejaVuSans-46"/>
      <use x="1297.025391" xlink:href="#DejaVuSans-41"/>
     </g>
    </g>
   </g>
   <g id="matplotlib.axis_2">
    <g id="ytick_1">
     <g id="line2d_6">
      <defs>
       <path d="M 0 0 
L -3.5 0 
" id="m234451fd6f" style="stroke:#000000;stroke-width:0.8;"/>
      </defs>
      <g>
       <use style="stroke:#000000;stroke-width:0.8;" x="36.334063" xlink:href="#m234451fd6f" y="133.077375"/>
      </g>
     </g>
     <g id="text_7">
      <!-- 0.00 -->
      <g transform="translate(15.974688 135.356906)scale(0.06 -0.06)">
       <use xlink:href="#DejaVuSans-48"/>
       <use x="63.623047" xlink:href="#DejaVuSans-46"/>
       <use x="95.410156" xlink:href="#DejaVuSans-48"/>
       <use x="159.033203" xlink:href="#DejaVuSans-48"/>
      </g>
     </g>
    </g>
    <g id="ytick_2">
     <g id="line2d_7">
      <g>
       <use style="stroke:#000000;stroke-width:0.8;" x="36.334063" xlink:href="#m234451fd6f" y="118.475065"/>
      </g>
     </g>
     <g id="text_8">
      <!-- 0.02 -->
      <g transform="translate(15.974688 120.754596)scale(0.06 -0.06)">
       <use xlink:href="#DejaVuSans-48"/>
       <use x="63.623047" xlink:href="#DejaVuSans-46"/>
       <use x="95.410156" xlink:href="#DejaVuSans-48"/>
       <use x="159.033203" xlink:href="#DejaVuSans-50"/>
      </g>
     </g>
    </g>
    <g id="ytick_3">
     <g id="line2d_8">
      <g>
       <use style="stroke:#000000;stroke-width:0.8;" x="36.334063" xlink:href="#m234451fd6f" y="103.872755"/>
      </g>
     </g>
     <g id="text_9">
      <!-- 0.04 -->
      <g transform="translate(15.974688 106.152286)scale(0.06 -0.06)">
       <defs>
        <path d="M 37.796875 64.3125 
L 12.890625 25.390625 
L 37.796875 25.390625 
z
M 35.203125 72.90625 
L 47.609375 72.90625 
L 47.609375 25.390625 
L 58.015625 25.390625 
L 58.015625 17.1875 
L 47.609375 17.1875 
L 47.609375 0 
L 37.796875 0 
L 37.796875 17.1875 
L 4.890625 17.1875 
L 4.890625 26.703125 
z
" id="DejaVuSans-52"/>
       </defs>
       <use xlink:href="#DejaVuSans-48"/>
       <use x="63.623047" xlink:href="#DejaVuSans-46"/>
       <use x="95.410156" xlink:href="#DejaVuSans-48"/>
       <use x="159.033203" xlink:href="#DejaVuSans-52"/>
      </g>
     </g>
    </g>
    <g id="ytick_4">
     <g id="line2d_9">
      <g>
       <use style="stroke:#000000;stroke-width:0.8;" x="36.334063" xlink:href="#m234451fd6f" y="89.270445"/>
      </g>
     </g>
     <g id="text_10">
      <!-- 0.06 -->
      <g transform="translate(15.974688 91.549977)scale(0.06 -0.06)">
       <defs>
        <path d="M 33.015625 40.375 
Q 26.375 40.375 22.484375 35.828125 
Q 18.609375 31.296875 18.609375 23.390625 
Q 18.609375 15.53125 22.484375 10.953125 
Q 26.375 6.390625 33.015625 6.390625 
Q 39.65625 6.390625 43.53125 10.953125 
Q 47.40625 15.53125 47.40625 23.390625 
Q 47.40625 31.296875 43.53125 35.828125 
Q 39.65625 40.375 33.015625 40.375 
z
M 52.59375 71.296875 
L 52.59375 62.3125 
Q 48.875 64.0625 45.09375 64.984375 
Q 41.3125 65.921875 37.59375 65.921875 
Q 27.828125 65.921875 22.671875 59.328125 
Q 17.53125 52.734375 16.796875 39.40625 
Q 19.671875 43.65625 24.015625 45.921875 
Q 28.375 48.1875 33.59375 48.1875 
Q 44.578125 48.1875 50.953125 41.515625 
Q 57.328125 34.859375 57.328125 23.390625 
Q 57.328125 12.15625 50.6875 5.359375 
Q 44.046875 -1.421875 33.015625 -1.421875 
Q 20.359375 -1.421875 13.671875 8.265625 
Q 6.984375 17.96875 6.984375 36.375 
Q 6.984375 53.65625 15.1875 63.9375 
Q 23.390625 74.21875 37.203125 74.21875 
Q 40.921875 74.21875 44.703125 73.484375 
Q 48.484375 72.75 52.59375 71.296875 
z
" id="DejaVuSans-54"/>
       </defs>
       <use xlink:href="#DejaVuSans-48"/>
       <use x="63.623047" xlink:href="#DejaVuSans-46"/>
       <use x="95.410156" xlink:href="#DejaVuSans-48"/>
       <use x="159.033203" xlink:href="#DejaVuSans-54"/>
      </g>
     </g>
    </g>
    <g id="ytick_5">
     <g id="line2d_10">
      <g>
       <use style="stroke:#000000;stroke-width:0.8;" x="36.334063" xlink:href="#m234451fd6f" y="74.668135"/>
      </g>
     </g>
     <g id="text_11">
      <!-- 0.08 -->
      <g transform="translate(15.974688 76.947667)scale(0.06 -0.06)">
       <defs>
        <path d="M 31.78125 34.625 
Q 24.75 34.625 20.71875 30.859375 
Q 16.703125 27.09375 16.703125 20.515625 
Q 16.703125 13.921875 20.71875 10.15625 
Q 24.75 6.390625 31.78125 6.390625 
Q 38.8125 6.390625 42.859375 10.171875 
Q 46.921875 13.96875 46.921875 20.515625 
Q 46.921875 27.09375 42.890625 30.859375 
Q 38.875 34.625 31.78125 34.625 
z
M 21.921875 38.8125 
Q 15.578125 40.375 12.03125 44.71875 
Q 8.5 49.078125 8.5 55.328125 
Q 8.5 64.0625 14.71875 69.140625 
Q 20.953125 74.21875 31.78125 74.21875 
Q 42.671875 74.21875 48.875 69.140625 
Q 55.078125 64.0625 55.078125 55.328125 
Q 55.078125 49.078125 51.53125 44.71875 
Q 48 40.375 41.703125 38.8125 
Q 48.828125 37.15625 52.796875 32.3125 
Q 56.78125 27.484375 56.78125 20.515625 
Q 56.78125 9.90625 50.3125 4.234375 
Q 43.84375 -1.421875 31.78125 -1.421875 
Q 19.734375 -1.421875 13.25 4.234375 
Q 6.78125 9.90625 6.78125 20.515625 
Q 6.78125 27.484375 10.78125 32.3125 
Q 14.796875 37.15625 21.921875 38.8125 
z
M 18.3125 54.390625 
Q 18.3125 48.734375 21.84375 45.5625 
Q 25.390625 42.390625 31.78125 42.390625 
Q 38.140625 42.390625 41.71875 45.5625 
Q 45.3125 48.734375 45.3125 54.390625 
Q 45.3125 60.0625 41.71875 63.234375 
Q 38.140625 66.40625 31.78125 66.40625 
Q 25.390625 66.40625 21.84375 63.234375 
Q 18.3125 60.0625 18.3125 54.390625 
z
" id="DejaVuSans-56"/>
       </defs>
       <use xlink:href="#DejaVuSans-48"/>
       <use x="63.623047" xlink:href="#DejaVuSans-46"/>
       <use x="95.410156" xlink:href="#DejaVuSans-48"/>
       <use x="159.033203" xlink:href="#DejaVuSans-56"/>
      </g>
     </g>
    </g>
    <g id="ytick_6">
     <g id="line2d_11">
      <g>
       <use style="stroke:#000000;stroke-width:0.8;" x="36.334063" xlink:href="#m234451fd6f" y="60.065826"/>
      </g>
     </g>
     <g id="text_12">
      <!-- 0.10 -->
      <g transform="translate(15.974688 62.345357)scale(0.06 -0.06)">
       <use xlink:href="#DejaVuSans-48"/>
       <use x="63.623047" xlink:href="#DejaVuSans-46"/>
       <use x="95.410156" xlink:href="#DejaVuSans-49"/>
       <use x="159.033203" xlink:href="#DejaVuSans-48"/>
      </g>
     </g>
    </g>
    <g id="ytick_7">
     <g id="line2d_12">
      <g>
       <use style="stroke:#000000;stroke-width:0.8;" x="36.334063" xlink:href="#m234451fd6f" y="45.463516"/>
      </g>
     </g>
     <g id="text_13">
      <!-- 0.12 -->
      <g transform="translate(15.974688 47.743047)scale(0.06 -0.06)">
       <use xlink:href="#DejaVuSans-48"/>
       <use x="63.623047" xlink:href="#DejaVuSans-46"/>
       <use x="95.410156" xlink:href="#DejaVuSans-49"/>
       <use x="159.033203" xlink:href="#DejaVuSans-50"/>
      </g>
     </g>
    </g>
    <g id="ytick_8">
     <g id="line2d_13">
      <g>
       <use style="stroke:#000000;stroke-width:0.8;" x="36.334063" xlink:href="#m234451fd6f" y="30.861206"/>
      </g>
     </g>
     <g id="text_14">
      <!-- 0.14 -->
      <g transform="translate(15.974688 33.140737)scale(0.06 -0.06)">
       <use xlink:href="#DejaVuSans-48"/>
       <use x="63.623047" xlink:href="#DejaVuSans-46"/>
       <use x="95.410156" xlink:href="#DejaVuSans-49"/>
       <use x="159.033203" xlink:href="#DejaVuSans-52"/>
      </g>
     </g>
    </g>
    <g id="text_15">
     <!-- Density -->
     <g transform="translate(12.518906 92.023391)rotate(-90)scale(0.07 -0.07)">
      <defs>
       <path d="M 19.671875 64.796875 
L 19.671875 8.109375 
L 31.59375 8.109375 
Q 46.6875 8.109375 53.6875 14.9375 
Q 60.6875 21.78125 60.6875 36.53125 
Q 60.6875 51.171875 53.6875 57.984375 
Q 46.6875 64.796875 31.59375 64.796875 
z
M 9.8125 72.90625 
L 30.078125 72.90625 
Q 51.265625 72.90625 61.171875 64.09375 
Q 71.09375 55.28125 71.09375 36.53125 
Q 71.09375 17.671875 61.125 8.828125 
Q 51.171875 0 30.078125 0 
L 9.8125 0 
z
" id="DejaVuSans-68"/>
       <path d="M 44.28125 53.078125 
L 44.28125 44.578125 
Q 40.484375 46.53125 36.375 47.5 
Q 32.28125 48.484375 27.875 48.484375 
Q 21.1875 48.484375 17.84375 46.4375 
Q 14.5 44.390625 14.5 40.28125 
Q 14.5 37.15625 16.890625 35.375 
Q 19.28125 33.59375 26.515625 31.984375 
L 29.59375 31.296875 
Q 39.15625 29.25 43.1875 25.515625 
Q 47.21875 21.78125 47.21875 15.09375 
Q 47.21875 7.46875 41.1875 3.015625 
Q 35.15625 -1.421875 24.609375 -1.421875 
Q 20.21875 -1.421875 15.453125 -0.5625 
Q 10.6875 0.296875 5.421875 2 
L 5.421875 11.28125 
Q 10.40625 8.6875 15.234375 7.390625 
Q 20.0625 6.109375 24.8125 6.109375 
Q 31.15625 6.109375 34.5625 8.28125 
Q 37.984375 10.453125 37.984375 14.40625 
Q 37.984375 18.0625 35.515625 20.015625 
Q 33.0625 21.96875 24.703125 23.78125 
L 21.578125 24.515625 
Q 13.234375 26.265625 9.515625 29.90625 
Q 5.8125 33.546875 5.8125 39.890625 
Q 5.8125 47.609375 11.28125 51.796875 
Q 16.75 56 26.8125 56 
Q 31.78125 56 36.171875 55.265625 
Q 40.578125 54.546875 44.28125 53.078125 
z
" id="DejaVuSans-115"/>
      </defs>
      <use xlink:href="#DejaVuSans-68"/>
      <use x="77.001953" xlink:href="#DejaVuSans-101"/>
      <use x="138.525391" xlink:href="#DejaVuSans-110"/>
      <use x="201.904297" xlink:href="#DejaVuSans-115"/>
      <use x="254.003906" xlink:href="#DejaVuSans-105"/>
      <use x="281.787109" xlink:href="#DejaVuSans-116"/>
      <use x="320.996094" xlink:href="#DejaVuSans-121"/>
     </g>
    </g>
   </g>
   <g id="patch_3">
    <path d="M 36.334063 133.077375 
L 36.334063 24.357375 
" style="fill:none;stroke:#000000;stroke-linecap:square;stroke-linejoin:miter;stroke-width:0.8;"/>
   </g>
   <g id="patch_4">
    <path d="M 147.934062 133.077375 
L 147.934062 24.357375 
" style="fill:none;stroke:#000000;stroke-linecap:square;stroke-linejoin:miter;stroke-width:0.8;"/>
   </g>
   <g id="patch_5">
    <path d="M 36.334062 133.077375 
L 147.934062 133.077375 
" style="fill:none;stroke:#000000;stroke-linecap:square;stroke-linejoin:miter;stroke-width:0.8;"/>
   </g>
   <g id="patch_6">
    <path d="M 36.334062 24.357375 
L 147.934062 24.357375 
" style="fill:none;stroke:#000000;stroke-linecap:square;stroke-linejoin:miter;stroke-width:0.8;"/>
   </g>
   <g id="text_16">
    <!-- Predicted Occupancy -->
    <g transform="translate(55.189375 12.518906)scale(0.07 -0.07)">
     <defs>
      <path d="M 39.40625 66.21875 
Q 28.65625 66.21875 22.328125 58.203125 
Q 16.015625 50.203125 16.015625 36.375 
Q 16.015625 22.609375 22.328125 14.59375 
Q 28.65625 6.59375 39.40625 6.59375 
Q 50.140625 6.59375 56.421875 14.59375 
Q 62.703125 22.609375 62.703125 36.375 
Q 62.703125 50.203125 56.421875 58.203125 
Q 50.140625 66.21875 39.40625 66.21875 
z
M 39.40625 74.21875 
Q 54.734375 74.21875 63.90625 63.9375 
Q 73.09375 53.65625 73.09375 36.375 
Q 73.09375 19.140625 63.90625 8.859375 
Q 54.734375 -1.421875 39.40625 -1.421875 
Q 24.03125 -1.421875 14.8125 8.828125 
Q 5.609375 19.09375 5.609375 36.375 
Q 5.609375 53.65625 14.8125 63.9375 
Q 24.03125 74.21875 39.40625 74.21875 
z
" id="DejaVuSans-79"/>
     </defs>
     <use xlink:href="#DejaVuSans-80"/>
     <use x="58.552734" xlink:href="#DejaVuSans-114"/>
     <use x="97.416016" xlink:href="#DejaVuSans-101"/>
     <use x="158.939453" xlink:href="#DejaVuSans-100"/>
     <use x="222.416016" xlink:href="#DejaVuSans-105"/>
     <use x="250.199219" xlink:href="#DejaVuSans-99"/>
     <use x="305.179688" xlink:href="#DejaVuSans-116"/>
     <use x="344.388672" xlink:href="#DejaVuSans-101"/>
     <use x="405.912109" xlink:href="#DejaVuSans-100"/>
     <use x="469.388672" xlink:href="#DejaVuSans-32"/>
     <use x="501.175781" xlink:href="#DejaVuSans-79"/>
     <use x="579.886719" xlink:href="#DejaVuSans-99"/>
     <use x="634.867188" xlink:href="#DejaVuSans-99"/>
     <use x="689.847656" xlink:href="#DejaVuSans-117"/>
     <use x="753.226562" xlink:href="#DejaVuSans-112"/>
     <use x="816.703125" xlink:href="#DejaVuSans-97"/>
     <use x="877.982422" xlink:href="#DejaVuSans-110"/>
     <use x="941.361328" xlink:href="#DejaVuSans-99"/>
     <use x="996.341797" xlink:href="#DejaVuSans-121"/>
    </g>
    <!-- for WT CRX HD Motifs μ=9 -->
    <g transform="translate(45.613047 20.357375)scale(0.07 -0.07)">
     <defs>
      <path d="M 37.109375 75.984375 
L 37.109375 68.5 
L 28.515625 68.5 
Q 23.6875 68.5 21.796875 66.546875 
Q 19.921875 64.59375 19.921875 59.515625 
L 19.921875 54.6875 
L 34.71875 54.6875 
L 34.71875 47.703125 
L 19.921875 47.703125 
L 19.921875 0 
L 10.890625 0 
L 10.890625 47.703125 
L 2.296875 47.703125 
L 2.296875 54.6875 
L 10.890625 54.6875 
L 10.890625 58.5 
Q 10.890625 67.625 15.140625 71.796875 
Q 19.390625 75.984375 28.609375 75.984375 
z
" id="DejaVuSans-102"/>
      <path d="M 3.328125 72.90625 
L 13.28125 72.90625 
L 28.609375 11.28125 
L 43.890625 72.90625 
L 54.984375 72.90625 
L 70.3125 11.28125 
L 85.59375 72.90625 
L 95.609375 72.90625 
L 77.296875 0 
L 64.890625 0 
L 49.515625 63.28125 
L 33.984375 0 
L 21.578125 0 
z
" id="DejaVuSans-87"/>
      <path d="M -0.296875 72.90625 
L 61.375 72.90625 
L 61.375 64.59375 
L 35.5 64.59375 
L 35.5 0 
L 25.59375 0 
L 25.59375 64.59375 
L -0.296875 64.59375 
z
" id="DejaVuSans-84"/>
      <path d="M 64.40625 67.28125 
L 64.40625 56.890625 
Q 59.421875 61.53125 53.78125 63.8125 
Q 48.140625 66.109375 41.796875 66.109375 
Q 29.296875 66.109375 22.65625 58.46875 
Q 16.015625 50.828125 16.015625 36.375 
Q 16.015625 21.96875 22.65625 14.328125 
Q 29.296875 6.6875 41.796875 6.6875 
Q 48.140625 6.6875 53.78125 8.984375 
Q 59.421875 11.28125 64.40625 15.921875 
L 64.40625 5.609375 
Q 59.234375 2.09375 53.4375 0.328125 
Q 47.65625 -1.421875 41.21875 -1.421875 
Q 24.65625 -1.421875 15.125 8.703125 
Q 5.609375 18.84375 5.609375 36.375 
Q 5.609375 53.953125 15.125 64.078125 
Q 24.65625 74.21875 41.21875 74.21875 
Q 47.75 74.21875 53.53125 72.484375 
Q 59.328125 70.75 64.40625 67.28125 
z
" id="DejaVuSans-67"/>
      <path d="M 44.390625 34.1875 
Q 47.5625 33.109375 50.5625 29.59375 
Q 53.5625 26.078125 56.59375 19.921875 
L 66.609375 0 
L 56 0 
L 46.6875 18.703125 
Q 43.0625 26.03125 39.671875 28.421875 
Q 36.28125 30.8125 30.421875 30.8125 
L 19.671875 30.8125 
L 19.671875 0 
L 9.8125 0 
L 9.8125 72.90625 
L 32.078125 72.90625 
Q 44.578125 72.90625 50.734375 67.671875 
Q 56.890625 62.453125 56.890625 51.90625 
Q 56.890625 45.015625 53.6875 40.46875 
Q 50.484375 35.9375 44.390625 34.1875 
z
M 19.671875 64.796875 
L 19.671875 38.921875 
L 32.078125 38.921875 
Q 39.203125 38.921875 42.84375 42.21875 
Q 46.484375 45.515625 46.484375 51.90625 
Q 46.484375 58.296875 42.84375 61.546875 
Q 39.203125 64.796875 32.078125 64.796875 
z
" id="DejaVuSans-82"/>
      <path d="M 6.296875 72.90625 
L 16.890625 72.90625 
L 35.015625 45.796875 
L 53.21875 72.90625 
L 63.8125 72.90625 
L 40.375 37.890625 
L 65.375 0 
L 54.78125 0 
L 34.28125 31 
L 13.625 0 
L 2.984375 0 
L 29 38.921875 
z
" id="DejaVuSans-88"/>
      <path d="M 9.8125 72.90625 
L 19.671875 72.90625 
L 19.671875 43.015625 
L 55.515625 43.015625 
L 55.515625 72.90625 
L 65.375 72.90625 
L 65.375 0 
L 55.515625 0 
L 55.515625 34.71875 
L 19.671875 34.71875 
L 19.671875 0 
L 9.8125 0 
z
" id="DejaVuSans-72"/>
      <path d="M 9.8125 72.90625 
L 24.515625 72.90625 
L 43.109375 23.296875 
L 61.8125 72.90625 
L 76.515625 72.90625 
L 76.515625 0 
L 66.890625 0 
L 66.890625 64.015625 
L 48.09375 14.015625 
L 38.1875 14.015625 
L 19.390625 64.015625 
L 19.390625 0 
L 9.8125 0 
z
" id="DejaVuSans-77"/>
      <path d="M 8.5 -20.796875 
L 8.5 54.6875 
L 17.484375 54.6875 
L 17.484375 20.703125 
Q 17.484375 13.625 20.84375 10 
Q 24.21875 6.390625 30.8125 6.390625 
Q 38.03125 6.390625 41.671875 10.484375 
Q 45.3125 14.59375 45.3125 22.796875 
L 45.3125 54.6875 
L 54.296875 54.6875 
L 54.296875 12.59375 
Q 54.296875 9.671875 55.140625 8.28125 
Q 56 6.890625 57.8125 6.890625 
Q 58.25 6.890625 59.03125 7.15625 
Q 59.8125 7.421875 61.1875 8.015625 
L 61.1875 0.78125 
Q 59.1875 -0.34375 57.390625 -0.875 
Q 55.609375 -1.421875 53.90625 -1.421875 
Q 50.53125 -1.421875 48.53125 0.484375 
Q 46.53125 2.390625 45.796875 6.296875 
Q 43.359375 2.4375 39.8125 0.5 
Q 36.28125 -1.421875 31.5 -1.421875 
Q 26.515625 -1.421875 23.015625 0.484375 
Q 19.53125 2.390625 17.484375 6.203125 
L 17.484375 -20.796875 
z
" id="DejaVuSans-956"/>
      <path d="M 10.59375 45.40625 
L 73.1875 45.40625 
L 73.1875 37.203125 
L 10.59375 37.203125 
z
M 10.59375 25.484375 
L 73.1875 25.484375 
L 73.1875 17.1875 
L 10.59375 17.1875 
z
" id="DejaVuSans-61"/>
      <path d="M 10.984375 1.515625 
L 10.984375 10.5 
Q 14.703125 8.734375 18.5 7.8125 
Q 22.3125 6.890625 25.984375 6.890625 
Q 35.75 6.890625 40.890625 13.453125 
Q 46.046875 20.015625 46.78125 33.40625 
Q 43.953125 29.203125 39.59375 26.953125 
Q 35.25 24.703125 29.984375 24.703125 
Q 19.046875 24.703125 12.671875 31.3125 
Q 6.296875 37.9375 6.296875 49.421875 
Q 6.296875 60.640625 12.9375 67.421875 
Q 19.578125 74.21875 30.609375 74.21875 
Q 43.265625 74.21875 49.921875 64.515625 
Q 56.59375 54.828125 56.59375 36.375 
Q 56.59375 19.140625 48.40625 8.859375 
Q 40.234375 -1.421875 26.421875 -1.421875 
Q 22.703125 -1.421875 18.890625 -0.6875 
Q 15.09375 0.046875 10.984375 1.515625 
z
M 30.609375 32.421875 
Q 37.25 32.421875 41.125 36.953125 
Q 45.015625 41.5 45.015625 49.421875 
Q 45.015625 57.28125 41.125 61.84375 
Q 37.25 66.40625 30.609375 66.40625 
Q 23.96875 66.40625 20.09375 61.84375 
Q 16.21875 57.28125 16.21875 49.421875 
Q 16.21875 41.5 20.09375 36.953125 
Q 23.96875 32.421875 30.609375 32.421875 
z
" id="DejaVuSans-57"/>
     </defs>
     <use xlink:href="#DejaVuSans-102"/>
     <use x="35.205078" xlink:href="#DejaVuSans-111"/>
     <use x="96.386719" xlink:href="#DejaVuSans-114"/>
     <use x="137.5" xlink:href="#DejaVuSans-32"/>
     <use x="169.287109" xlink:href="#DejaVuSans-87"/>
     <use x="268.164062" xlink:href="#DejaVuSans-84"/>
     <use x="329.248047" xlink:href="#DejaVuSans-32"/>
     <use x="361.035156" xlink:href="#DejaVuSans-67"/>
     <use x="430.859375" xlink:href="#DejaVuSans-82"/>
     <use x="500.341797" xlink:href="#DejaVuSans-88"/>
     <use x="568.847656" xlink:href="#DejaVuSans-32"/>
     <use x="600.634766" xlink:href="#DejaVuSans-72"/>
     <use x="675.830078" xlink:href="#DejaVuSans-68"/>
     <use x="752.832031" xlink:href="#DejaVuSans-32"/>
     <use x="784.619141" xlink:href="#DejaVuSans-77"/>
     <use x="870.898438" xlink:href="#DejaVuSans-111"/>
     <use x="932.080078" xlink:href="#DejaVuSans-116"/>
     <use x="971.289062" xlink:href="#DejaVuSans-105"/>
     <use x="999.072266" xlink:href="#DejaVuSans-102"/>
     <use x="1034.277344" xlink:href="#DejaVuSans-115"/>
     <use x="1086.376953" xlink:href="#DejaVuSans-32"/>
     <use x="1118.164062" xlink:href="#DejaVuSans-956"/>
     <use x="1181.787109" xlink:href="#DejaVuSans-61"/>
     <use x="1265.576172" xlink:href="#DejaVuSans-57"/>
    </g>
   </g>
   <g id="legend_1">
    <g id="patch_7">
     <path d="M 89.04875 46.771125 
L 143.734062 46.771125 
Q 144.934062 46.771125 144.934062 45.571125 
L 144.934062 28.557375 
Q 144.934062 27.357375 143.734062 27.357375 
L 89.04875 27.357375 
Q 87.84875 27.357375 87.84875 28.557375 
L 87.84875 45.571125 
Q 87.84875 46.771125 89.04875 46.771125 
z
" style="fill:#ffffff;opacity:0.8;stroke:#cccccc;stroke-linejoin:miter;"/>
    </g>
    <g id="patch_8">
     <path d="M 90.24875 34.316437 
L 102.24875 34.316437 
L 102.24875 30.116437 
L 90.24875 30.116437 
z
" style="fill:#808080;fill-opacity:0.25;stroke:#808080;stroke-linejoin:miter;"/>
    </g>
    <g id="text_17">
     <!-- background -->
     <g transform="translate(107.04875 34.316437)scale(0.06 -0.06)">
      <defs>
       <path d="M 48.6875 27.296875 
Q 48.6875 37.203125 44.609375 42.84375 
Q 40.53125 48.484375 33.40625 48.484375 
Q 26.265625 48.484375 22.1875 42.84375 
Q 18.109375 37.203125 18.109375 27.296875 
Q 18.109375 17.390625 22.1875 11.75 
Q 26.265625 6.109375 33.40625 6.109375 
Q 40.53125 6.109375 44.609375 11.75 
Q 48.6875 17.390625 48.6875 27.296875 
z
M 18.109375 46.390625 
Q 20.953125 51.265625 25.265625 53.625 
Q 29.59375 56 35.59375 56 
Q 45.5625 56 51.78125 48.09375 
Q 58.015625 40.1875 58.015625 27.296875 
Q 58.015625 14.40625 51.78125 6.484375 
Q 45.5625 -1.421875 35.59375 -1.421875 
Q 29.59375 -1.421875 25.265625 0.953125 
Q 20.953125 3.328125 18.109375 8.203125 
L 18.109375 0 
L 9.078125 0 
L 9.078125 75.984375 
L 18.109375 75.984375 
z
" id="DejaVuSans-98"/>
       <path d="M 9.078125 75.984375 
L 18.109375 75.984375 
L 18.109375 31.109375 
L 44.921875 54.6875 
L 56.390625 54.6875 
L 27.390625 29.109375 
L 57.625 0 
L 45.90625 0 
L 18.109375 26.703125 
L 18.109375 0 
L 9.078125 0 
z
" id="DejaVuSans-107"/>
       <path d="M 45.40625 27.984375 
Q 45.40625 37.75 41.375 43.109375 
Q 37.359375 48.484375 30.078125 48.484375 
Q 22.859375 48.484375 18.828125 43.109375 
Q 14.796875 37.75 14.796875 27.984375 
Q 14.796875 18.265625 18.828125 12.890625 
Q 22.859375 7.515625 30.078125 7.515625 
Q 37.359375 7.515625 41.375 12.890625 
Q 45.40625 18.265625 45.40625 27.984375 
z
M 54.390625 6.78125 
Q 54.390625 -7.171875 48.1875 -13.984375 
Q 42 -20.796875 29.203125 -20.796875 
Q 24.46875 -20.796875 20.265625 -20.09375 
Q 16.0625 -19.390625 12.109375 -17.921875 
L 12.109375 -9.1875 
Q 16.0625 -11.328125 19.921875 -12.34375 
Q 23.78125 -13.375 27.78125 -13.375 
Q 36.625 -13.375 41.015625 -8.765625 
Q 45.40625 -4.15625 45.40625 5.171875 
L 45.40625 9.625 
Q 42.625 4.78125 38.28125 2.390625 
Q 33.9375 0 27.875 0 
Q 17.828125 0 11.671875 7.65625 
Q 5.515625 15.328125 5.515625 27.984375 
Q 5.515625 40.671875 11.671875 48.328125 
Q 17.828125 56 27.875 56 
Q 33.9375 56 38.28125 53.609375 
Q 42.625 51.21875 45.40625 46.390625 
L 45.40625 54.6875 
L 54.390625 54.6875 
z
" id="DejaVuSans-103"/>
      </defs>
      <use xlink:href="#DejaVuSans-98"/>
      <use x="63.476562" xlink:href="#DejaVuSans-97"/>
      <use x="124.755859" xlink:href="#DejaVuSans-99"/>
      <use x="179.736328" xlink:href="#DejaVuSans-107"/>
      <use x="237.646484" xlink:href="#DejaVuSans-103"/>
      <use x="301.123047" xlink:href="#DejaVuSans-114"/>
      <use x="339.986328" xlink:href="#DejaVuSans-111"/>
      <use x="401.167969" xlink:href="#DejaVuSans-117"/>
      <use x="464.546875" xlink:href="#DejaVuSans-110"/>
      <use x="527.925781" xlink:href="#DejaVuSans-100"/>
     </g>
    </g>
    <g id="patch_9">
     <path d="M 90.24875 43.123312 
L 102.24875 43.123312 
L 102.24875 38.923312 
L 90.24875 38.923312 
z
" style="fill:#dc9514;fill-opacity:0.25;stroke:#dc9514;stroke-linejoin:miter;"/>
    </g>
    <g id="text_18">
     <!-- selected -->
     <g transform="translate(107.04875 43.123312)scale(0.06 -0.06)">
      <defs>
       <path d="M 9.421875 75.984375 
L 18.40625 75.984375 
L 18.40625 0 
L 9.421875 0 
z
" id="DejaVuSans-108"/>
      </defs>
      <use xlink:href="#DejaVuSans-115"/>
      <use x="52.099609" xlink:href="#DejaVuSans-101"/>
      <use x="113.623047" xlink:href="#DejaVuSans-108"/>
      <use x="141.40625" xlink:href="#DejaVuSans-101"/>
      <use x="202.929688" xlink:href="#DejaVuSans-99"/>
      <use x="257.910156" xlink:href="#DejaVuSans-116"/>
      <use x="297.119141" xlink:href="#DejaVuSans-101"/>
      <use x="358.642578" xlink:href="#DejaVuSans-100"/>
     </g>
    </g>
   </g>
  </g>
 </g>
 <defs>
  <clipPath id="p2ebce11274">
   <rect height="108.72" width="111.6" x="36.334063" y="24.357375"/>
  </clipPath>
 </defs>
</svg>
