<?xml version="1.0" encoding="utf-8" standalone="no"?>
<!DOCTYPE svg PUBLIC "-//W3C//DTD SVG 1.1//EN"
  "http://www.w3.org/Graphics/SVG/1.1/DTD/svg11.dtd">
<!-- Created with matplotlib (https://matplotlib.org/) -->
<svg height="161.858937pt" version="1.1" viewBox="0 0 145.592187 161.858937" width="145.592187pt" xmlns="http://www.w3.org/2000/svg" xmlns:xlink="http://www.w3.org/1999/xlink">
 <metadata>
  <rdf:RDF xmlns:cc="http://creativecommons.org/ns#" xmlns:dc="http://purl.org/dc/elements/1.1/" xmlns:rdf="http://www.w3.org/1999/02/22-rdf-syntax-ns#">
   <cc:Work>
    <dc:type rdf:resource="http://purl.org/dc/dcmitype/StillImage"/>
    <dc:date>2022-06-26T15:42:33.736645</dc:date>
    <dc:format>image/svg+xml</dc:format>
    <dc:creator>
     <cc:Agent>
      <dc:title>Matplotlib v3.3.2, https://matplotlib.org/</dc:title>
     </cc:Agent>
    </dc:creator>
   </cc:Work>
  </rdf:RDF>
 </metadata>
 <defs>
  <style type="text/css">*{stroke-linecap:butt;stroke-linejoin:round;}</style>
 </defs>
 <g id="figure_1">
  <g id="patch_1">
   <path d="M 0 161.858937 
L 145.592187 161.858937 
L 145.592187 0 
L 0 0 
z
" style="fill:none;"/>
  </g>
  <g id="axes_1">
   <g id="patch_2">
    <path d="M 26.792188 133.077375 
L 138.392188 133.077375 
L 138.392188 24.357375 
L 26.792188 24.357375 
z
" style="fill:#ffffff;"/>
   </g>
   <g id="PolyCollection_1">
    <defs>
     <path d="M 36.03227 -29.90257 
L 36.03227 -28.781562 
L 36.500209 -28.781562 
L 36.968148 -28.781562 
L 37.436087 -28.781562 
L 37.904026 -28.781562 
L 38.371965 -28.781562 
L 38.839904 -28.781562 
L 39.307842 -28.781562 
L 39.775781 -28.781562 
L 40.24372 -28.781562 
L 40.711659 -28.781562 
L 41.179598 -28.781562 
L 41.647537 -28.781562 
L 42.115476 -28.781562 
L 42.583414 -28.781562 
L 43.051353 -28.781562 
L 43.519292 -28.781562 
L 43.987231 -28.781562 
L 44.45517 -28.781562 
L 44.923109 -28.781562 
L 45.391048 -28.781562 
L 45.858987 -28.781562 
L 46.326925 -28.781562 
L 46.794864 -28.781562 
L 47.262803 -28.781562 
L 47.730742 -28.781562 
L 48.198681 -28.781562 
L 48.66662 -28.781562 
L 49.134559 -28.781562 
L 49.602497 -28.781562 
L 50.070436 -28.781562 
L 50.538375 -28.781562 
L 51.006314 -28.781562 
L 51.474253 -28.781562 
L 51.942192 -28.781562 
L 52.410131 -28.781562 
L 52.87807 -28.781562 
L 53.346008 -28.781562 
L 53.813947 -28.781562 
L 54.281886 -28.781562 
L 54.749825 -28.781562 
L 55.217764 -28.781562 
L 55.685703 -28.781562 
L 56.153642 -28.781562 
L 56.62158 -28.781562 
L 57.089519 -28.781562 
L 57.557458 -28.781562 
L 58.025397 -28.781562 
L 58.493336 -28.781562 
L 58.961275 -28.781562 
L 59.429214 -28.781562 
L 59.897153 -28.781562 
L 60.365091 -28.781562 
L 60.83303 -28.781562 
L 61.300969 -28.781562 
L 61.768908 -28.781562 
L 62.236847 -28.781562 
L 62.704786 -28.781562 
L 63.172725 -28.781562 
L 63.640663 -28.781562 
L 64.108602 -28.781562 
L 64.576541 -28.781562 
L 65.04448 -28.781562 
L 65.512419 -28.781562 
L 65.980358 -28.781562 
L 66.448297 -28.781562 
L 66.916235 -28.781562 
L 67.384174 -28.781562 
L 67.852113 -28.781562 
L 68.320052 -28.781562 
L 68.787991 -28.781562 
L 69.25593 -28.781562 
L 69.723869 -28.781562 
L 70.191808 -28.781562 
L 70.659746 -28.781562 
L 71.127685 -28.781562 
L 71.595624 -28.781562 
L 72.063563 -28.781562 
L 72.531502 -28.781562 
L 72.999441 -28.781562 
L 73.46738 -28.781562 
L 73.935318 -28.781562 
L 74.403257 -28.781562 
L 74.871196 -28.781562 
L 75.339135 -28.781562 
L 75.807074 -28.781562 
L 76.275013 -28.781562 
L 76.742952 -28.781562 
L 77.210891 -28.781562 
L 77.678829 -28.781562 
L 78.146768 -28.781562 
L 78.614707 -28.781562 
L 79.082646 -28.781562 
L 79.550585 -28.781562 
L 80.018524 -28.781562 
L 80.486463 -28.781562 
L 80.954401 -28.781562 
L 81.42234 -28.781562 
L 81.890279 -28.781562 
L 82.358218 -28.781562 
L 82.826157 -28.781562 
L 83.294096 -28.781562 
L 83.762035 -28.781562 
L 84.229974 -28.781562 
L 84.697912 -28.781562 
L 85.165851 -28.781562 
L 85.63379 -28.781562 
L 86.101729 -28.781562 
L 86.569668 -28.781562 
L 87.037607 -28.781562 
L 87.505546 -28.781562 
L 87.973484 -28.781562 
L 88.441423 -28.781562 
L 88.909362 -28.781562 
L 89.377301 -28.781562 
L 89.84524 -28.781562 
L 90.313179 -28.781562 
L 90.781118 -28.781562 
L 91.249057 -28.781562 
L 91.716995 -28.781562 
L 92.184934 -28.781562 
L 92.652873 -28.781562 
L 93.120812 -28.781562 
L 93.588751 -28.781562 
L 94.05669 -28.781562 
L 94.524629 -28.781562 
L 94.992567 -28.781562 
L 95.460506 -28.781562 
L 95.928445 -28.781562 
L 96.396384 -28.781562 
L 96.864323 -28.781562 
L 97.332262 -28.781562 
L 97.800201 -28.781562 
L 98.26814 -28.781562 
L 98.736078 -28.781562 
L 99.204017 -28.781562 
L 99.671956 -28.781562 
L 100.139895 -28.781562 
L 100.607834 -28.781562 
L 101.075773 -28.781562 
L 101.543712 -28.781562 
L 102.01165 -28.781562 
L 102.479589 -28.781562 
L 102.947528 -28.781562 
L 103.415467 -28.781562 
L 103.883406 -28.781562 
L 104.351345 -28.781562 
L 104.819284 -28.781562 
L 105.287222 -28.781562 
L 105.755161 -28.781562 
L 106.2231 -28.781562 
L 106.691039 -28.781562 
L 107.158978 -28.781562 
L 107.626917 -28.781562 
L 108.094856 -28.781562 
L 108.562795 -28.781562 
L 109.030733 -28.781562 
L 109.498672 -28.781562 
L 109.966611 -28.781562 
L 110.43455 -28.781562 
L 110.902489 -28.781562 
L 111.370428 -28.781562 
L 111.838367 -28.781562 
L 112.306305 -28.781562 
L 112.774244 -28.781562 
L 113.242183 -28.781562 
L 113.710122 -28.781562 
L 114.178061 -28.781562 
L 114.646 -28.781562 
L 115.113939 -28.781562 
L 115.581878 -28.781562 
L 116.049816 -28.781562 
L 116.517755 -28.781562 
L 116.985694 -28.781562 
L 117.453633 -28.781562 
L 117.921572 -28.781562 
L 118.389511 -28.781562 
L 118.85745 -28.781562 
L 119.325388 -28.781562 
L 119.793327 -28.781562 
L 120.261266 -28.781562 
L 120.729205 -28.781562 
L 121.197144 -28.781562 
L 121.665083 -28.781562 
L 122.133022 -28.781562 
L 122.600961 -28.781562 
L 123.068899 -28.781562 
L 123.536838 -28.781562 
L 124.004777 -28.781562 
L 124.472716 -28.781562 
L 124.940655 -28.781562 
L 125.408594 -28.781562 
L 125.876533 -28.781562 
L 126.344471 -28.781562 
L 126.81241 -28.781562 
L 127.280349 -28.781562 
L 127.748288 -28.781562 
L 128.216227 -28.781562 
L 128.684166 -28.781562 
L 129.152105 -28.781562 
L 129.152105 -28.78169 
L 129.152105 -28.78169 
L 128.684166 -28.782068 
L 128.216227 -28.783121 
L 127.748288 -28.785301 
L 127.280349 -28.788545 
L 126.81241 -28.791712 
L 126.344471 -28.793043 
L 125.876533 -28.79167 
L 125.408594 -28.788488 
L 124.940655 -28.785255 
L 124.472716 -28.783095 
L 124.004777 -28.782057 
L 123.536838 -28.781687 
L 123.068899 -28.781587 
L 122.600961 -28.781566 
L 122.133022 -28.781563 
L 121.665083 -28.781563 
L 121.197144 -28.781563 
L 120.729205 -28.781563 
L 120.261266 -28.781563 
L 119.793327 -28.781563 
L 119.325388 -28.781563 
L 118.85745 -28.781562 
L 118.389511 -28.781562 
L 117.921572 -28.781562 
L 117.453633 -28.781562 
L 116.985694 -28.781562 
L 116.517755 -28.781562 
L 116.049816 -28.781563 
L 115.581878 -28.781563 
L 115.113939 -28.781563 
L 114.646 -28.781563 
L 114.178061 -28.781563 
L 113.710122 -28.781563 
L 113.242183 -28.781563 
L 112.774244 -28.781565 
L 112.306305 -28.781577 
L 111.838367 -28.781642 
L 111.370428 -28.781904 
L 110.902489 -28.7827 
L 110.43455 -28.784507 
L 109.966611 -28.787495 
L 109.498672 -28.790867 
L 109.030733 -28.792919 
L 108.562795 -28.79235 
L 108.094856 -28.789538 
L 107.626917 -28.786155 
L 107.158978 -28.783645 
L 106.691039 -28.782424 
L 106.2231 -28.782355 
L 105.755161 -28.78355 
L 105.287222 -28.786598 
L 104.819284 -28.791968 
L 104.351345 -28.798999 
L 103.883406 -28.805589 
L 103.415467 -28.809281 
L 102.947528 -28.808796 
L 102.479589 -28.804563 
L 102.01165 -28.798197 
L 101.543712 -28.791706 
L 101.075773 -28.786686 
L 100.607834 -28.783742 
L 100.139895 -28.782644 
L 99.671956 -28.783035 
L 99.204017 -28.784855 
L 98.736078 -28.787935 
L 98.26814 -28.791272 
L 97.800201 -28.793195 
L 97.332262 -28.792819 
L 96.864323 -28.791231 
L 96.396384 -28.790695 
L 95.928445 -28.792574 
L 95.460506 -28.796327 
L 94.992567 -28.800571 
L 94.524629 -28.804824 
L 94.05669 -28.809929 
L 93.588751 -28.816665 
L 93.120812 -28.823843 
L 92.652873 -28.827939 
L 92.184934 -28.825523 
L 91.716995 -28.816669 
L 91.249057 -28.805689 
L 90.781118 -28.798133 
L 90.313179 -28.79696 
L 89.84524 -28.800913 
L 89.377301 -28.805959 
L 88.909362 -28.808812 
L 88.441423 -28.809419 
L 87.973484 -28.809439 
L 87.505546 -28.808845 
L 87.037607 -28.805839 
L 86.569668 -28.800113 
L 86.101729 -28.794308 
L 85.63379 -28.791799 
L 85.165851 -28.794089 
L 84.697912 -28.80046 
L 84.229974 -28.809389 
L 83.762035 -28.820153 
L 83.294096 -28.833249 
L 82.826157 -28.848887 
L 82.358218 -28.864644 
L 81.890279 -28.875309 
L 81.42234 -28.876356 
L 80.954401 -28.867956 
L 80.486463 -28.855888 
L 80.018524 -28.84938 
L 79.550585 -28.856763 
L 79.082646 -28.879105 
L 78.614707 -28.906318 
L 78.146768 -28.922877 
L 77.678829 -28.920242 
L 77.210891 -28.902725 
L 76.742952 -28.881987 
L 76.275013 -28.870169 
L 75.807074 -28.878449 
L 75.339135 -28.914955 
L 74.871196 -28.97564 
L 74.403257 -29.036034 
L 73.935318 -29.061882 
L 73.46738 -29.039728 
L 72.999441 -28.996437 
L 72.531502 -28.979635 
L 72.063563 -29.014297 
L 71.595624 -29.077169 
L 71.127685 -29.114953 
L 70.659746 -29.093225 
L 70.191808 -29.028174 
L 69.723869 -28.966744 
L 69.25593 -28.940071 
L 68.787991 -28.941698 
L 68.320052 -28.945796 
L 67.852113 -28.938724 
L 67.384174 -28.932564 
L 66.916235 -28.952281 
L 66.448297 -29.010449 
L 65.980358 -29.088819 
L 65.512419 -29.143387 
L 65.04448 -29.13845 
L 64.576541 -29.083603 
L 64.108602 -29.031757 
L 63.640663 -29.037174 
L 63.172725 -29.119573 
L 62.704786 -29.26877 
L 62.236847 -29.480283 
L 61.768908 -29.778715 
L 61.300969 -30.178548 
L 60.83303 -30.599144 
L 60.365091 -30.855854 
L 59.897153 -30.796834 
L 59.429214 -30.447601 
L 58.961275 -29.990291 
L 58.493336 -29.614899 
L 58.025397 -29.405313 
L 57.557458 -29.336911 
L 57.089519 -29.346163 
L 56.62158 -29.390497 
L 56.153642 -29.447348 
L 55.685703 -29.48235 
L 55.217764 -29.454154 
L 54.749825 -29.357056 
L 54.281886 -29.234161 
L 53.813947 -29.134435 
L 53.346008 -29.06913 
L 52.87807 -29.018458 
L 52.410131 -28.968476 
L 51.942192 -28.93095 
L 51.474253 -28.933914 
L 51.006314 -28.999442 
L 50.538375 -29.121538 
L 50.070436 -29.255992 
L 49.602497 -29.339935 
L 49.134559 -29.335731 
L 48.66662 -29.25928 
L 48.198681 -29.165672 
L 47.730742 -29.109756 
L 47.262803 -29.113873 
L 46.794864 -29.161124 
L 46.326925 -29.216795 
L 45.858987 -29.261193 
L 45.391048 -29.303074 
L 44.923109 -29.358595 
L 44.45517 -29.420547 
L 43.987231 -29.461299 
L 43.519292 -29.474929 
L 43.051353 -29.507694 
L 42.583414 -29.642236 
L 42.115476 -30.026183 
L 41.647537 -31.186628 
L 41.179598 -34.810978 
L 40.711659 -44.433169 
L 40.24372 -64.028056 
L 39.775781 -92.911138 
L 39.307842 -120.870641 
L 38.839904 -132.32442 
L 38.371965 -119.665722 
L 37.904026 -90.975071 
L 37.436087 -61.941298 
L 36.968148 -42.551524 
L 36.500209 -33.234209 
L 36.03227 -29.90257 
z
" id="md1b37ce4fc" style="stroke:#808080;"/>
    </defs>
    <g clip-path="url(#p463d255473)">
     <use style="fill:#808080;fill-opacity:0.25;stroke:#808080;" x="0" xlink:href="#md1b37ce4fc" y="161.858937"/>
    </g>
   </g>
   <g id="PolyCollection_2">
    <defs>
     <path d="M 31.864915 -29.177924 
L 31.864915 -28.781562 
L 32.374737 -28.781562 
L 32.884558 -28.781562 
L 33.39438 -28.781562 
L 33.904202 -28.781562 
L 34.414024 -28.781562 
L 34.923846 -28.781562 
L 35.433668 -28.781562 
L 35.943489 -28.781562 
L 36.453311 -28.781562 
L 36.963133 -28.781562 
L 37.472955 -28.781562 
L 37.982777 -28.781562 
L 38.492599 -28.781562 
L 39.00242 -28.781562 
L 39.512242 -28.781562 
L 40.022064 -28.781562 
L 40.531886 -28.781562 
L 41.041708 -28.781562 
L 41.55153 -28.781562 
L 42.061352 -28.781562 
L 42.571173 -28.781562 
L 43.080995 -28.781562 
L 43.590817 -28.781562 
L 44.100639 -28.781562 
L 44.610461 -28.781562 
L 45.120283 -28.781562 
L 45.630104 -28.781562 
L 46.139926 -28.781562 
L 46.649748 -28.781562 
L 47.15957 -28.781562 
L 47.669392 -28.781562 
L 48.179214 -28.781562 
L 48.689035 -28.781562 
L 49.198857 -28.781562 
L 49.708679 -28.781562 
L 50.218501 -28.781562 
L 50.728323 -28.781562 
L 51.238145 -28.781562 
L 51.747966 -28.781562 
L 52.257788 -28.781562 
L 52.76761 -28.781562 
L 53.277432 -28.781562 
L 53.787254 -28.781562 
L 54.297076 -28.781562 
L 54.806897 -28.781562 
L 55.316719 -28.781562 
L 55.826541 -28.781562 
L 56.336363 -28.781562 
L 56.846185 -28.781562 
L 57.356007 -28.781562 
L 57.865828 -28.781562 
L 58.37565 -28.781562 
L 58.885472 -28.781562 
L 59.395294 -28.781562 
L 59.905116 -28.781562 
L 60.414938 -28.781562 
L 60.924759 -28.781562 
L 61.434581 -28.781562 
L 61.944403 -28.781562 
L 62.454225 -28.781562 
L 62.964047 -28.781562 
L 63.473869 -28.781562 
L 63.98369 -28.781562 
L 64.493512 -28.781562 
L 65.003334 -28.781562 
L 65.513156 -28.781562 
L 66.022978 -28.781562 
L 66.5328 -28.781562 
L 67.042621 -28.781562 
L 67.552443 -28.781562 
L 68.062265 -28.781562 
L 68.572087 -28.781562 
L 69.081909 -28.781562 
L 69.591731 -28.781562 
L 70.101553 -28.781562 
L 70.611374 -28.781562 
L 71.121196 -28.781562 
L 71.631018 -28.781562 
L 72.14084 -28.781562 
L 72.650662 -28.781562 
L 73.160484 -28.781562 
L 73.670305 -28.781562 
L 74.180127 -28.781562 
L 74.689949 -28.781562 
L 75.199771 -28.781562 
L 75.709593 -28.781562 
L 76.219415 -28.781562 
L 76.729236 -28.781562 
L 77.239058 -28.781562 
L 77.74888 -28.781562 
L 78.258702 -28.781562 
L 78.768524 -28.781562 
L 79.278346 -28.781562 
L 79.788167 -28.781562 
L 80.297989 -28.781562 
L 80.807811 -28.781562 
L 81.317633 -28.781562 
L 81.827455 -28.781562 
L 82.337277 -28.781562 
L 82.847098 -28.781562 
L 83.35692 -28.781562 
L 83.866742 -28.781562 
L 84.376564 -28.781562 
L 84.886386 -28.781562 
L 85.396208 -28.781562 
L 85.906029 -28.781562 
L 86.415851 -28.781562 
L 86.925673 -28.781562 
L 87.435495 -28.781562 
L 87.945317 -28.781562 
L 88.455139 -28.781562 
L 88.96496 -28.781562 
L 89.474782 -28.781562 
L 89.984604 -28.781562 
L 90.494426 -28.781562 
L 91.004248 -28.781562 
L 91.51407 -28.781562 
L 92.023891 -28.781562 
L 92.533713 -28.781562 
L 93.043535 -28.781562 
L 93.553357 -28.781562 
L 94.063179 -28.781562 
L 94.573001 -28.781562 
L 95.082822 -28.781562 
L 95.592644 -28.781562 
L 96.102466 -28.781562 
L 96.612288 -28.781562 
L 97.12211 -28.781562 
L 97.631932 -28.781562 
L 98.141754 -28.781562 
L 98.651575 -28.781562 
L 99.161397 -28.781562 
L 99.671219 -28.781562 
L 100.181041 -28.781562 
L 100.690863 -28.781562 
L 101.200685 -28.781562 
L 101.710506 -28.781562 
L 102.220328 -28.781562 
L 102.73015 -28.781562 
L 103.239972 -28.781562 
L 103.749794 -28.781562 
L 104.259616 -28.781562 
L 104.769437 -28.781562 
L 105.279259 -28.781562 
L 105.789081 -28.781562 
L 106.298903 -28.781562 
L 106.808725 -28.781562 
L 107.318547 -28.781562 
L 107.828368 -28.781562 
L 108.33819 -28.781562 
L 108.848012 -28.781562 
L 109.357834 -28.781562 
L 109.867656 -28.781562 
L 110.377478 -28.781562 
L 110.887299 -28.781562 
L 111.397121 -28.781562 
L 111.906943 -28.781562 
L 112.416765 -28.781562 
L 112.926587 -28.781562 
L 113.436409 -28.781562 
L 113.94623 -28.781562 
L 114.456052 -28.781562 
L 114.965874 -28.781562 
L 115.475696 -28.781562 
L 115.985518 -28.781562 
L 116.49534 -28.781562 
L 117.005161 -28.781562 
L 117.514983 -28.781562 
L 118.024805 -28.781562 
L 118.534627 -28.781562 
L 119.044449 -28.781562 
L 119.554271 -28.781562 
L 120.064092 -28.781562 
L 120.573914 -28.781562 
L 121.083736 -28.781562 
L 121.593558 -28.781562 
L 122.10338 -28.781562 
L 122.613202 -28.781562 
L 123.123023 -28.781562 
L 123.632845 -28.781562 
L 124.142667 -28.781562 
L 124.652489 -28.781562 
L 125.162311 -28.781562 
L 125.672133 -28.781562 
L 126.181955 -28.781562 
L 126.691776 -28.781562 
L 127.201598 -28.781562 
L 127.71142 -28.781562 
L 128.221242 -28.781562 
L 128.731064 -28.781562 
L 129.240886 -28.781562 
L 129.750707 -28.781562 
L 130.260529 -28.781562 
L 130.770351 -28.781562 
L 131.280173 -28.781562 
L 131.789995 -28.781562 
L 132.299817 -28.781562 
L 132.809638 -28.781562 
L 133.31946 -28.781562 
L 133.31946 -28.781841 
L 133.31946 -28.781841 
L 132.809638 -28.782087 
L 132.299817 -28.782506 
L 131.789995 -28.783177 
L 131.280173 -28.784198 
L 130.770351 -28.785661 
L 130.260529 -28.787637 
L 129.750707 -28.790142 
L 129.240886 -28.793111 
L 128.731064 -28.796377 
L 128.221242 -28.799673 
L 127.71142 -28.802663 
L 127.201598 -28.80499 
L 126.691776 -28.806352 
L 126.181955 -28.80656 
L 125.672133 -28.805585 
L 125.162311 -28.803563 
L 124.652489 -28.800765 
L 124.142667 -28.797534 
L 123.632845 -28.794223 
L 123.123023 -28.791127 
L 122.613202 -28.788448 
L 122.10338 -28.786287 
L 121.593558 -28.784651 
L 121.083736 -28.783487 
L 120.573914 -28.782706 
L 120.064092 -28.78221 
L 119.554271 -28.781912 
L 119.044449 -28.781744 
L 118.534627 -28.781655 
L 118.024805 -28.781615 
L 117.514983 -28.781606 
L 117.005161 -28.781627 
L 116.49534 -28.781684 
L 115.985518 -28.781801 
L 115.475696 -28.782016 
L 114.965874 -28.782387 
L 114.456052 -28.78299 
L 113.94623 -28.78392 
L 113.436409 -28.785275 
L 112.926587 -28.787135 
L 112.416765 -28.789541 
L 111.906943 -28.792464 
L 111.397121 -28.79579 
L 110.887299 -28.799321 
L 110.377478 -28.802813 
L 109.867656 -28.806027 
L 109.357834 -28.808809 
L 108.848012 -28.811155 
L 108.33819 -28.813246 
L 107.828368 -28.81543 
L 107.318547 -28.818145 
L 106.808725 -28.82179 
L 106.298903 -28.826589 
L 105.789081 -28.832477 
L 105.279259 -28.839051 
L 104.769437 -28.845616 
L 104.259616 -28.851312 
L 103.749794 -28.855309 
L 103.239972 -28.857 
L 102.73015 -28.856159 
L 102.220328 -28.852999 
L 101.710506 -28.848136 
L 101.200685 -28.842453 
L 100.690863 -28.836918 
L 100.181041 -28.832402 
L 99.671219 -28.829546 
L 99.161397 -28.828711 
L 98.651575 -28.829989 
L 98.141754 -28.833281 
L 97.631932 -28.838375 
L 97.12211 -28.845016 
L 96.612288 -28.852931 
L 96.102466 -28.861814 
L 95.592644 -28.871295 
L 95.082822 -28.880915 
L 94.573001 -28.890135 
L 94.063179 -28.898388 
L 93.553357 -28.905167 
L 93.043535 -28.910127 
L 92.533713 -28.913166 
L 92.023891 -28.914441 
L 91.51407 -28.914327 
L 91.004248 -28.913308 
L 90.494426 -28.911857 
L 89.984604 -28.910333 
L 89.474782 -28.908946 
L 88.96496 -28.907809 
L 88.455139 -28.907044 
L 87.945317 -28.906926 
L 87.435495 -28.907971 
L 86.925673 -28.910953 
L 86.415851 -28.9168 
L 85.906029 -28.926401 
L 85.396208 -28.940359 
L 84.886386 -28.958765 
L 84.376564 -28.981069 
L 83.866742 -29.006081 
L 83.35692 -29.032136 
L 82.847098 -29.05739 
L 82.337277 -29.080171 
L 81.827455 -29.099317 
L 81.317633 -29.11441 
L 80.807811 -29.12586 
L 80.297989 -29.134839 
L 79.788167 -29.143102 
L 79.278346 -29.15276 
L 78.768524 -29.16606 
L 78.258702 -29.185174 
L 77.74888 -29.211997 
L 77.239058 -29.247923 
L 76.729236 -29.293592 
L 76.219415 -29.348667 
L 75.709593 -29.411696 
L 75.199771 -29.480149 
L 74.689949 -29.550633 
L 74.180127 -29.619261 
L 73.670305 -29.682069 
L 73.160484 -29.735411 
L 72.650662 -29.776287 
L 72.14084 -29.802609 
L 71.631018 -29.813434 
L 71.121196 -29.809143 
L 70.611374 -29.791514 
L 70.101553 -29.763613 
L 69.591731 -29.729455 
L 69.081909 -29.69351 
L 68.572087 -29.660179 
L 68.062265 -29.633465 
L 67.552443 -29.616964 
L 67.042621 -29.614223 
L 66.5328 -29.629308 
L 66.022978 -29.667313 
L 65.513156 -29.734439 
L 65.003334 -29.837345 
L 64.493512 -29.981657 
L 63.98369 -30.169809 
L 63.473869 -30.398716 
L 62.964047 -30.65805 
L 62.454225 -30.929866 
L 61.944403 -31.190145 
L 61.434581 -31.412239 
L 60.924759 -31.571584 
L 60.414938 -31.650512 
L 59.905116 -31.641806 
L 59.395294 -31.549923 
L 58.885472 -31.389532 
L 58.37565 -31.181845 
L 57.865828 -30.949885 
L 57.356007 -30.714099 
L 56.846185 -30.489445 
L 56.336363 -30.284443 
L 55.826541 -30.102041 
L 55.316719 -29.941577 
L 54.806897 -29.800985 
L 54.297076 -29.678526 
L 53.787254 -29.573648 
L 53.277432 -29.486969 
L 52.76761 -29.419614 
L 52.257788 -29.372301 
L 51.747966 -29.34456 
L 51.238145 -29.334348 
L 50.728323 -29.338216 
L 50.218501 -29.351964 
L 49.708679 -29.371637 
L 49.198857 -29.394599 
L 48.689035 -29.420504 
L 48.179214 -29.452132 
L 47.669392 -29.496305 
L 47.15957 -29.565358 
L 46.649748 -29.679754 
L 46.139926 -29.872229 
L 45.630104 -30.193305 
L 45.120283 -30.716926 
L 44.610461 -31.54367 
L 44.100639 -32.797852 
L 43.590817 -34.614483 
L 43.080995 -37.113514 
L 42.571173 -40.362317 
L 42.061352 -44.332713 
L 41.55153 -48.864384 
L 41.041708 -53.649529 
L 40.531886 -58.251664 
L 40.022064 -62.163271 
L 39.512242 -64.894473 
L 39.00242 -66.072277 
L 38.492599 -65.522933 
L 37.982777 -63.312451 
L 37.472955 -59.732385 
L 36.963133 -55.235201 
L 36.453311 -50.339133 
L 35.943489 -45.530179 
L 35.433668 -41.186496 
L 34.923846 -37.539944 
L 34.414024 -34.676095 
L 33.904202 -32.562995 
L 33.39438 -31.093803 
L 32.884558 -30.129189 
L 32.374737 -29.530177 
L 31.864915 -29.177924 
z
" id="ma0cb8a584d" style="stroke:#dc9514;"/>
    </defs>
    <g clip-path="url(#p463d255473)">
     <use style="fill:#dc9514;fill-opacity:0.25;stroke:#dc9514;" x="0" xlink:href="#ma0cb8a584d" y="161.858937"/>
    </g>
   </g>
   <g id="matplotlib.axis_1">
    <g id="xtick_1">
     <g id="line2d_1">
      <defs>
       <path d="M 0 0 
L 0 3.5 
" id="md838b17095" style="stroke:#000000;stroke-width:0.8;"/>
      </defs>
      <g>
       <use style="stroke:#000000;stroke-width:0.8;" x="38.836027" xlink:href="#md838b17095" y="133.077375"/>
      </g>
     </g>
     <g id="text_1">
      <!-- 0 -->
      <g transform="translate(36.927277 144.636437)scale(0.06 -0.06)">
       <defs>
        <path d="M 31.78125 66.40625 
Q 24.171875 66.40625 20.328125 58.90625 
Q 16.5 51.421875 16.5 36.375 
Q 16.5 21.390625 20.328125 13.890625 
Q 24.171875 6.390625 31.78125 6.390625 
Q 39.453125 6.390625 43.28125 13.890625 
Q 47.125 21.390625 47.125 36.375 
Q 47.125 51.421875 43.28125 58.90625 
Q 39.453125 66.40625 31.78125 66.40625 
z
M 31.78125 74.21875 
Q 44.046875 74.21875 50.515625 64.515625 
Q 56.984375 54.828125 56.984375 36.375 
Q 56.984375 17.96875 50.515625 8.265625 
Q 44.046875 -1.421875 31.78125 -1.421875 
Q 19.53125 -1.421875 13.0625 8.265625 
Q 6.59375 17.96875 6.59375 36.375 
Q 6.59375 54.828125 13.0625 64.515625 
Q 19.53125 74.21875 31.78125 74.21875 
z
" id="DejaVuSans-48"/>
       </defs>
       <use xlink:href="#DejaVuSans-48"/>
      </g>
     </g>
    </g>
    <g id="xtick_2">
     <g id="line2d_2">
      <g>
       <use style="stroke:#000000;stroke-width:0.8;" x="60.343589" xlink:href="#md838b17095" y="133.077375"/>
      </g>
     </g>
     <g id="text_2">
      <!-- 1 -->
      <g transform="translate(58.434839 144.636437)scale(0.06 -0.06)">
       <defs>
        <path d="M 12.40625 8.296875 
L 28.515625 8.296875 
L 28.515625 63.921875 
L 10.984375 60.40625 
L 10.984375 69.390625 
L 28.421875 72.90625 
L 38.28125 72.90625 
L 38.28125 8.296875 
L 54.390625 8.296875 
L 54.390625 0 
L 12.40625 0 
z
" id="DejaVuSans-49"/>
       </defs>
       <use xlink:href="#DejaVuSans-49"/>
      </g>
     </g>
    </g>
    <g id="xtick_3">
     <g id="line2d_3">
      <g>
       <use style="stroke:#000000;stroke-width:0.8;" x="81.851151" xlink:href="#md838b17095" y="133.077375"/>
      </g>
     </g>
     <g id="text_3">
      <!-- 2 -->
      <g transform="translate(79.942401 144.636437)scale(0.06 -0.06)">
       <defs>
        <path d="M 19.1875 8.296875 
L 53.609375 8.296875 
L 53.609375 0 
L 7.328125 0 
L 7.328125 8.296875 
Q 12.9375 14.109375 22.625 23.890625 
Q 32.328125 33.6875 34.8125 36.53125 
Q 39.546875 41.84375 41.421875 45.53125 
Q 43.3125 49.21875 43.3125 52.78125 
Q 43.3125 58.59375 39.234375 62.25 
Q 35.15625 65.921875 28.609375 65.921875 
Q 23.96875 65.921875 18.8125 64.3125 
Q 13.671875 62.703125 7.8125 59.421875 
L 7.8125 69.390625 
Q 13.765625 71.78125 18.9375 73 
Q 24.125 74.21875 28.421875 74.21875 
Q 39.75 74.21875 46.484375 68.546875 
Q 53.21875 62.890625 53.21875 53.421875 
Q 53.21875 48.921875 51.53125 44.890625 
Q 49.859375 40.875 45.40625 35.40625 
Q 44.1875 33.984375 37.640625 27.21875 
Q 31.109375 20.453125 19.1875 8.296875 
z
" id="DejaVuSans-50"/>
       </defs>
       <use xlink:href="#DejaVuSans-50"/>
      </g>
     </g>
    </g>
    <g id="xtick_4">
     <g id="line2d_4">
      <g>
       <use style="stroke:#000000;stroke-width:0.8;" x="103.358713" xlink:href="#md838b17095" y="133.077375"/>
      </g>
     </g>
     <g id="text_4">
      <!-- 3 -->
      <g transform="translate(101.449963 144.636437)scale(0.06 -0.06)">
       <defs>
        <path d="M 40.578125 39.3125 
Q 47.65625 37.796875 51.625 33 
Q 55.609375 28.21875 55.609375 21.1875 
Q 55.609375 10.40625 48.1875 4.484375 
Q 40.765625 -1.421875 27.09375 -1.421875 
Q 22.515625 -1.421875 17.65625 -0.515625 
Q 12.796875 0.390625 7.625 2.203125 
L 7.625 11.71875 
Q 11.71875 9.328125 16.59375 8.109375 
Q 21.484375 6.890625 26.8125 6.890625 
Q 36.078125 6.890625 40.9375 10.546875 
Q 45.796875 14.203125 45.796875 21.1875 
Q 45.796875 27.640625 41.28125 31.265625 
Q 36.765625 34.90625 28.71875 34.90625 
L 20.21875 34.90625 
L 20.21875 43.015625 
L 29.109375 43.015625 
Q 36.375 43.015625 40.234375 45.921875 
Q 44.09375 48.828125 44.09375 54.296875 
Q 44.09375 59.90625 40.109375 62.90625 
Q 36.140625 65.921875 28.71875 65.921875 
Q 24.65625 65.921875 20.015625 65.03125 
Q 15.375 64.15625 9.8125 62.3125 
L 9.8125 71.09375 
Q 15.4375 72.65625 20.34375 73.4375 
Q 25.25 74.21875 29.59375 74.21875 
Q 40.828125 74.21875 47.359375 69.109375 
Q 53.90625 64.015625 53.90625 55.328125 
Q 53.90625 49.265625 50.4375 45.09375 
Q 46.96875 40.921875 40.578125 39.3125 
z
" id="DejaVuSans-51"/>
       </defs>
       <use xlink:href="#DejaVuSans-51"/>
      </g>
     </g>
    </g>
    <g id="xtick_5">
     <g id="line2d_5">
      <g>
       <use style="stroke:#000000;stroke-width:0.8;" x="124.866275" xlink:href="#md838b17095" y="133.077375"/>
      </g>
     </g>
     <g id="text_5">
      <!-- 4 -->
      <g transform="translate(122.957525 144.636437)scale(0.06 -0.06)">
       <defs>
        <path d="M 37.796875 64.3125 
L 12.890625 25.390625 
L 37.796875 25.390625 
z
M 35.203125 72.90625 
L 47.609375 72.90625 
L 47.609375 25.390625 
L 58.015625 25.390625 
L 58.015625 17.1875 
L 47.609375 17.1875 
L 47.609375 0 
L 37.796875 0 
L 37.796875 17.1875 
L 4.890625 17.1875 
L 4.890625 26.703125 
z
" id="DejaVuSans-52"/>
       </defs>
       <use xlink:href="#DejaVuSans-52"/>
      </g>
     </g>
    </g>
    <g id="text_6">
     <!-- Predicted occupancy (a.u.) -->
     <g transform="translate(35.83 153.203156)scale(0.07 -0.07)">
      <defs>
       <path d="M 19.671875 64.796875 
L 19.671875 37.40625 
L 32.078125 37.40625 
Q 38.96875 37.40625 42.71875 40.96875 
Q 46.484375 44.53125 46.484375 51.125 
Q 46.484375 57.671875 42.71875 61.234375 
Q 38.96875 64.796875 32.078125 64.796875 
z
M 9.8125 72.90625 
L 32.078125 72.90625 
Q 44.34375 72.90625 50.609375 67.359375 
Q 56.890625 61.8125 56.890625 51.125 
Q 56.890625 40.328125 50.609375 34.8125 
Q 44.34375 29.296875 32.078125 29.296875 
L 19.671875 29.296875 
L 19.671875 0 
L 9.8125 0 
z
" id="DejaVuSans-80"/>
       <path d="M 41.109375 46.296875 
Q 39.59375 47.171875 37.8125 47.578125 
Q 36.03125 48 33.890625 48 
Q 26.265625 48 22.1875 43.046875 
Q 18.109375 38.09375 18.109375 28.8125 
L 18.109375 0 
L 9.078125 0 
L 9.078125 54.6875 
L 18.109375 54.6875 
L 18.109375 46.1875 
Q 20.953125 51.171875 25.484375 53.578125 
Q 30.03125 56 36.53125 56 
Q 37.453125 56 38.578125 55.875 
Q 39.703125 55.765625 41.0625 55.515625 
z
" id="DejaVuSans-114"/>
       <path d="M 56.203125 29.59375 
L 56.203125 25.203125 
L 14.890625 25.203125 
Q 15.484375 15.921875 20.484375 11.0625 
Q 25.484375 6.203125 34.421875 6.203125 
Q 39.59375 6.203125 44.453125 7.46875 
Q 49.3125 8.734375 54.109375 11.28125 
L 54.109375 2.78125 
Q 49.265625 0.734375 44.1875 -0.34375 
Q 39.109375 -1.421875 33.890625 -1.421875 
Q 20.796875 -1.421875 13.15625 6.1875 
Q 5.515625 13.8125 5.515625 26.8125 
Q 5.515625 40.234375 12.765625 48.109375 
Q 20.015625 56 32.328125 56 
Q 43.359375 56 49.78125 48.890625 
Q 56.203125 41.796875 56.203125 29.59375 
z
M 47.21875 32.234375 
Q 47.125 39.59375 43.09375 43.984375 
Q 39.0625 48.390625 32.421875 48.390625 
Q 24.90625 48.390625 20.390625 44.140625 
Q 15.875 39.890625 15.1875 32.171875 
z
" id="DejaVuSans-101"/>
       <path d="M 45.40625 46.390625 
L 45.40625 75.984375 
L 54.390625 75.984375 
L 54.390625 0 
L 45.40625 0 
L 45.40625 8.203125 
Q 42.578125 3.328125 38.25 0.953125 
Q 33.9375 -1.421875 27.875 -1.421875 
Q 17.96875 -1.421875 11.734375 6.484375 
Q 5.515625 14.40625 5.515625 27.296875 
Q 5.515625 40.1875 11.734375 48.09375 
Q 17.96875 56 27.875 56 
Q 33.9375 56 38.25 53.625 
Q 42.578125 51.265625 45.40625 46.390625 
z
M 14.796875 27.296875 
Q 14.796875 17.390625 18.875 11.75 
Q 22.953125 6.109375 30.078125 6.109375 
Q 37.203125 6.109375 41.296875 11.75 
Q 45.40625 17.390625 45.40625 27.296875 
Q 45.40625 37.203125 41.296875 42.84375 
Q 37.203125 48.484375 30.078125 48.484375 
Q 22.953125 48.484375 18.875 42.84375 
Q 14.796875 37.203125 14.796875 27.296875 
z
" id="DejaVuSans-100"/>
       <path d="M 9.421875 54.6875 
L 18.40625 54.6875 
L 18.40625 0 
L 9.421875 0 
z
M 9.421875 75.984375 
L 18.40625 75.984375 
L 18.40625 64.59375 
L 9.421875 64.59375 
z
" id="DejaVuSans-105"/>
       <path d="M 48.78125 52.59375 
L 48.78125 44.1875 
Q 44.96875 46.296875 41.140625 47.34375 
Q 37.3125 48.390625 33.40625 48.390625 
Q 24.65625 48.390625 19.8125 42.84375 
Q 14.984375 37.3125 14.984375 27.296875 
Q 14.984375 17.28125 19.8125 11.734375 
Q 24.65625 6.203125 33.40625 6.203125 
Q 37.3125 6.203125 41.140625 7.25 
Q 44.96875 8.296875 48.78125 10.40625 
L 48.78125 2.09375 
Q 45.015625 0.34375 40.984375 -0.53125 
Q 36.96875 -1.421875 32.421875 -1.421875 
Q 20.0625 -1.421875 12.78125 6.34375 
Q 5.515625 14.109375 5.515625 27.296875 
Q 5.515625 40.671875 12.859375 48.328125 
Q 20.21875 56 33.015625 56 
Q 37.15625 56 41.109375 55.140625 
Q 45.0625 54.296875 48.78125 52.59375 
z
" id="DejaVuSans-99"/>
       <path d="M 18.3125 70.21875 
L 18.3125 54.6875 
L 36.8125 54.6875 
L 36.8125 47.703125 
L 18.3125 47.703125 
L 18.3125 18.015625 
Q 18.3125 11.328125 20.140625 9.421875 
Q 21.96875 7.515625 27.59375 7.515625 
L 36.8125 7.515625 
L 36.8125 0 
L 27.59375 0 
Q 17.1875 0 13.234375 3.875 
Q 9.28125 7.765625 9.28125 18.015625 
L 9.28125 47.703125 
L 2.6875 47.703125 
L 2.6875 54.6875 
L 9.28125 54.6875 
L 9.28125 70.21875 
z
" id="DejaVuSans-116"/>
       <path id="DejaVuSans-32"/>
       <path d="M 30.609375 48.390625 
Q 23.390625 48.390625 19.1875 42.75 
Q 14.984375 37.109375 14.984375 27.296875 
Q 14.984375 17.484375 19.15625 11.84375 
Q 23.34375 6.203125 30.609375 6.203125 
Q 37.796875 6.203125 41.984375 11.859375 
Q 46.1875 17.53125 46.1875 27.296875 
Q 46.1875 37.015625 41.984375 42.703125 
Q 37.796875 48.390625 30.609375 48.390625 
z
M 30.609375 56 
Q 42.328125 56 49.015625 48.375 
Q 55.71875 40.765625 55.71875 27.296875 
Q 55.71875 13.875 49.015625 6.21875 
Q 42.328125 -1.421875 30.609375 -1.421875 
Q 18.84375 -1.421875 12.171875 6.21875 
Q 5.515625 13.875 5.515625 27.296875 
Q 5.515625 40.765625 12.171875 48.375 
Q 18.84375 56 30.609375 56 
z
" id="DejaVuSans-111"/>
       <path d="M 8.5 21.578125 
L 8.5 54.6875 
L 17.484375 54.6875 
L 17.484375 21.921875 
Q 17.484375 14.15625 20.5 10.265625 
Q 23.53125 6.390625 29.59375 6.390625 
Q 36.859375 6.390625 41.078125 11.03125 
Q 45.3125 15.671875 45.3125 23.6875 
L 45.3125 54.6875 
L 54.296875 54.6875 
L 54.296875 0 
L 45.3125 0 
L 45.3125 8.40625 
Q 42.046875 3.421875 37.71875 1 
Q 33.40625 -1.421875 27.6875 -1.421875 
Q 18.265625 -1.421875 13.375 4.4375 
Q 8.5 10.296875 8.5 21.578125 
z
M 31.109375 56 
z
" id="DejaVuSans-117"/>
       <path d="M 18.109375 8.203125 
L 18.109375 -20.796875 
L 9.078125 -20.796875 
L 9.078125 54.6875 
L 18.109375 54.6875 
L 18.109375 46.390625 
Q 20.953125 51.265625 25.265625 53.625 
Q 29.59375 56 35.59375 56 
Q 45.5625 56 51.78125 48.09375 
Q 58.015625 40.1875 58.015625 27.296875 
Q 58.015625 14.40625 51.78125 6.484375 
Q 45.5625 -1.421875 35.59375 -1.421875 
Q 29.59375 -1.421875 25.265625 0.953125 
Q 20.953125 3.328125 18.109375 8.203125 
z
M 48.6875 27.296875 
Q 48.6875 37.203125 44.609375 42.84375 
Q 40.53125 48.484375 33.40625 48.484375 
Q 26.265625 48.484375 22.1875 42.84375 
Q 18.109375 37.203125 18.109375 27.296875 
Q 18.109375 17.390625 22.1875 11.75 
Q 26.265625 6.109375 33.40625 6.109375 
Q 40.53125 6.109375 44.609375 11.75 
Q 48.6875 17.390625 48.6875 27.296875 
z
" id="DejaVuSans-112"/>
       <path d="M 34.28125 27.484375 
Q 23.390625 27.484375 19.1875 25 
Q 14.984375 22.515625 14.984375 16.5 
Q 14.984375 11.71875 18.140625 8.90625 
Q 21.296875 6.109375 26.703125 6.109375 
Q 34.1875 6.109375 38.703125 11.40625 
Q 43.21875 16.703125 43.21875 25.484375 
L 43.21875 27.484375 
z
M 52.203125 31.203125 
L 52.203125 0 
L 43.21875 0 
L 43.21875 8.296875 
Q 40.140625 3.328125 35.546875 0.953125 
Q 30.953125 -1.421875 24.3125 -1.421875 
Q 15.921875 -1.421875 10.953125 3.296875 
Q 6 8.015625 6 15.921875 
Q 6 25.140625 12.171875 29.828125 
Q 18.359375 34.515625 30.609375 34.515625 
L 43.21875 34.515625 
L 43.21875 35.40625 
Q 43.21875 41.609375 39.140625 45 
Q 35.0625 48.390625 27.6875 48.390625 
Q 23 48.390625 18.546875 47.265625 
Q 14.109375 46.140625 10.015625 43.890625 
L 10.015625 52.203125 
Q 14.9375 54.109375 19.578125 55.046875 
Q 24.21875 56 28.609375 56 
Q 40.484375 56 46.34375 49.84375 
Q 52.203125 43.703125 52.203125 31.203125 
z
" id="DejaVuSans-97"/>
       <path d="M 54.890625 33.015625 
L 54.890625 0 
L 45.90625 0 
L 45.90625 32.71875 
Q 45.90625 40.484375 42.875 44.328125 
Q 39.84375 48.1875 33.796875 48.1875 
Q 26.515625 48.1875 22.3125 43.546875 
Q 18.109375 38.921875 18.109375 30.90625 
L 18.109375 0 
L 9.078125 0 
L 9.078125 54.6875 
L 18.109375 54.6875 
L 18.109375 46.1875 
Q 21.34375 51.125 25.703125 53.5625 
Q 30.078125 56 35.796875 56 
Q 45.21875 56 50.046875 50.171875 
Q 54.890625 44.34375 54.890625 33.015625 
z
" id="DejaVuSans-110"/>
       <path d="M 32.171875 -5.078125 
Q 28.375 -14.84375 24.75 -17.8125 
Q 21.140625 -20.796875 15.09375 -20.796875 
L 7.90625 -20.796875 
L 7.90625 -13.28125 
L 13.1875 -13.28125 
Q 16.890625 -13.28125 18.9375 -11.515625 
Q 21 -9.765625 23.484375 -3.21875 
L 25.09375 0.875 
L 2.984375 54.6875 
L 12.5 54.6875 
L 29.59375 11.921875 
L 46.6875 54.6875 
L 56.203125 54.6875 
z
" id="DejaVuSans-121"/>
       <path d="M 31 75.875 
Q 24.46875 64.65625 21.28125 53.65625 
Q 18.109375 42.671875 18.109375 31.390625 
Q 18.109375 20.125 21.3125 9.0625 
Q 24.515625 -2 31 -13.1875 
L 23.1875 -13.1875 
Q 15.875 -1.703125 12.234375 9.375 
Q 8.59375 20.453125 8.59375 31.390625 
Q 8.59375 42.28125 12.203125 53.3125 
Q 15.828125 64.359375 23.1875 75.875 
z
" id="DejaVuSans-40"/>
       <path d="M 10.6875 12.40625 
L 21 12.40625 
L 21 0 
L 10.6875 0 
z
" id="DejaVuSans-46"/>
       <path d="M 8.015625 75.875 
L 15.828125 75.875 
Q 23.140625 64.359375 26.78125 53.3125 
Q 30.421875 42.28125 30.421875 31.390625 
Q 30.421875 20.453125 26.78125 9.375 
Q 23.140625 -1.703125 15.828125 -13.1875 
L 8.015625 -13.1875 
Q 14.5 -2 17.703125 9.0625 
Q 20.90625 20.125 20.90625 31.390625 
Q 20.90625 42.671875 17.703125 53.65625 
Q 14.5 64.65625 8.015625 75.875 
z
" id="DejaVuSans-41"/>
      </defs>
      <use xlink:href="#DejaVuSans-80"/>
      <use x="58.552734" xlink:href="#DejaVuSans-114"/>
      <use x="97.416016" xlink:href="#DejaVuSans-101"/>
      <use x="158.939453" xlink:href="#DejaVuSans-100"/>
      <use x="222.416016" xlink:href="#DejaVuSans-105"/>
      <use x="250.199219" xlink:href="#DejaVuSans-99"/>
      <use x="305.179688" xlink:href="#DejaVuSans-116"/>
      <use x="344.388672" xlink:href="#DejaVuSans-101"/>
      <use x="405.912109" xlink:href="#DejaVuSans-100"/>
      <use x="469.388672" xlink:href="#DejaVuSans-32"/>
      <use x="501.175781" xlink:href="#DejaVuSans-111"/>
      <use x="562.357422" xlink:href="#DejaVuSans-99"/>
      <use x="617.337891" xlink:href="#DejaVuSans-99"/>
      <use x="672.318359" xlink:href="#DejaVuSans-117"/>
      <use x="735.697266" xlink:href="#DejaVuSans-112"/>
      <use x="799.173828" xlink:href="#DejaVuSans-97"/>
      <use x="860.453125" xlink:href="#DejaVuSans-110"/>
      <use x="923.832031" xlink:href="#DejaVuSans-99"/>
      <use x="978.8125" xlink:href="#DejaVuSans-121"/>
      <use x="1037.992188" xlink:href="#DejaVuSans-32"/>
      <use x="1069.779297" xlink:href="#DejaVuSans-40"/>
      <use x="1108.792969" xlink:href="#DejaVuSans-97"/>
      <use x="1170.072266" xlink:href="#DejaVuSans-46"/>
      <use x="1201.859375" xlink:href="#DejaVuSans-117"/>
      <use x="1265.238281" xlink:href="#DejaVuSans-46"/>
      <use x="1297.025391" xlink:href="#DejaVuSans-41"/>
     </g>
    </g>
   </g>
   <g id="matplotlib.axis_2">
    <g id="ytick_1">
     <g id="line2d_6">
      <defs>
       <path d="M 0 0 
L -3.5 0 
" id="m1ad8d2640a" style="stroke:#000000;stroke-width:0.8;"/>
      </defs>
      <g>
       <use style="stroke:#000000;stroke-width:0.8;" x="26.792188" xlink:href="#m1ad8d2640a" y="133.077375"/>
      </g>
     </g>
     <g id="text_7">
      <!-- 0 -->
      <g transform="translate(15.974688 135.356906)scale(0.06 -0.06)">
       <use xlink:href="#DejaVuSans-48"/>
      </g>
     </g>
    </g>
    <g id="ytick_2">
     <g id="line2d_7">
      <g>
       <use style="stroke:#000000;stroke-width:0.8;" x="26.792188" xlink:href="#m1ad8d2640a" y="120.785885"/>
      </g>
     </g>
     <g id="text_8">
      <!-- 1 -->
      <g transform="translate(15.974688 123.065416)scale(0.06 -0.06)">
       <use xlink:href="#DejaVuSans-49"/>
      </g>
     </g>
    </g>
    <g id="ytick_3">
     <g id="line2d_8">
      <g>
       <use style="stroke:#000000;stroke-width:0.8;" x="26.792188" xlink:href="#m1ad8d2640a" y="108.494395"/>
      </g>
     </g>
     <g id="text_9">
      <!-- 2 -->
      <g transform="translate(15.974688 110.773926)scale(0.06 -0.06)">
       <use xlink:href="#DejaVuSans-50"/>
      </g>
     </g>
    </g>
    <g id="ytick_4">
     <g id="line2d_9">
      <g>
       <use style="stroke:#000000;stroke-width:0.8;" x="26.792188" xlink:href="#m1ad8d2640a" y="96.202905"/>
      </g>
     </g>
     <g id="text_10">
      <!-- 3 -->
      <g transform="translate(15.974688 98.482436)scale(0.06 -0.06)">
       <use xlink:href="#DejaVuSans-51"/>
      </g>
     </g>
    </g>
    <g id="ytick_5">
     <g id="line2d_10">
      <g>
       <use style="stroke:#000000;stroke-width:0.8;" x="26.792188" xlink:href="#m1ad8d2640a" y="83.911415"/>
      </g>
     </g>
     <g id="text_11">
      <!-- 4 -->
      <g transform="translate(15.974688 86.190946)scale(0.06 -0.06)">
       <use xlink:href="#DejaVuSans-52"/>
      </g>
     </g>
    </g>
    <g id="ytick_6">
     <g id="line2d_11">
      <g>
       <use style="stroke:#000000;stroke-width:0.8;" x="26.792188" xlink:href="#m1ad8d2640a" y="71.619925"/>
      </g>
     </g>
     <g id="text_12">
      <!-- 5 -->
      <g transform="translate(15.974688 73.899456)scale(0.06 -0.06)">
       <defs>
        <path d="M 10.796875 72.90625 
L 49.515625 72.90625 
L 49.515625 64.59375 
L 19.828125 64.59375 
L 19.828125 46.734375 
Q 21.96875 47.46875 24.109375 47.828125 
Q 26.265625 48.1875 28.421875 48.1875 
Q 40.625 48.1875 47.75 41.5 
Q 54.890625 34.8125 54.890625 23.390625 
Q 54.890625 11.625 47.5625 5.09375 
Q 40.234375 -1.421875 26.90625 -1.421875 
Q 22.3125 -1.421875 17.546875 -0.640625 
Q 12.796875 0.140625 7.71875 1.703125 
L 7.71875 11.625 
Q 12.109375 9.234375 16.796875 8.0625 
Q 21.484375 6.890625 26.703125 6.890625 
Q 35.15625 6.890625 40.078125 11.328125 
Q 45.015625 15.765625 45.015625 23.390625 
Q 45.015625 31 40.078125 35.4375 
Q 35.15625 39.890625 26.703125 39.890625 
Q 22.75 39.890625 18.8125 39.015625 
Q 14.890625 38.140625 10.796875 36.28125 
z
" id="DejaVuSans-53"/>
       </defs>
       <use xlink:href="#DejaVuSans-53"/>
      </g>
     </g>
    </g>
    <g id="ytick_7">
     <g id="line2d_12">
      <g>
       <use style="stroke:#000000;stroke-width:0.8;" x="26.792188" xlink:href="#m1ad8d2640a" y="59.328435"/>
      </g>
     </g>
     <g id="text_13">
      <!-- 6 -->
      <g transform="translate(15.974688 61.607966)scale(0.06 -0.06)">
       <defs>
        <path d="M 33.015625 40.375 
Q 26.375 40.375 22.484375 35.828125 
Q 18.609375 31.296875 18.609375 23.390625 
Q 18.609375 15.53125 22.484375 10.953125 
Q 26.375 6.390625 33.015625 6.390625 
Q 39.65625 6.390625 43.53125 10.953125 
Q 47.40625 15.53125 47.40625 23.390625 
Q 47.40625 31.296875 43.53125 35.828125 
Q 39.65625 40.375 33.015625 40.375 
z
M 52.59375 71.296875 
L 52.59375 62.3125 
Q 48.875 64.0625 45.09375 64.984375 
Q 41.3125 65.921875 37.59375 65.921875 
Q 27.828125 65.921875 22.671875 59.328125 
Q 17.53125 52.734375 16.796875 39.40625 
Q 19.671875 43.65625 24.015625 45.921875 
Q 28.375 48.1875 33.59375 48.1875 
Q 44.578125 48.1875 50.953125 41.515625 
Q 57.328125 34.859375 57.328125 23.390625 
Q 57.328125 12.15625 50.6875 5.359375 
Q 44.046875 -1.421875 33.015625 -1.421875 
Q 20.359375 -1.421875 13.671875 8.265625 
Q 6.984375 17.96875 6.984375 36.375 
Q 6.984375 53.65625 15.1875 63.9375 
Q 23.390625 74.21875 37.203125 74.21875 
Q 40.921875 74.21875 44.703125 73.484375 
Q 48.484375 72.75 52.59375 71.296875 
z
" id="DejaVuSans-54"/>
       </defs>
       <use xlink:href="#DejaVuSans-54"/>
      </g>
     </g>
    </g>
    <g id="ytick_8">
     <g id="line2d_13">
      <g>
       <use style="stroke:#000000;stroke-width:0.8;" x="26.792188" xlink:href="#m1ad8d2640a" y="47.036945"/>
      </g>
     </g>
     <g id="text_14">
      <!-- 7 -->
      <g transform="translate(15.974688 49.316476)scale(0.06 -0.06)">
       <defs>
        <path d="M 8.203125 72.90625 
L 55.078125 72.90625 
L 55.078125 68.703125 
L 28.609375 0 
L 18.3125 0 
L 43.21875 64.59375 
L 8.203125 64.59375 
z
" id="DejaVuSans-55"/>
       </defs>
       <use xlink:href="#DejaVuSans-55"/>
      </g>
     </g>
    </g>
    <g id="ytick_9">
     <g id="line2d_14">
      <g>
       <use style="stroke:#000000;stroke-width:0.8;" x="26.792188" xlink:href="#m1ad8d2640a" y="34.745455"/>
      </g>
     </g>
     <g id="text_15">
      <!-- 8 -->
      <g transform="translate(15.974688 37.024986)scale(0.06 -0.06)">
       <defs>
        <path d="M 31.78125 34.625 
Q 24.75 34.625 20.71875 30.859375 
Q 16.703125 27.09375 16.703125 20.515625 
Q 16.703125 13.921875 20.71875 10.15625 
Q 24.75 6.390625 31.78125 6.390625 
Q 38.8125 6.390625 42.859375 10.171875 
Q 46.921875 13.96875 46.921875 20.515625 
Q 46.921875 27.09375 42.890625 30.859375 
Q 38.875 34.625 31.78125 34.625 
z
M 21.921875 38.8125 
Q 15.578125 40.375 12.03125 44.71875 
Q 8.5 49.078125 8.5 55.328125 
Q 8.5 64.0625 14.71875 69.140625 
Q 20.953125 74.21875 31.78125 74.21875 
Q 42.671875 74.21875 48.875 69.140625 
Q 55.078125 64.0625 55.078125 55.328125 
Q 55.078125 49.078125 51.53125 44.71875 
Q 48 40.375 41.703125 38.8125 
Q 48.828125 37.15625 52.796875 32.3125 
Q 56.78125 27.484375 56.78125 20.515625 
Q 56.78125 9.90625 50.3125 4.234375 
Q 43.84375 -1.421875 31.78125 -1.421875 
Q 19.734375 -1.421875 13.25 4.234375 
Q 6.78125 9.90625 6.78125 20.515625 
Q 6.78125 27.484375 10.78125 32.3125 
Q 14.796875 37.15625 21.921875 38.8125 
z
M 18.3125 54.390625 
Q 18.3125 48.734375 21.84375 45.5625 
Q 25.390625 42.390625 31.78125 42.390625 
Q 38.140625 42.390625 41.71875 45.5625 
Q 45.3125 48.734375 45.3125 54.390625 
Q 45.3125 60.0625 41.71875 63.234375 
Q 38.140625 66.40625 31.78125 66.40625 
Q 25.390625 66.40625 21.84375 63.234375 
Q 18.3125 60.0625 18.3125 54.390625 
z
" id="DejaVuSans-56"/>
       </defs>
       <use xlink:href="#DejaVuSans-56"/>
      </g>
     </g>
    </g>
    <g id="text_16">
     <!-- Density -->
     <g transform="translate(12.518906 92.023391)rotate(-90)scale(0.07 -0.07)">
      <defs>
       <path d="M 19.671875 64.796875 
L 19.671875 8.109375 
L 31.59375 8.109375 
Q 46.6875 8.109375 53.6875 14.9375 
Q 60.6875 21.78125 60.6875 36.53125 
Q 60.6875 51.171875 53.6875 57.984375 
Q 46.6875 64.796875 31.59375 64.796875 
z
M 9.8125 72.90625 
L 30.078125 72.90625 
Q 51.265625 72.90625 61.171875 64.09375 
Q 71.09375 55.28125 71.09375 36.53125 
Q 71.09375 17.671875 61.125 8.828125 
Q 51.171875 0 30.078125 0 
L 9.8125 0 
z
" id="DejaVuSans-68"/>
       <path d="M 44.28125 53.078125 
L 44.28125 44.578125 
Q 40.484375 46.53125 36.375 47.5 
Q 32.28125 48.484375 27.875 48.484375 
Q 21.1875 48.484375 17.84375 46.4375 
Q 14.5 44.390625 14.5 40.28125 
Q 14.5 37.15625 16.890625 35.375 
Q 19.28125 33.59375 26.515625 31.984375 
L 29.59375 31.296875 
Q 39.15625 29.25 43.1875 25.515625 
Q 47.21875 21.78125 47.21875 15.09375 
Q 47.21875 7.46875 41.1875 3.015625 
Q 35.15625 -1.421875 24.609375 -1.421875 
Q 20.21875 -1.421875 15.453125 -0.5625 
Q 10.6875 0.296875 5.421875 2 
L 5.421875 11.28125 
Q 10.40625 8.6875 15.234375 7.390625 
Q 20.0625 6.109375 24.8125 6.109375 
Q 31.15625 6.109375 34.5625 8.28125 
Q 37.984375 10.453125 37.984375 14.40625 
Q 37.984375 18.0625 35.515625 20.015625 
Q 33.0625 21.96875 24.703125 23.78125 
L 21.578125 24.515625 
Q 13.234375 26.265625 9.515625 29.90625 
Q 5.8125 33.546875 5.8125 39.890625 
Q 5.8125 47.609375 11.28125 51.796875 
Q 16.75 56 26.8125 56 
Q 31.78125 56 36.171875 55.265625 
Q 40.578125 54.546875 44.28125 53.078125 
z
" id="DejaVuSans-115"/>
      </defs>
      <use xlink:href="#DejaVuSans-68"/>
      <use x="77.001953" xlink:href="#DejaVuSans-101"/>
      <use x="138.525391" xlink:href="#DejaVuSans-110"/>
      <use x="201.904297" xlink:href="#DejaVuSans-115"/>
      <use x="254.003906" xlink:href="#DejaVuSans-105"/>
      <use x="281.787109" xlink:href="#DejaVuSans-116"/>
      <use x="320.996094" xlink:href="#DejaVuSans-121"/>
     </g>
    </g>
   </g>
   <g id="patch_3">
    <path d="M 26.792188 133.077375 
L 26.792188 24.357375 
" style="fill:none;stroke:#000000;stroke-linecap:square;stroke-linejoin:miter;stroke-width:0.8;"/>
   </g>
   <g id="patch_4">
    <path d="M 138.392188 133.077375 
L 138.392188 24.357375 
" style="fill:none;stroke:#000000;stroke-linecap:square;stroke-linejoin:miter;stroke-width:0.8;"/>
   </g>
   <g id="patch_5">
    <path d="M 26.792188 133.077375 
L 138.392188 133.077375 
" style="fill:none;stroke:#000000;stroke-linecap:square;stroke-linejoin:miter;stroke-width:0.8;"/>
   </g>
   <g id="patch_6">
    <path d="M 26.792188 24.357375 
L 138.392188 24.357375 
" style="fill:none;stroke:#000000;stroke-linecap:square;stroke-linejoin:miter;stroke-width:0.8;"/>
   </g>
   <g id="text_17">
    <!-- Predicted Occupancy -->
    <g transform="translate(45.6475 12.518906)scale(0.07 -0.07)">
     <defs>
      <path d="M 39.40625 66.21875 
Q 28.65625 66.21875 22.328125 58.203125 
Q 16.015625 50.203125 16.015625 36.375 
Q 16.015625 22.609375 22.328125 14.59375 
Q 28.65625 6.59375 39.40625 6.59375 
Q 50.140625 6.59375 56.421875 14.59375 
Q 62.703125 22.609375 62.703125 36.375 
Q 62.703125 50.203125 56.421875 58.203125 
Q 50.140625 66.21875 39.40625 66.21875 
z
M 39.40625 74.21875 
Q 54.734375 74.21875 63.90625 63.9375 
Q 73.09375 53.65625 73.09375 36.375 
Q 73.09375 19.140625 63.90625 8.859375 
Q 54.734375 -1.421875 39.40625 -1.421875 
Q 24.03125 -1.421875 14.8125 8.828125 
Q 5.609375 19.09375 5.609375 36.375 
Q 5.609375 53.65625 14.8125 63.9375 
Q 24.03125 74.21875 39.40625 74.21875 
z
" id="DejaVuSans-79"/>
     </defs>
     <use xlink:href="#DejaVuSans-80"/>
     <use x="58.552734" xlink:href="#DejaVuSans-114"/>
     <use x="97.416016" xlink:href="#DejaVuSans-101"/>
     <use x="158.939453" xlink:href="#DejaVuSans-100"/>
     <use x="222.416016" xlink:href="#DejaVuSans-105"/>
     <use x="250.199219" xlink:href="#DejaVuSans-99"/>
     <use x="305.179688" xlink:href="#DejaVuSans-116"/>
     <use x="344.388672" xlink:href="#DejaVuSans-101"/>
     <use x="405.912109" xlink:href="#DejaVuSans-100"/>
     <use x="469.388672" xlink:href="#DejaVuSans-32"/>
     <use x="501.175781" xlink:href="#DejaVuSans-79"/>
     <use x="579.886719" xlink:href="#DejaVuSans-99"/>
     <use x="634.867188" xlink:href="#DejaVuSans-99"/>
     <use x="689.847656" xlink:href="#DejaVuSans-117"/>
     <use x="753.226562" xlink:href="#DejaVuSans-112"/>
     <use x="816.703125" xlink:href="#DejaVuSans-97"/>
     <use x="877.982422" xlink:href="#DejaVuSans-110"/>
     <use x="941.361328" xlink:href="#DejaVuSans-99"/>
     <use x="996.341797" xlink:href="#DejaVuSans-121"/>
    </g>
    <!-- for Dimeric HD Motifs μ=9 -->
    <g transform="translate(36.489531 20.357375)scale(0.07 -0.07)">
     <defs>
      <path d="M 37.109375 75.984375 
L 37.109375 68.5 
L 28.515625 68.5 
Q 23.6875 68.5 21.796875 66.546875 
Q 19.921875 64.59375 19.921875 59.515625 
L 19.921875 54.6875 
L 34.71875 54.6875 
L 34.71875 47.703125 
L 19.921875 47.703125 
L 19.921875 0 
L 10.890625 0 
L 10.890625 47.703125 
L 2.296875 47.703125 
L 2.296875 54.6875 
L 10.890625 54.6875 
L 10.890625 58.5 
Q 10.890625 67.625 15.140625 71.796875 
Q 19.390625 75.984375 28.609375 75.984375 
z
" id="DejaVuSans-102"/>
      <path d="M 52 44.1875 
Q 55.375 50.25 60.0625 53.125 
Q 64.75 56 71.09375 56 
Q 79.640625 56 84.28125 50.015625 
Q 88.921875 44.046875 88.921875 33.015625 
L 88.921875 0 
L 79.890625 0 
L 79.890625 32.71875 
Q 79.890625 40.578125 77.09375 44.375 
Q 74.3125 48.1875 68.609375 48.1875 
Q 61.625 48.1875 57.5625 43.546875 
Q 53.515625 38.921875 53.515625 30.90625 
L 53.515625 0 
L 44.484375 0 
L 44.484375 32.71875 
Q 44.484375 40.625 41.703125 44.40625 
Q 38.921875 48.1875 33.109375 48.1875 
Q 26.21875 48.1875 22.15625 43.53125 
Q 18.109375 38.875 18.109375 30.90625 
L 18.109375 0 
L 9.078125 0 
L 9.078125 54.6875 
L 18.109375 54.6875 
L 18.109375 46.1875 
Q 21.1875 51.21875 25.484375 53.609375 
Q 29.78125 56 35.6875 56 
Q 41.65625 56 45.828125 52.96875 
Q 50 49.953125 52 44.1875 
z
" id="DejaVuSans-109"/>
      <path d="M 9.8125 72.90625 
L 19.671875 72.90625 
L 19.671875 43.015625 
L 55.515625 43.015625 
L 55.515625 72.90625 
L 65.375 72.90625 
L 65.375 0 
L 55.515625 0 
L 55.515625 34.71875 
L 19.671875 34.71875 
L 19.671875 0 
L 9.8125 0 
z
" id="DejaVuSans-72"/>
      <path d="M 9.8125 72.90625 
L 24.515625 72.90625 
L 43.109375 23.296875 
L 61.8125 72.90625 
L 76.515625 72.90625 
L 76.515625 0 
L 66.890625 0 
L 66.890625 64.015625 
L 48.09375 14.015625 
L 38.1875 14.015625 
L 19.390625 64.015625 
L 19.390625 0 
L 9.8125 0 
z
" id="DejaVuSans-77"/>
      <path d="M 8.5 -20.796875 
L 8.5 54.6875 
L 17.484375 54.6875 
L 17.484375 20.703125 
Q 17.484375 13.625 20.84375 10 
Q 24.21875 6.390625 30.8125 6.390625 
Q 38.03125 6.390625 41.671875 10.484375 
Q 45.3125 14.59375 45.3125 22.796875 
L 45.3125 54.6875 
L 54.296875 54.6875 
L 54.296875 12.59375 
Q 54.296875 9.671875 55.140625 8.28125 
Q 56 6.890625 57.8125 6.890625 
Q 58.25 6.890625 59.03125 7.15625 
Q 59.8125 7.421875 61.1875 8.015625 
L 61.1875 0.78125 
Q 59.1875 -0.34375 57.390625 -0.875 
Q 55.609375 -1.421875 53.90625 -1.421875 
Q 50.53125 -1.421875 48.53125 0.484375 
Q 46.53125 2.390625 45.796875 6.296875 
Q 43.359375 2.4375 39.8125 0.5 
Q 36.28125 -1.421875 31.5 -1.421875 
Q 26.515625 -1.421875 23.015625 0.484375 
Q 19.53125 2.390625 17.484375 6.203125 
L 17.484375 -20.796875 
z
" id="DejaVuSans-956"/>
      <path d="M 10.59375 45.40625 
L 73.1875 45.40625 
L 73.1875 37.203125 
L 10.59375 37.203125 
z
M 10.59375 25.484375 
L 73.1875 25.484375 
L 73.1875 17.1875 
L 10.59375 17.1875 
z
" id="DejaVuSans-61"/>
      <path d="M 10.984375 1.515625 
L 10.984375 10.5 
Q 14.703125 8.734375 18.5 7.8125 
Q 22.3125 6.890625 25.984375 6.890625 
Q 35.75 6.890625 40.890625 13.453125 
Q 46.046875 20.015625 46.78125 33.40625 
Q 43.953125 29.203125 39.59375 26.953125 
Q 35.25 24.703125 29.984375 24.703125 
Q 19.046875 24.703125 12.671875 31.3125 
Q 6.296875 37.9375 6.296875 49.421875 
Q 6.296875 60.640625 12.9375 67.421875 
Q 19.578125 74.21875 30.609375 74.21875 
Q 43.265625 74.21875 49.921875 64.515625 
Q 56.59375 54.828125 56.59375 36.375 
Q 56.59375 19.140625 48.40625 8.859375 
Q 40.234375 -1.421875 26.421875 -1.421875 
Q 22.703125 -1.421875 18.890625 -0.6875 
Q 15.09375 0.046875 10.984375 1.515625 
z
M 30.609375 32.421875 
Q 37.25 32.421875 41.125 36.953125 
Q 45.015625 41.5 45.015625 49.421875 
Q 45.015625 57.28125 41.125 61.84375 
Q 37.25 66.40625 30.609375 66.40625 
Q 23.96875 66.40625 20.09375 61.84375 
Q 16.21875 57.28125 16.21875 49.421875 
Q 16.21875 41.5 20.09375 36.953125 
Q 23.96875 32.421875 30.609375 32.421875 
z
" id="DejaVuSans-57"/>
     </defs>
     <use xlink:href="#DejaVuSans-102"/>
     <use x="35.205078" xlink:href="#DejaVuSans-111"/>
     <use x="96.386719" xlink:href="#DejaVuSans-114"/>
     <use x="137.5" xlink:href="#DejaVuSans-32"/>
     <use x="169.287109" xlink:href="#DejaVuSans-68"/>
     <use x="246.289062" xlink:href="#DejaVuSans-105"/>
     <use x="274.072266" xlink:href="#DejaVuSans-109"/>
     <use x="371.484375" xlink:href="#DejaVuSans-101"/>
     <use x="433.007812" xlink:href="#DejaVuSans-114"/>
     <use x="474.121094" xlink:href="#DejaVuSans-105"/>
     <use x="501.904297" xlink:href="#DejaVuSans-99"/>
     <use x="556.884766" xlink:href="#DejaVuSans-32"/>
     <use x="588.671875" xlink:href="#DejaVuSans-72"/>
     <use x="663.867188" xlink:href="#DejaVuSans-68"/>
     <use x="740.869141" xlink:href="#DejaVuSans-32"/>
     <use x="772.65625" xlink:href="#DejaVuSans-77"/>
     <use x="858.935547" xlink:href="#DejaVuSans-111"/>
     <use x="920.117188" xlink:href="#DejaVuSans-116"/>
     <use x="959.326172" xlink:href="#DejaVuSans-105"/>
     <use x="987.109375" xlink:href="#DejaVuSans-102"/>
     <use x="1022.314453" xlink:href="#DejaVuSans-115"/>
     <use x="1074.414062" xlink:href="#DejaVuSans-32"/>
     <use x="1106.201172" xlink:href="#DejaVuSans-956"/>
     <use x="1169.824219" xlink:href="#DejaVuSans-61"/>
     <use x="1253.613281" xlink:href="#DejaVuSans-57"/>
    </g>
   </g>
   <g id="legend_1">
    <g id="patch_7">
     <path d="M 79.506875 46.771125 
L 134.192188 46.771125 
Q 135.392188 46.771125 135.392188 45.571125 
L 135.392188 28.557375 
Q 135.392188 27.357375 134.192188 27.357375 
L 79.506875 27.357375 
Q 78.306875 27.357375 78.306875 28.557375 
L 78.306875 45.571125 
Q 78.306875 46.771125 79.506875 46.771125 
z
" style="fill:#ffffff;opacity:0.8;stroke:#cccccc;stroke-linejoin:miter;"/>
    </g>
    <g id="patch_8">
     <path d="M 80.706875 34.316437 
L 92.706875 34.316437 
L 92.706875 30.116437 
L 80.706875 30.116437 
z
" style="fill:#808080;fill-opacity:0.25;stroke:#808080;stroke-linejoin:miter;"/>
    </g>
    <g id="text_18">
     <!-- background -->
     <g transform="translate(97.506875 34.316437)scale(0.06 -0.06)">
      <defs>
       <path d="M 48.6875 27.296875 
Q 48.6875 37.203125 44.609375 42.84375 
Q 40.53125 48.484375 33.40625 48.484375 
Q 26.265625 48.484375 22.1875 42.84375 
Q 18.109375 37.203125 18.109375 27.296875 
Q 18.109375 17.390625 22.1875 11.75 
Q 26.265625 6.109375 33.40625 6.109375 
Q 40.53125 6.109375 44.609375 11.75 
Q 48.6875 17.390625 48.6875 27.296875 
z
M 18.109375 46.390625 
Q 20.953125 51.265625 25.265625 53.625 
Q 29.59375 56 35.59375 56 
Q 45.5625 56 51.78125 48.09375 
Q 58.015625 40.1875 58.015625 27.296875 
Q 58.015625 14.40625 51.78125 6.484375 
Q 45.5625 -1.421875 35.59375 -1.421875 
Q 29.59375 -1.421875 25.265625 0.953125 
Q 20.953125 3.328125 18.109375 8.203125 
L 18.109375 0 
L 9.078125 0 
L 9.078125 75.984375 
L 18.109375 75.984375 
z
" id="DejaVuSans-98"/>
       <path d="M 9.078125 75.984375 
L 18.109375 75.984375 
L 18.109375 31.109375 
L 44.921875 54.6875 
L 56.390625 54.6875 
L 27.390625 29.109375 
L 57.625 0 
L 45.90625 0 
L 18.109375 26.703125 
L 18.109375 0 
L 9.078125 0 
z
" id="DejaVuSans-107"/>
       <path d="M 45.40625 27.984375 
Q 45.40625 37.75 41.375 43.109375 
Q 37.359375 48.484375 30.078125 48.484375 
Q 22.859375 48.484375 18.828125 43.109375 
Q 14.796875 37.75 14.796875 27.984375 
Q 14.796875 18.265625 18.828125 12.890625 
Q 22.859375 7.515625 30.078125 7.515625 
Q 37.359375 7.515625 41.375 12.890625 
Q 45.40625 18.265625 45.40625 27.984375 
z
M 54.390625 6.78125 
Q 54.390625 -7.171875 48.1875 -13.984375 
Q 42 -20.796875 29.203125 -20.796875 
Q 24.46875 -20.796875 20.265625 -20.09375 
Q 16.0625 -19.390625 12.109375 -17.921875 
L 12.109375 -9.1875 
Q 16.0625 -11.328125 19.921875 -12.34375 
Q 23.78125 -13.375 27.78125 -13.375 
Q 36.625 -13.375 41.015625 -8.765625 
Q 45.40625 -4.15625 45.40625 5.171875 
L 45.40625 9.625 
Q 42.625 4.78125 38.28125 2.390625 
Q 33.9375 0 27.875 0 
Q 17.828125 0 11.671875 7.65625 
Q 5.515625 15.328125 5.515625 27.984375 
Q 5.515625 40.671875 11.671875 48.328125 
Q 17.828125 56 27.875 56 
Q 33.9375 56 38.28125 53.609375 
Q 42.625 51.21875 45.40625 46.390625 
L 45.40625 54.6875 
L 54.390625 54.6875 
z
" id="DejaVuSans-103"/>
      </defs>
      <use xlink:href="#DejaVuSans-98"/>
      <use x="63.476562" xlink:href="#DejaVuSans-97"/>
      <use x="124.755859" xlink:href="#DejaVuSans-99"/>
      <use x="179.736328" xlink:href="#DejaVuSans-107"/>
      <use x="237.646484" xlink:href="#DejaVuSans-103"/>
      <use x="301.123047" xlink:href="#DejaVuSans-114"/>
      <use x="339.986328" xlink:href="#DejaVuSans-111"/>
      <use x="401.167969" xlink:href="#DejaVuSans-117"/>
      <use x="464.546875" xlink:href="#DejaVuSans-110"/>
      <use x="527.925781" xlink:href="#DejaVuSans-100"/>
     </g>
    </g>
    <g id="patch_9">
     <path d="M 80.706875 43.123312 
L 92.706875 43.123312 
L 92.706875 38.923312 
L 80.706875 38.923312 
z
" style="fill:#dc9514;fill-opacity:0.25;stroke:#dc9514;stroke-linejoin:miter;"/>
    </g>
    <g id="text_19">
     <!-- selected -->
     <g transform="translate(97.506875 43.123312)scale(0.06 -0.06)">
      <defs>
       <path d="M 9.421875 75.984375 
L 18.40625 75.984375 
L 18.40625 0 
L 9.421875 0 
z
" id="DejaVuSans-108"/>
      </defs>
      <use xlink:href="#DejaVuSans-115"/>
      <use x="52.099609" xlink:href="#DejaVuSans-101"/>
      <use x="113.623047" xlink:href="#DejaVuSans-108"/>
      <use x="141.40625" xlink:href="#DejaVuSans-101"/>
      <use x="202.929688" xlink:href="#DejaVuSans-99"/>
      <use x="257.910156" xlink:href="#DejaVuSans-116"/>
      <use x="297.119141" xlink:href="#DejaVuSans-101"/>
      <use x="358.642578" xlink:href="#DejaVuSans-100"/>
     </g>
    </g>
   </g>
  </g>
 </g>
 <defs>
  <clipPath id="p463d255473">
   <rect height="108.72" width="111.6" x="26.792188" y="24.357375"/>
  </clipPath>
 </defs>
</svg>
