<?xml version="1.0" encoding="utf-8" standalone="no"?>
<!DOCTYPE svg PUBLIC "-//W3C//DTD SVG 1.1//EN"
  "http://www.w3.org/Graphics/SVG/1.1/DTD/svg11.dtd">
<!-- Created with matplotlib (https://matplotlib.org/) -->
<svg height="161.858937pt" version="1.1" viewBox="0 0 151.316562 161.858937" width="151.316562pt" xmlns="http://www.w3.org/2000/svg" xmlns:xlink="http://www.w3.org/1999/xlink">
 <metadata>
  <rdf:RDF xmlns:cc="http://creativecommons.org/ns#" xmlns:dc="http://purl.org/dc/elements/1.1/" xmlns:rdf="http://www.w3.org/1999/02/22-rdf-syntax-ns#">
   <cc:Work>
    <dc:type rdf:resource="http://purl.org/dc/dcmitype/StillImage"/>
    <dc:date>2022-06-26T15:42:28.298432</dc:date>
    <dc:format>image/svg+xml</dc:format>
    <dc:creator>
     <cc:Agent>
      <dc:title>Matplotlib v3.3.2, https://matplotlib.org/</dc:title>
     </cc:Agent>
    </dc:creator>
   </cc:Work>
  </rdf:RDF>
 </metadata>
 <defs>
  <style type="text/css">*{stroke-linecap:butt;stroke-linejoin:round;}</style>
 </defs>
 <g id="figure_1">
  <g id="patch_1">
   <path d="M 0 161.858937 
L 151.316562 161.858937 
L 151.316562 0 
L 0 0 
z
" style="fill:none;"/>
  </g>
  <g id="axes_1">
   <g id="patch_2">
    <path d="M 32.516562 133.077375 
L 144.116562 133.077375 
L 144.116562 24.357375 
L 32.516562 24.357375 
z
" style="fill:#ffffff;"/>
   </g>
   <g id="PolyCollection_1">
    <defs>
     <path d="M 41.264184 -29.932285 
L 41.264184 -28.781562 
L 41.737072 -28.781562 
L 42.20996 -28.781562 
L 42.682848 -28.781562 
L 43.155737 -28.781562 
L 43.628625 -28.781562 
L 44.101513 -28.781562 
L 44.574401 -28.781562 
L 45.04729 -28.781562 
L 45.520178 -28.781562 
L 45.993066 -28.781562 
L 46.465954 -28.781562 
L 46.938843 -28.781562 
L 47.411731 -28.781562 
L 47.884619 -28.781562 
L 48.357507 -28.781562 
L 48.830395 -28.781562 
L 49.303284 -28.781562 
L 49.776172 -28.781562 
L 50.24906 -28.781562 
L 50.721948 -28.781562 
L 51.194837 -28.781562 
L 51.667725 -28.781562 
L 52.140613 -28.781562 
L 52.613501 -28.781562 
L 53.086389 -28.781562 
L 53.559278 -28.781562 
L 54.032166 -28.781562 
L 54.505054 -28.781562 
L 54.977942 -28.781562 
L 55.450831 -28.781562 
L 55.923719 -28.781562 
L 56.396607 -28.781562 
L 56.869495 -28.781562 
L 57.342384 -28.781562 
L 57.815272 -28.781562 
L 58.28816 -28.781562 
L 58.761048 -28.781562 
L 59.233936 -28.781562 
L 59.706825 -28.781562 
L 60.179713 -28.781562 
L 60.652601 -28.781562 
L 61.125489 -28.781562 
L 61.598378 -28.781562 
L 62.071266 -28.781562 
L 62.544154 -28.781562 
L 63.017042 -28.781562 
L 63.489931 -28.781562 
L 63.962819 -28.781562 
L 64.435707 -28.781562 
L 64.908595 -28.781562 
L 65.381483 -28.781562 
L 65.854372 -28.781562 
L 66.32726 -28.781562 
L 66.800148 -28.781562 
L 67.273036 -28.781562 
L 67.745925 -28.781562 
L 68.218813 -28.781562 
L 68.691701 -28.781562 
L 69.164589 -28.781562 
L 69.637477 -28.781562 
L 70.110366 -28.781562 
L 70.583254 -28.781562 
L 71.056142 -28.781562 
L 71.52903 -28.781562 
L 72.001919 -28.781562 
L 72.474807 -28.781562 
L 72.947695 -28.781562 
L 73.420583 -28.781562 
L 73.893472 -28.781562 
L 74.36636 -28.781562 
L 74.839248 -28.781562 
L 75.312136 -28.781562 
L 75.785024 -28.781562 
L 76.257913 -28.781562 
L 76.730801 -28.781562 
L 77.203689 -28.781562 
L 77.676577 -28.781562 
L 78.149466 -28.781562 
L 78.622354 -28.781562 
L 79.095242 -28.781562 
L 79.56813 -28.781562 
L 80.041019 -28.781562 
L 80.513907 -28.781562 
L 80.986795 -28.781562 
L 81.459683 -28.781562 
L 81.932571 -28.781562 
L 82.40546 -28.781562 
L 82.878348 -28.781562 
L 83.351236 -28.781562 
L 83.824124 -28.781562 
L 84.297013 -28.781562 
L 84.769901 -28.781562 
L 85.242789 -28.781562 
L 85.715677 -28.781562 
L 86.188565 -28.781562 
L 86.661454 -28.781562 
L 87.134342 -28.781562 
L 87.60723 -28.781562 
L 88.080118 -28.781562 
L 88.553007 -28.781562 
L 89.025895 -28.781562 
L 89.498783 -28.781562 
L 89.971671 -28.781562 
L 90.44456 -28.781562 
L 90.917448 -28.781562 
L 91.390336 -28.781562 
L 91.863224 -28.781562 
L 92.336112 -28.781562 
L 92.809001 -28.781562 
L 93.281889 -28.781562 
L 93.754777 -28.781562 
L 94.227665 -28.781562 
L 94.700554 -28.781562 
L 95.173442 -28.781562 
L 95.64633 -28.781562 
L 96.119218 -28.781562 
L 96.592106 -28.781562 
L 97.064995 -28.781562 
L 97.537883 -28.781562 
L 98.010771 -28.781562 
L 98.483659 -28.781562 
L 98.956548 -28.781562 
L 99.429436 -28.781562 
L 99.902324 -28.781562 
L 100.375212 -28.781562 
L 100.848101 -28.781562 
L 101.320989 -28.781562 
L 101.793877 -28.781562 
L 102.266765 -28.781562 
L 102.739653 -28.781562 
L 103.212542 -28.781562 
L 103.68543 -28.781562 
L 104.158318 -28.781562 
L 104.631206 -28.781562 
L 105.104095 -28.781562 
L 105.576983 -28.781562 
L 106.049871 -28.781562 
L 106.522759 -28.781562 
L 106.995648 -28.781562 
L 107.468536 -28.781562 
L 107.941424 -28.781562 
L 108.414312 -28.781562 
L 108.8872 -28.781562 
L 109.360089 -28.781562 
L 109.832977 -28.781562 
L 110.305865 -28.781562 
L 110.778753 -28.781562 
L 111.251642 -28.781562 
L 111.72453 -28.781562 
L 112.197418 -28.781562 
L 112.670306 -28.781562 
L 113.143194 -28.781562 
L 113.616083 -28.781562 
L 114.088971 -28.781562 
L 114.561859 -28.781562 
L 115.034747 -28.781562 
L 115.507636 -28.781562 
L 115.980524 -28.781562 
L 116.453412 -28.781562 
L 116.9263 -28.781562 
L 117.399189 -28.781562 
L 117.872077 -28.781562 
L 118.344965 -28.781562 
L 118.817853 -28.781562 
L 119.290741 -28.781562 
L 119.76363 -28.781562 
L 120.236518 -28.781562 
L 120.709406 -28.781562 
L 121.182294 -28.781562 
L 121.655183 -28.781562 
L 122.128071 -28.781562 
L 122.600959 -28.781562 
L 123.073847 -28.781562 
L 123.546736 -28.781562 
L 124.019624 -28.781562 
L 124.492512 -28.781562 
L 124.9654 -28.781562 
L 125.438288 -28.781562 
L 125.911177 -28.781562 
L 126.384065 -28.781562 
L 126.856953 -28.781562 
L 127.329841 -28.781562 
L 127.80273 -28.781562 
L 128.275618 -28.781562 
L 128.748506 -28.781562 
L 129.221394 -28.781562 
L 129.694282 -28.781562 
L 130.167171 -28.781562 
L 130.640059 -28.781562 
L 131.112947 -28.781562 
L 131.585835 -28.781562 
L 132.058724 -28.781562 
L 132.531612 -28.781562 
L 133.0045 -28.781562 
L 133.477388 -28.781562 
L 133.950277 -28.781562 
L 134.423165 -28.781562 
L 134.896053 -28.781562 
L 135.368941 -28.781562 
L 135.368941 -28.781692 
L 135.368941 -28.781692 
L 134.896053 -28.781995 
L 134.423165 -28.782759 
L 133.950277 -28.784307 
L 133.477388 -28.786783 
L 133.0045 -28.789794 
L 132.531612 -28.792325 
L 132.058724 -28.793231 
L 131.585835 -28.792051 
L 131.112947 -28.78938 
L 130.640059 -28.786394 
L 130.167171 -28.784038 
L 129.694282 -28.782614 
L 129.221394 -28.781933 
L 128.748506 -28.781671 
L 128.275618 -28.781589 
L 127.80273 -28.781568 
L 127.329841 -28.781563 
L 126.856953 -28.781563 
L 126.384065 -28.781563 
L 125.911177 -28.781563 
L 125.438288 -28.781563 
L 124.9654 -28.781563 
L 124.492512 -28.781566 
L 124.019624 -28.781582 
L 123.546736 -28.781663 
L 123.073847 -28.782001 
L 122.600959 -28.783149 
L 122.128071 -28.786318 
L 121.655183 -28.793378 
L 121.182294 -28.805908 
L 120.709406 -28.823154 
L 120.236518 -28.840479 
L 119.76363 -28.850762 
L 119.290741 -28.848956 
L 118.817853 -28.835983 
L 118.344965 -28.818 
L 117.872077 -28.801792 
L 117.399189 -28.790875 
L 116.9263 -28.785117 
L 116.453412 -28.782687 
L 115.980524 -28.781858 
L 115.507636 -28.781627 
L 115.034747 -28.781574 
L 114.561859 -28.781564 
L 114.088971 -28.781563 
L 113.616083 -28.781563 
L 113.143194 -28.781563 
L 112.670306 -28.781563 
L 112.197418 -28.781564 
L 111.72453 -28.781574 
L 111.251642 -28.781626 
L 110.778753 -28.781865 
L 110.305865 -28.782756 
L 109.832977 -28.785465 
L 109.360089 -28.792138 
L 108.8872 -28.805329 
L 108.414312 -28.825847 
L 107.941424 -28.849984 
L 107.468536 -28.869216 
L 106.995648 -28.874672 
L 106.522759 -28.86357 
L 106.049871 -28.841453 
L 105.576983 -28.817829 
L 105.104095 -28.799772 
L 104.631206 -28.789143 
L 104.158318 -28.784179 
L 103.68543 -28.782312 
L 103.212542 -28.78174 
L 102.739653 -28.781597 
L 102.266765 -28.781568 
L 101.793877 -28.781563 
L 101.320989 -28.781563 
L 100.848101 -28.781563 
L 100.375212 -28.781563 
L 99.902324 -28.781565 
L 99.429436 -28.781583 
L 98.956548 -28.781691 
L 98.483659 -28.782224 
L 98.010771 -28.784397 
L 97.537883 -28.791625 
L 97.064995 -28.811186 
L 96.592106 -28.853873 
L 96.119218 -28.927917 
L 95.64633 -29.027172 
L 95.173442 -29.123326 
L 94.700554 -29.17588 
L 94.227665 -29.158791 
L 93.754777 -29.080792 
L 93.281889 -28.97837 
L 92.809001 -28.888892 
L 92.336112 -28.830096 
L 91.863224 -28.799759 
L 91.390336 -28.78722 
L 90.917448 -28.783021 
L 90.44456 -28.781874 
L 89.971671 -28.781618 
L 89.498783 -28.781571 
L 89.025895 -28.781563 
L 88.553007 -28.781563 
L 88.080118 -28.781563 
L 87.60723 -28.781564 
L 87.134342 -28.781577 
L 86.661454 -28.78166 
L 86.188565 -28.782109 
L 85.715677 -28.78411 
L 85.242789 -28.791416 
L 84.769901 -28.81316 
L 84.297013 -28.865576 
L 83.824124 -28.966782 
L 83.351236 -29.120143 
L 82.878348 -29.294753 
L 82.40546 -29.426524 
L 81.932571 -29.453655 
L 81.459683 -29.362278 
L 80.986795 -29.197605 
L 80.513907 -29.028707 
L 80.041019 -28.903295 
L 79.56813 -28.831279 
L 79.095242 -28.798398 
L 78.622354 -28.78629 
L 78.149466 -28.782663 
L 77.676577 -28.781775 
L 77.203689 -28.781597 
L 76.730801 -28.781567 
L 76.257913 -28.781563 
L 75.785024 -28.781563 
L 75.312136 -28.781566 
L 74.839248 -28.781589 
L 74.36636 -28.781761 
L 73.893472 -28.782778 
L 73.420583 -28.787729 
L 72.947695 -28.807494 
L 72.474807 -28.87198 
L 72.001919 -29.042968 
L 71.52903 -29.408202 
L 71.056142 -30.027109 
L 70.583254 -30.834338 
L 70.110366 -31.586751 
L 69.637477 -31.96006 
L 69.164589 -31.767776 
L 68.691701 -31.107826 
L 68.218813 -30.284138 
L 67.745925 -29.586297 
L 67.273036 -29.138925 
L 66.800148 -28.913147 
L 66.32726 -28.821736 
L 65.854372 -28.791732 
L 65.381483 -28.783697 
L 64.908595 -28.781934 
L 64.435707 -28.781616 
L 63.962819 -28.781569 
L 63.489931 -28.781563 
L 63.017042 -28.781565 
L 62.544154 -28.781584 
L 62.071266 -28.781734 
L 61.598378 -28.782708 
L 61.125489 -28.787892 
L 60.652601 -28.810558 
L 60.179713 -28.8917 
L 59.706825 -29.128447 
L 59.233936 -29.687449 
L 58.761048 -30.743123 
L 58.28816 -32.303398 
L 57.815272 -34.024513 
L 57.342384 -35.253314 
L 56.869495 -35.405364 
L 56.396607 -34.402803 
L 55.923719 -32.737017 
L 55.450831 -31.089372 
L 54.977942 -29.898022 
L 54.505054 -29.229405 
L 54.032166 -28.930515 
L 53.559278 -28.82264 
L 53.086389 -28.790956 
L 52.613501 -28.783343 
L 52.140613 -28.781842 
L 51.667725 -28.781599 
L 51.194837 -28.781567 
L 50.721948 -28.781575 
L 50.24906 -28.781686 
L 49.776172 -28.782637 
L 49.303284 -28.789344 
L 48.830395 -28.828292 
L 48.357507 -29.014245 
L 47.884619 -29.742227 
L 47.411731 -32.070225 
L 46.938843 -38.116377 
L 46.465954 -50.751609 
L 45.993066 -71.655666 
L 45.520178 -98.155754 
L 45.04729 -121.857975 
L 44.574401 -132.32442 
L 44.101513 -124.2895 
L 43.628625 -101.827758 
L 43.155737 -75.104335 
L 42.682848 -53.138927 
L 42.20996 -39.401082 
L 41.737072 -32.620564 
L 41.264184 -29.932285 
z
" id="m0a56487dad" style="stroke:#808080;"/>
    </defs>
    <g clip-path="url(#p995e84075e)">
     <use style="fill:#808080;fill-opacity:0.25;stroke:#808080;" x="0" xlink:href="#m0a56487dad" y="161.858937"/>
    </g>
   </g>
   <g id="PolyCollection_2">
    <defs>
     <path d="M 37.58929 -29.298168 
L 37.58929 -28.781562 
L 38.099112 -28.781562 
L 38.608933 -28.781562 
L 39.118755 -28.781562 
L 39.628577 -28.781562 
L 40.138399 -28.781562 
L 40.648221 -28.781562 
L 41.158043 -28.781562 
L 41.667864 -28.781562 
L 42.177686 -28.781562 
L 42.687508 -28.781562 
L 43.19733 -28.781562 
L 43.707152 -28.781562 
L 44.216974 -28.781562 
L 44.726795 -28.781562 
L 45.236617 -28.781562 
L 45.746439 -28.781562 
L 46.256261 -28.781562 
L 46.766083 -28.781562 
L 47.275905 -28.781562 
L 47.785727 -28.781562 
L 48.295548 -28.781562 
L 48.80537 -28.781562 
L 49.315192 -28.781562 
L 49.825014 -28.781562 
L 50.334836 -28.781562 
L 50.844658 -28.781562 
L 51.354479 -28.781562 
L 51.864301 -28.781562 
L 52.374123 -28.781562 
L 52.883945 -28.781562 
L 53.393767 -28.781562 
L 53.903589 -28.781562 
L 54.41341 -28.781562 
L 54.923232 -28.781562 
L 55.433054 -28.781562 
L 55.942876 -28.781562 
L 56.452698 -28.781562 
L 56.96252 -28.781562 
L 57.472341 -28.781562 
L 57.982163 -28.781562 
L 58.491985 -28.781562 
L 59.001807 -28.781562 
L 59.511629 -28.781562 
L 60.021451 -28.781562 
L 60.531272 -28.781562 
L 61.041094 -28.781562 
L 61.550916 -28.781562 
L 62.060738 -28.781562 
L 62.57056 -28.781562 
L 63.080382 -28.781562 
L 63.590203 -28.781562 
L 64.100025 -28.781562 
L 64.609847 -28.781562 
L 65.119669 -28.781562 
L 65.629491 -28.781562 
L 66.139313 -28.781562 
L 66.649134 -28.781562 
L 67.158956 -28.781562 
L 67.668778 -28.781562 
L 68.1786 -28.781562 
L 68.688422 -28.781562 
L 69.198244 -28.781562 
L 69.708065 -28.781562 
L 70.217887 -28.781562 
L 70.727709 -28.781562 
L 71.237531 -28.781562 
L 71.747353 -28.781562 
L 72.257175 -28.781562 
L 72.766996 -28.781562 
L 73.276818 -28.781562 
L 73.78664 -28.781562 
L 74.296462 -28.781562 
L 74.806284 -28.781562 
L 75.316106 -28.781562 
L 75.825928 -28.781562 
L 76.335749 -28.781562 
L 76.845571 -28.781562 
L 77.355393 -28.781562 
L 77.865215 -28.781562 
L 78.375037 -28.781562 
L 78.884859 -28.781562 
L 79.39468 -28.781562 
L 79.904502 -28.781562 
L 80.414324 -28.781562 
L 80.924146 -28.781562 
L 81.433968 -28.781562 
L 81.94379 -28.781562 
L 82.453611 -28.781562 
L 82.963433 -28.781562 
L 83.473255 -28.781562 
L 83.983077 -28.781562 
L 84.492899 -28.781562 
L 85.002721 -28.781562 
L 85.512542 -28.781562 
L 86.022364 -28.781562 
L 86.532186 -28.781562 
L 87.042008 -28.781562 
L 87.55183 -28.781562 
L 88.061652 -28.781562 
L 88.571473 -28.781562 
L 89.081295 -28.781562 
L 89.591117 -28.781562 
L 90.100939 -28.781562 
L 90.610761 -28.781562 
L 91.120583 -28.781562 
L 91.630404 -28.781562 
L 92.140226 -28.781562 
L 92.650048 -28.781562 
L 93.15987 -28.781562 
L 93.669692 -28.781562 
L 94.179514 -28.781562 
L 94.689335 -28.781562 
L 95.199157 -28.781562 
L 95.708979 -28.781562 
L 96.218801 -28.781562 
L 96.728623 -28.781562 
L 97.238445 -28.781562 
L 97.748266 -28.781562 
L 98.258088 -28.781562 
L 98.76791 -28.781562 
L 99.277732 -28.781562 
L 99.787554 -28.781562 
L 100.297376 -28.781562 
L 100.807197 -28.781562 
L 101.317019 -28.781562 
L 101.826841 -28.781562 
L 102.336663 -28.781562 
L 102.846485 -28.781562 
L 103.356307 -28.781562 
L 103.866129 -28.781562 
L 104.37595 -28.781562 
L 104.885772 -28.781562 
L 105.395594 -28.781562 
L 105.905416 -28.781562 
L 106.415238 -28.781562 
L 106.92506 -28.781562 
L 107.434881 -28.781562 
L 107.944703 -28.781562 
L 108.454525 -28.781562 
L 108.964347 -28.781562 
L 109.474169 -28.781562 
L 109.983991 -28.781562 
L 110.493812 -28.781562 
L 111.003634 -28.781562 
L 111.513456 -28.781562 
L 112.023278 -28.781562 
L 112.5331 -28.781562 
L 113.042922 -28.781562 
L 113.552743 -28.781562 
L 114.062565 -28.781562 
L 114.572387 -28.781562 
L 115.082209 -28.781562 
L 115.592031 -28.781562 
L 116.101853 -28.781562 
L 116.611674 -28.781562 
L 117.121496 -28.781562 
L 117.631318 -28.781562 
L 118.14114 -28.781562 
L 118.650962 -28.781562 
L 119.160784 -28.781562 
L 119.670605 -28.781562 
L 120.180427 -28.781562 
L 120.690249 -28.781562 
L 121.200071 -28.781562 
L 121.709893 -28.781562 
L 122.219715 -28.781562 
L 122.729536 -28.781562 
L 123.239358 -28.781562 
L 123.74918 -28.781562 
L 124.259002 -28.781562 
L 124.768824 -28.781562 
L 125.278646 -28.781562 
L 125.788467 -28.781562 
L 126.298289 -28.781562 
L 126.808111 -28.781562 
L 127.317933 -28.781562 
L 127.827755 -28.781562 
L 128.337577 -28.781562 
L 128.847398 -28.781562 
L 129.35722 -28.781562 
L 129.867042 -28.781562 
L 130.376864 -28.781562 
L 130.886686 -28.781562 
L 131.396508 -28.781562 
L 131.90633 -28.781562 
L 132.416151 -28.781562 
L 132.925973 -28.781562 
L 133.435795 -28.781562 
L 133.945617 -28.781562 
L 134.455439 -28.781562 
L 134.965261 -28.781562 
L 135.475082 -28.781562 
L 135.984904 -28.781562 
L 136.494726 -28.781562 
L 137.004548 -28.781562 
L 137.51437 -28.781562 
L 138.024192 -28.781562 
L 138.534013 -28.781562 
L 139.043835 -28.781562 
L 139.043835 -28.781894 
L 139.043835 -28.781894 
L 138.534013 -28.782189 
L 138.024192 -28.78269 
L 137.51437 -28.783495 
L 137.004548 -28.784719 
L 136.494726 -28.786474 
L 135.984904 -28.788845 
L 135.475082 -28.791849 
L 134.965261 -28.795406 
L 134.455439 -28.799314 
L 133.945617 -28.803249 
L 133.435795 -28.806804 
L 132.925973 -28.809555 
L 132.416151 -28.811138 
L 131.90633 -28.811335 
L 131.396508 -28.810118 
L 130.886686 -28.807657 
L 130.376864 -28.804284 
L 129.867042 -28.800417 
L 129.35722 -28.796481 
L 128.847398 -28.792838 
L 128.337577 -28.789753 
L 127.827755 -28.787387 
L 127.317933 -28.785837 
L 126.808111 -28.785194 
L 126.298289 -28.785606 
L 125.788467 -28.787337 
L 125.278646 -28.790807 
L 124.768824 -28.796579 
L 124.259002 -28.805293 
L 123.74918 -28.817525 
L 123.239358 -28.833592 
L 122.729536 -28.853326 
L 122.219715 -28.875887 
L 121.709893 -28.899689 
L 121.200071 -28.922512 
L 120.690249 -28.9418 
L 120.180427 -28.955122 
L 119.670605 -28.960671 
L 119.160784 -28.957666 
L 118.650962 -28.946531 
L 118.14114 -28.928801 
L 117.631318 -28.90677 
L 117.121496 -28.883012 
L 116.611674 -28.859894 
L 116.101853 -28.839224 
L 115.592031 -28.822088 
L 115.082209 -28.808884 
L 114.572387 -28.799498 
L 114.062565 -28.793539 
L 113.552743 -28.790576 
L 113.042922 -28.790308 
L 112.5331 -28.792656 
L 112.023278 -28.797767 
L 111.513456 -28.805916 
L 111.003634 -28.81735 
L 110.493812 -28.832079 
L 109.983991 -28.849673 
L 109.474169 -28.869124 
L 108.964347 -28.888836 
L 108.454525 -28.906787 
L 107.944703 -28.92084 
L 107.434881 -28.929152 
L 106.92506 -28.930572 
L 106.415238 -28.924899 
L 105.905416 -28.912931 
L 105.395594 -28.89628 
L 104.885772 -28.877022 
L 104.37595 -28.857285 
L 103.866129 -28.838889 
L 103.356307 -28.823143 
L 102.846485 -28.810816 
L 102.336663 -28.802271 
L 101.826841 -28.797716 
L 101.317019 -28.797486 
L 100.807197 -28.802303 
L 100.297376 -28.813436 
L 99.787554 -28.832701 
L 99.277732 -28.862242 
L 98.76791 -28.904055 
L 98.258088 -28.959302 
L 97.748266 -29.027515 
L 97.238445 -29.105924 
L 96.728623 -29.189157 
L 96.218801 -29.269564 
L 95.708979 -29.338236 
L 95.199157 -29.386575 
L 94.689335 -29.408048 
L 94.179514 -29.399637 
L 93.669692 -29.362534 
L 93.15987 -29.301864 
L 92.650048 -29.225528 
L 92.140226 -29.142526 
L 91.630404 -29.061255 
L 91.120583 -28.988232 
L 90.610761 -28.927495 
L 90.100939 -28.880693 
L 89.591117 -28.847706 
L 89.081295 -28.827517 
L 88.571473 -28.819081 
L 88.061652 -28.821992 
L 87.55183 -28.836834 
L 87.042008 -28.865138 
L 86.532186 -28.908942 
L 86.022364 -28.96998 
L 85.512542 -29.048635 
L 85.002721 -29.142881 
L 84.492899 -29.247543 
L 83.983077 -29.354226 
L 83.473255 -29.452121 
L 82.963433 -29.529669 
L 82.453611 -29.576759 
L 81.94379 -29.586885 
L 81.433968 -29.558613 
L 80.924146 -29.49592 
L 80.414324 -29.407278 
L 79.904502 -29.303795 
L 79.39468 -29.196968 
L 78.884859 -29.096713 
L 78.375037 -29.010137 
L 77.865215 -28.941264 
L 77.355393 -28.891616 
L 76.845571 -28.861357 
L 76.335749 -28.850655 
L 75.825928 -28.860898 
L 75.316106 -28.895505 
L 74.806284 -28.960061 
L 74.296462 -29.061619 
L 73.78664 -29.207055 
L 73.276818 -29.400597 
L 72.766996 -29.640961 
L 72.257175 -29.918832 
L 71.747353 -30.215656 
L 71.237531 -30.504596 
L 70.727709 -30.753979 
L 70.217887 -30.932798 
L 69.708065 -31.016991 
L 69.198244 -30.994744 
L 68.688422 -30.869211 
L 68.1786 -30.657785 
L 67.668778 -30.388159 
L 67.158956 -30.092415 
L 66.649134 -29.800906 
L 66.139313 -29.537558 
L 65.629491 -29.317565 
L 65.119669 -29.147611 
L 64.609847 -29.028044 
L 64.100025 -28.956057 
L 63.590203 -28.928934 
L 63.080382 -28.94661 
L 62.57056 -29.013024 
L 62.060738 -29.135969 
L 61.550916 -29.32527 
L 61.041094 -29.589393 
L 60.531272 -29.930962 
L 60.021451 -30.342134 
L 59.511629 -30.801262 
L 59.001807 -31.272344 
L 58.491985 -31.708321 
L 57.982163 -32.058189 
L 57.472341 -32.276601 
L 56.96252 -32.333473 
L 56.452698 -32.220784 
L 55.942876 -31.954477 
L 55.433054 -31.570862 
L 54.923232 -31.118775 
L 54.41341 -30.650022 
L 53.903589 -30.211137 
L 53.393767 -29.838879 
L 52.883945 -29.560787 
L 52.374123 -29.400812 
L 51.864301 -29.389028 
L 51.354479 -29.573579 
L 50.844658 -30.03227 
L 50.334836 -30.880177 
L 49.825014 -32.268658 
L 49.315192 -34.370791 
L 48.80537 -37.349723 
L 48.295548 -41.310566 
L 47.785727 -46.243169 
L 47.275905 -51.970573 
L 46.766083 -58.122741 
L 46.256261 -64.153601 
L 45.746439 -69.409684 
L 45.236617 -73.242291 
L 44.726795 -75.137919 
L 44.216974 -74.831052 
L 43.707152 -72.365166 
L 43.19733 -68.082618 
L 42.687508 -62.546664 
L 42.177686 -56.420075 
L 41.667864 -50.336365 
L 41.158043 -44.797641 
L 40.648221 -40.119945 
L 40.138399 -36.429226 
L 39.628577 -33.696175 
L 39.118755 -31.790634 
L 38.608933 -30.536891 
L 38.099112 -29.757152 
L 37.58929 -29.298168 
z
" id="m1eaa1d0fe8" style="stroke:#dc9514;"/>
    </defs>
    <g clip-path="url(#p995e84075e)">
     <use style="fill:#dc9514;fill-opacity:0.25;stroke:#dc9514;" x="0" xlink:href="#m1eaa1d0fe8" y="161.858937"/>
    </g>
   </g>
   <g id="matplotlib.axis_1">
    <g id="xtick_1">
     <g id="line2d_1">
      <defs>
       <path d="M 0 0 
L 0 3.5 
" id="m3ceb2c323a" style="stroke:#000000;stroke-width:0.8;"/>
      </defs>
      <g>
       <use style="stroke:#000000;stroke-width:0.8;" x="44.541839" xlink:href="#m3ceb2c323a" y="133.077375"/>
      </g>
     </g>
     <g id="text_1">
      <!-- 0 -->
      <g transform="translate(42.633089 144.636437)scale(0.06 -0.06)">
       <defs>
        <path d="M 31.78125 66.40625 
Q 24.171875 66.40625 20.328125 58.90625 
Q 16.5 51.421875 16.5 36.375 
Q 16.5 21.390625 20.328125 13.890625 
Q 24.171875 6.390625 31.78125 6.390625 
Q 39.453125 6.390625 43.28125 13.890625 
Q 47.125 21.390625 47.125 36.375 
Q 47.125 51.421875 43.28125 58.90625 
Q 39.453125 66.40625 31.78125 66.40625 
z
M 31.78125 74.21875 
Q 44.046875 74.21875 50.515625 64.515625 
Q 56.984375 54.828125 56.984375 36.375 
Q 56.984375 17.96875 50.515625 8.265625 
Q 44.046875 -1.421875 31.78125 -1.421875 
Q 19.53125 -1.421875 13.0625 8.265625 
Q 6.59375 17.96875 6.59375 36.375 
Q 6.59375 54.828125 13.0625 64.515625 
Q 19.53125 74.21875 31.78125 74.21875 
z
" id="DejaVuSans-48"/>
       </defs>
       <use xlink:href="#DejaVuSans-48"/>
      </g>
     </g>
    </g>
    <g id="xtick_2">
     <g id="line2d_2">
      <g>
       <use style="stroke:#000000;stroke-width:0.8;" x="69.563507" xlink:href="#m3ceb2c323a" y="133.077375"/>
      </g>
     </g>
     <g id="text_2">
      <!-- 2 -->
      <g transform="translate(67.654757 144.636437)scale(0.06 -0.06)">
       <defs>
        <path d="M 19.1875 8.296875 
L 53.609375 8.296875 
L 53.609375 0 
L 7.328125 0 
L 7.328125 8.296875 
Q 12.9375 14.109375 22.625 23.890625 
Q 32.328125 33.6875 34.8125 36.53125 
Q 39.546875 41.84375 41.421875 45.53125 
Q 43.3125 49.21875 43.3125 52.78125 
Q 43.3125 58.59375 39.234375 62.25 
Q 35.15625 65.921875 28.609375 65.921875 
Q 23.96875 65.921875 18.8125 64.3125 
Q 13.671875 62.703125 7.8125 59.421875 
L 7.8125 69.390625 
Q 13.765625 71.78125 18.9375 73 
Q 24.125 74.21875 28.421875 74.21875 
Q 39.75 74.21875 46.484375 68.546875 
Q 53.21875 62.890625 53.21875 53.421875 
Q 53.21875 48.921875 51.53125 44.890625 
Q 49.859375 40.875 45.40625 35.40625 
Q 44.1875 33.984375 37.640625 27.21875 
Q 31.109375 20.453125 19.1875 8.296875 
z
" id="DejaVuSans-50"/>
       </defs>
       <use xlink:href="#DejaVuSans-50"/>
      </g>
     </g>
    </g>
    <g id="xtick_3">
     <g id="line2d_3">
      <g>
       <use style="stroke:#000000;stroke-width:0.8;" x="94.585175" xlink:href="#m3ceb2c323a" y="133.077375"/>
      </g>
     </g>
     <g id="text_3">
      <!-- 4 -->
      <g transform="translate(92.676425 144.636437)scale(0.06 -0.06)">
       <defs>
        <path d="M 37.796875 64.3125 
L 12.890625 25.390625 
L 37.796875 25.390625 
z
M 35.203125 72.90625 
L 47.609375 72.90625 
L 47.609375 25.390625 
L 58.015625 25.390625 
L 58.015625 17.1875 
L 47.609375 17.1875 
L 47.609375 0 
L 37.796875 0 
L 37.796875 17.1875 
L 4.890625 17.1875 
L 4.890625 26.703125 
z
" id="DejaVuSans-52"/>
       </defs>
       <use xlink:href="#DejaVuSans-52"/>
      </g>
     </g>
    </g>
    <g id="xtick_4">
     <g id="line2d_4">
      <g>
       <use style="stroke:#000000;stroke-width:0.8;" x="119.606843" xlink:href="#m3ceb2c323a" y="133.077375"/>
      </g>
     </g>
     <g id="text_4">
      <!-- 6 -->
      <g transform="translate(117.698093 144.636437)scale(0.06 -0.06)">
       <defs>
        <path d="M 33.015625 40.375 
Q 26.375 40.375 22.484375 35.828125 
Q 18.609375 31.296875 18.609375 23.390625 
Q 18.609375 15.53125 22.484375 10.953125 
Q 26.375 6.390625 33.015625 6.390625 
Q 39.65625 6.390625 43.53125 10.953125 
Q 47.40625 15.53125 47.40625 23.390625 
Q 47.40625 31.296875 43.53125 35.828125 
Q 39.65625 40.375 33.015625 40.375 
z
M 52.59375 71.296875 
L 52.59375 62.3125 
Q 48.875 64.0625 45.09375 64.984375 
Q 41.3125 65.921875 37.59375 65.921875 
Q 27.828125 65.921875 22.671875 59.328125 
Q 17.53125 52.734375 16.796875 39.40625 
Q 19.671875 43.65625 24.015625 45.921875 
Q 28.375 48.1875 33.59375 48.1875 
Q 44.578125 48.1875 50.953125 41.515625 
Q 57.328125 34.859375 57.328125 23.390625 
Q 57.328125 12.15625 50.6875 5.359375 
Q 44.046875 -1.421875 33.015625 -1.421875 
Q 20.359375 -1.421875 13.671875 8.265625 
Q 6.984375 17.96875 6.984375 36.375 
Q 6.984375 53.65625 15.1875 63.9375 
Q 23.390625 74.21875 37.203125 74.21875 
Q 40.921875 74.21875 44.703125 73.484375 
Q 48.484375 72.75 52.59375 71.296875 
z
" id="DejaVuSans-54"/>
       </defs>
       <use xlink:href="#DejaVuSans-54"/>
      </g>
     </g>
    </g>
    <g id="text_5">
     <!-- Predicted occupancy (a.u.) -->
     <g transform="translate(41.554375 153.203156)scale(0.07 -0.07)">
      <defs>
       <path d="M 19.671875 64.796875 
L 19.671875 37.40625 
L 32.078125 37.40625 
Q 38.96875 37.40625 42.71875 40.96875 
Q 46.484375 44.53125 46.484375 51.125 
Q 46.484375 57.671875 42.71875 61.234375 
Q 38.96875 64.796875 32.078125 64.796875 
z
M 9.8125 72.90625 
L 32.078125 72.90625 
Q 44.34375 72.90625 50.609375 67.359375 
Q 56.890625 61.8125 56.890625 51.125 
Q 56.890625 40.328125 50.609375 34.8125 
Q 44.34375 29.296875 32.078125 29.296875 
L 19.671875 29.296875 
L 19.671875 0 
L 9.8125 0 
z
" id="DejaVuSans-80"/>
       <path d="M 41.109375 46.296875 
Q 39.59375 47.171875 37.8125 47.578125 
Q 36.03125 48 33.890625 48 
Q 26.265625 48 22.1875 43.046875 
Q 18.109375 38.09375 18.109375 28.8125 
L 18.109375 0 
L 9.078125 0 
L 9.078125 54.6875 
L 18.109375 54.6875 
L 18.109375 46.1875 
Q 20.953125 51.171875 25.484375 53.578125 
Q 30.03125 56 36.53125 56 
Q 37.453125 56 38.578125 55.875 
Q 39.703125 55.765625 41.0625 55.515625 
z
" id="DejaVuSans-114"/>
       <path d="M 56.203125 29.59375 
L 56.203125 25.203125 
L 14.890625 25.203125 
Q 15.484375 15.921875 20.484375 11.0625 
Q 25.484375 6.203125 34.421875 6.203125 
Q 39.59375 6.203125 44.453125 7.46875 
Q 49.3125 8.734375 54.109375 11.28125 
L 54.109375 2.78125 
Q 49.265625 0.734375 44.1875 -0.34375 
Q 39.109375 -1.421875 33.890625 -1.421875 
Q 20.796875 -1.421875 13.15625 6.1875 
Q 5.515625 13.8125 5.515625 26.8125 
Q 5.515625 40.234375 12.765625 48.109375 
Q 20.015625 56 32.328125 56 
Q 43.359375 56 49.78125 48.890625 
Q 56.203125 41.796875 56.203125 29.59375 
z
M 47.21875 32.234375 
Q 47.125 39.59375 43.09375 43.984375 
Q 39.0625 48.390625 32.421875 48.390625 
Q 24.90625 48.390625 20.390625 44.140625 
Q 15.875 39.890625 15.1875 32.171875 
z
" id="DejaVuSans-101"/>
       <path d="M 45.40625 46.390625 
L 45.40625 75.984375 
L 54.390625 75.984375 
L 54.390625 0 
L 45.40625 0 
L 45.40625 8.203125 
Q 42.578125 3.328125 38.25 0.953125 
Q 33.9375 -1.421875 27.875 -1.421875 
Q 17.96875 -1.421875 11.734375 6.484375 
Q 5.515625 14.40625 5.515625 27.296875 
Q 5.515625 40.1875 11.734375 48.09375 
Q 17.96875 56 27.875 56 
Q 33.9375 56 38.25 53.625 
Q 42.578125 51.265625 45.40625 46.390625 
z
M 14.796875 27.296875 
Q 14.796875 17.390625 18.875 11.75 
Q 22.953125 6.109375 30.078125 6.109375 
Q 37.203125 6.109375 41.296875 11.75 
Q 45.40625 17.390625 45.40625 27.296875 
Q 45.40625 37.203125 41.296875 42.84375 
Q 37.203125 48.484375 30.078125 48.484375 
Q 22.953125 48.484375 18.875 42.84375 
Q 14.796875 37.203125 14.796875 27.296875 
z
" id="DejaVuSans-100"/>
       <path d="M 9.421875 54.6875 
L 18.40625 54.6875 
L 18.40625 0 
L 9.421875 0 
z
M 9.421875 75.984375 
L 18.40625 75.984375 
L 18.40625 64.59375 
L 9.421875 64.59375 
z
" id="DejaVuSans-105"/>
       <path d="M 48.78125 52.59375 
L 48.78125 44.1875 
Q 44.96875 46.296875 41.140625 47.34375 
Q 37.3125 48.390625 33.40625 48.390625 
Q 24.65625 48.390625 19.8125 42.84375 
Q 14.984375 37.3125 14.984375 27.296875 
Q 14.984375 17.28125 19.8125 11.734375 
Q 24.65625 6.203125 33.40625 6.203125 
Q 37.3125 6.203125 41.140625 7.25 
Q 44.96875 8.296875 48.78125 10.40625 
L 48.78125 2.09375 
Q 45.015625 0.34375 40.984375 -0.53125 
Q 36.96875 -1.421875 32.421875 -1.421875 
Q 20.0625 -1.421875 12.78125 6.34375 
Q 5.515625 14.109375 5.515625 27.296875 
Q 5.515625 40.671875 12.859375 48.328125 
Q 20.21875 56 33.015625 56 
Q 37.15625 56 41.109375 55.140625 
Q 45.0625 54.296875 48.78125 52.59375 
z
" id="DejaVuSans-99"/>
       <path d="M 18.3125 70.21875 
L 18.3125 54.6875 
L 36.8125 54.6875 
L 36.8125 47.703125 
L 18.3125 47.703125 
L 18.3125 18.015625 
Q 18.3125 11.328125 20.140625 9.421875 
Q 21.96875 7.515625 27.59375 7.515625 
L 36.8125 7.515625 
L 36.8125 0 
L 27.59375 0 
Q 17.1875 0 13.234375 3.875 
Q 9.28125 7.765625 9.28125 18.015625 
L 9.28125 47.703125 
L 2.6875 47.703125 
L 2.6875 54.6875 
L 9.28125 54.6875 
L 9.28125 70.21875 
z
" id="DejaVuSans-116"/>
       <path id="DejaVuSans-32"/>
       <path d="M 30.609375 48.390625 
Q 23.390625 48.390625 19.1875 42.75 
Q 14.984375 37.109375 14.984375 27.296875 
Q 14.984375 17.484375 19.15625 11.84375 
Q 23.34375 6.203125 30.609375 6.203125 
Q 37.796875 6.203125 41.984375 11.859375 
Q 46.1875 17.53125 46.1875 27.296875 
Q 46.1875 37.015625 41.984375 42.703125 
Q 37.796875 48.390625 30.609375 48.390625 
z
M 30.609375 56 
Q 42.328125 56 49.015625 48.375 
Q 55.71875 40.765625 55.71875 27.296875 
Q 55.71875 13.875 49.015625 6.21875 
Q 42.328125 -1.421875 30.609375 -1.421875 
Q 18.84375 -1.421875 12.171875 6.21875 
Q 5.515625 13.875 5.515625 27.296875 
Q 5.515625 40.765625 12.171875 48.375 
Q 18.84375 56 30.609375 56 
z
" id="DejaVuSans-111"/>
       <path d="M 8.5 21.578125 
L 8.5 54.6875 
L 17.484375 54.6875 
L 17.484375 21.921875 
Q 17.484375 14.15625 20.5 10.265625 
Q 23.53125 6.390625 29.59375 6.390625 
Q 36.859375 6.390625 41.078125 11.03125 
Q 45.3125 15.671875 45.3125 23.6875 
L 45.3125 54.6875 
L 54.296875 54.6875 
L 54.296875 0 
L 45.3125 0 
L 45.3125 8.40625 
Q 42.046875 3.421875 37.71875 1 
Q 33.40625 -1.421875 27.6875 -1.421875 
Q 18.265625 -1.421875 13.375 4.4375 
Q 8.5 10.296875 8.5 21.578125 
z
M 31.109375 56 
z
" id="DejaVuSans-117"/>
       <path d="M 18.109375 8.203125 
L 18.109375 -20.796875 
L 9.078125 -20.796875 
L 9.078125 54.6875 
L 18.109375 54.6875 
L 18.109375 46.390625 
Q 20.953125 51.265625 25.265625 53.625 
Q 29.59375 56 35.59375 56 
Q 45.5625 56 51.78125 48.09375 
Q 58.015625 40.1875 58.015625 27.296875 
Q 58.015625 14.40625 51.78125 6.484375 
Q 45.5625 -1.421875 35.59375 -1.421875 
Q 29.59375 -1.421875 25.265625 0.953125 
Q 20.953125 3.328125 18.109375 8.203125 
z
M 48.6875 27.296875 
Q 48.6875 37.203125 44.609375 42.84375 
Q 40.53125 48.484375 33.40625 48.484375 
Q 26.265625 48.484375 22.1875 42.84375 
Q 18.109375 37.203125 18.109375 27.296875 
Q 18.109375 17.390625 22.1875 11.75 
Q 26.265625 6.109375 33.40625 6.109375 
Q 40.53125 6.109375 44.609375 11.75 
Q 48.6875 17.390625 48.6875 27.296875 
z
" id="DejaVuSans-112"/>
       <path d="M 34.28125 27.484375 
Q 23.390625 27.484375 19.1875 25 
Q 14.984375 22.515625 14.984375 16.5 
Q 14.984375 11.71875 18.140625 8.90625 
Q 21.296875 6.109375 26.703125 6.109375 
Q 34.1875 6.109375 38.703125 11.40625 
Q 43.21875 16.703125 43.21875 25.484375 
L 43.21875 27.484375 
z
M 52.203125 31.203125 
L 52.203125 0 
L 43.21875 0 
L 43.21875 8.296875 
Q 40.140625 3.328125 35.546875 0.953125 
Q 30.953125 -1.421875 24.3125 -1.421875 
Q 15.921875 -1.421875 10.953125 3.296875 
Q 6 8.015625 6 15.921875 
Q 6 25.140625 12.171875 29.828125 
Q 18.359375 34.515625 30.609375 34.515625 
L 43.21875 34.515625 
L 43.21875 35.40625 
Q 43.21875 41.609375 39.140625 45 
Q 35.0625 48.390625 27.6875 48.390625 
Q 23 48.390625 18.546875 47.265625 
Q 14.109375 46.140625 10.015625 43.890625 
L 10.015625 52.203125 
Q 14.9375 54.109375 19.578125 55.046875 
Q 24.21875 56 28.609375 56 
Q 40.484375 56 46.34375 49.84375 
Q 52.203125 43.703125 52.203125 31.203125 
z
" id="DejaVuSans-97"/>
       <path d="M 54.890625 33.015625 
L 54.890625 0 
L 45.90625 0 
L 45.90625 32.71875 
Q 45.90625 40.484375 42.875 44.328125 
Q 39.84375 48.1875 33.796875 48.1875 
Q 26.515625 48.1875 22.3125 43.546875 
Q 18.109375 38.921875 18.109375 30.90625 
L 18.109375 0 
L 9.078125 0 
L 9.078125 54.6875 
L 18.109375 54.6875 
L 18.109375 46.1875 
Q 21.34375 51.125 25.703125 53.5625 
Q 30.078125 56 35.796875 56 
Q 45.21875 56 50.046875 50.171875 
Q 54.890625 44.34375 54.890625 33.015625 
z
" id="DejaVuSans-110"/>
       <path d="M 32.171875 -5.078125 
Q 28.375 -14.84375 24.75 -17.8125 
Q 21.140625 -20.796875 15.09375 -20.796875 
L 7.90625 -20.796875 
L 7.90625 -13.28125 
L 13.1875 -13.28125 
Q 16.890625 -13.28125 18.9375 -11.515625 
Q 21 -9.765625 23.484375 -3.21875 
L 25.09375 0.875 
L 2.984375 54.6875 
L 12.5 54.6875 
L 29.59375 11.921875 
L 46.6875 54.6875 
L 56.203125 54.6875 
z
" id="DejaVuSans-121"/>
       <path d="M 31 75.875 
Q 24.46875 64.65625 21.28125 53.65625 
Q 18.109375 42.671875 18.109375 31.390625 
Q 18.109375 20.125 21.3125 9.0625 
Q 24.515625 -2 31 -13.1875 
L 23.1875 -13.1875 
Q 15.875 -1.703125 12.234375 9.375 
Q 8.59375 20.453125 8.59375 31.390625 
Q 8.59375 42.28125 12.203125 53.3125 
Q 15.828125 64.359375 23.1875 75.875 
z
" id="DejaVuSans-40"/>
       <path d="M 10.6875 12.40625 
L 21 12.40625 
L 21 0 
L 10.6875 0 
z
" id="DejaVuSans-46"/>
       <path d="M 8.015625 75.875 
L 15.828125 75.875 
Q 23.140625 64.359375 26.78125 53.3125 
Q 30.421875 42.28125 30.421875 31.390625 
Q 30.421875 20.453125 26.78125 9.375 
Q 23.140625 -1.703125 15.828125 -13.1875 
L 8.015625 -13.1875 
Q 14.5 -2 17.703125 9.0625 
Q 20.90625 20.125 20.90625 31.390625 
Q 20.90625 42.671875 17.703125 53.65625 
Q 14.5 64.65625 8.015625 75.875 
z
" id="DejaVuSans-41"/>
      </defs>
      <use xlink:href="#DejaVuSans-80"/>
      <use x="58.552734" xlink:href="#DejaVuSans-114"/>
      <use x="97.416016" xlink:href="#DejaVuSans-101"/>
      <use x="158.939453" xlink:href="#DejaVuSans-100"/>
      <use x="222.416016" xlink:href="#DejaVuSans-105"/>
      <use x="250.199219" xlink:href="#DejaVuSans-99"/>
      <use x="305.179688" xlink:href="#DejaVuSans-116"/>
      <use x="344.388672" xlink:href="#DejaVuSans-101"/>
      <use x="405.912109" xlink:href="#DejaVuSans-100"/>
      <use x="469.388672" xlink:href="#DejaVuSans-32"/>
      <use x="501.175781" xlink:href="#DejaVuSans-111"/>
      <use x="562.357422" xlink:href="#DejaVuSans-99"/>
      <use x="617.337891" xlink:href="#DejaVuSans-99"/>
      <use x="672.318359" xlink:href="#DejaVuSans-117"/>
      <use x="735.697266" xlink:href="#DejaVuSans-112"/>
      <use x="799.173828" xlink:href="#DejaVuSans-97"/>
      <use x="860.453125" xlink:href="#DejaVuSans-110"/>
      <use x="923.832031" xlink:href="#DejaVuSans-99"/>
      <use x="978.8125" xlink:href="#DejaVuSans-121"/>
      <use x="1037.992188" xlink:href="#DejaVuSans-32"/>
      <use x="1069.779297" xlink:href="#DejaVuSans-40"/>
      <use x="1108.792969" xlink:href="#DejaVuSans-97"/>
      <use x="1170.072266" xlink:href="#DejaVuSans-46"/>
      <use x="1201.859375" xlink:href="#DejaVuSans-117"/>
      <use x="1265.238281" xlink:href="#DejaVuSans-46"/>
      <use x="1297.025391" xlink:href="#DejaVuSans-41"/>
     </g>
    </g>
   </g>
   <g id="matplotlib.axis_2">
    <g id="ytick_1">
     <g id="line2d_5">
      <defs>
       <path d="M 0 0 
L -3.5 0 
" id="m7e99dd061c" style="stroke:#000000;stroke-width:0.8;"/>
      </defs>
      <g>
       <use style="stroke:#000000;stroke-width:0.8;" x="32.516562" xlink:href="#m7e99dd061c" y="133.077375"/>
      </g>
     </g>
     <g id="text_6">
      <!-- 0.0 -->
      <g transform="translate(15.974687 135.356906)scale(0.06 -0.06)">
       <use xlink:href="#DejaVuSans-48"/>
       <use x="63.623047" xlink:href="#DejaVuSans-46"/>
       <use x="95.410156" xlink:href="#DejaVuSans-48"/>
      </g>
     </g>
    </g>
    <g id="ytick_2">
     <g id="line2d_6">
      <g>
       <use style="stroke:#000000;stroke-width:0.8;" x="32.516562" xlink:href="#m7e99dd061c" y="120.519433"/>
      </g>
     </g>
     <g id="text_7">
      <!-- 0.5 -->
      <g transform="translate(15.974687 122.798964)scale(0.06 -0.06)">
       <defs>
        <path d="M 10.796875 72.90625 
L 49.515625 72.90625 
L 49.515625 64.59375 
L 19.828125 64.59375 
L 19.828125 46.734375 
Q 21.96875 47.46875 24.109375 47.828125 
Q 26.265625 48.1875 28.421875 48.1875 
Q 40.625 48.1875 47.75 41.5 
Q 54.890625 34.8125 54.890625 23.390625 
Q 54.890625 11.625 47.5625 5.09375 
Q 40.234375 -1.421875 26.90625 -1.421875 
Q 22.3125 -1.421875 17.546875 -0.640625 
Q 12.796875 0.140625 7.71875 1.703125 
L 7.71875 11.625 
Q 12.109375 9.234375 16.796875 8.0625 
Q 21.484375 6.890625 26.703125 6.890625 
Q 35.15625 6.890625 40.078125 11.328125 
Q 45.015625 15.765625 45.015625 23.390625 
Q 45.015625 31 40.078125 35.4375 
Q 35.15625 39.890625 26.703125 39.890625 
Q 22.75 39.890625 18.8125 39.015625 
Q 14.890625 38.140625 10.796875 36.28125 
z
" id="DejaVuSans-53"/>
       </defs>
       <use xlink:href="#DejaVuSans-48"/>
       <use x="63.623047" xlink:href="#DejaVuSans-46"/>
       <use x="95.410156" xlink:href="#DejaVuSans-53"/>
      </g>
     </g>
    </g>
    <g id="ytick_3">
     <g id="line2d_7">
      <g>
       <use style="stroke:#000000;stroke-width:0.8;" x="32.516562" xlink:href="#m7e99dd061c" y="107.961491"/>
      </g>
     </g>
     <g id="text_8">
      <!-- 1.0 -->
      <g transform="translate(15.974687 110.241023)scale(0.06 -0.06)">
       <defs>
        <path d="M 12.40625 8.296875 
L 28.515625 8.296875 
L 28.515625 63.921875 
L 10.984375 60.40625 
L 10.984375 69.390625 
L 28.421875 72.90625 
L 38.28125 72.90625 
L 38.28125 8.296875 
L 54.390625 8.296875 
L 54.390625 0 
L 12.40625 0 
z
" id="DejaVuSans-49"/>
       </defs>
       <use xlink:href="#DejaVuSans-49"/>
       <use x="63.623047" xlink:href="#DejaVuSans-46"/>
       <use x="95.410156" xlink:href="#DejaVuSans-48"/>
      </g>
     </g>
    </g>
    <g id="ytick_4">
     <g id="line2d_8">
      <g>
       <use style="stroke:#000000;stroke-width:0.8;" x="32.516562" xlink:href="#m7e99dd061c" y="95.40355"/>
      </g>
     </g>
     <g id="text_9">
      <!-- 1.5 -->
      <g transform="translate(15.974687 97.683081)scale(0.06 -0.06)">
       <use xlink:href="#DejaVuSans-49"/>
       <use x="63.623047" xlink:href="#DejaVuSans-46"/>
       <use x="95.410156" xlink:href="#DejaVuSans-53"/>
      </g>
     </g>
    </g>
    <g id="ytick_5">
     <g id="line2d_9">
      <g>
       <use style="stroke:#000000;stroke-width:0.8;" x="32.516562" xlink:href="#m7e99dd061c" y="82.845608"/>
      </g>
     </g>
     <g id="text_10">
      <!-- 2.0 -->
      <g transform="translate(15.974687 85.125139)scale(0.06 -0.06)">
       <use xlink:href="#DejaVuSans-50"/>
       <use x="63.623047" xlink:href="#DejaVuSans-46"/>
       <use x="95.410156" xlink:href="#DejaVuSans-48"/>
      </g>
     </g>
    </g>
    <g id="ytick_6">
     <g id="line2d_10">
      <g>
       <use style="stroke:#000000;stroke-width:0.8;" x="32.516562" xlink:href="#m7e99dd061c" y="70.287666"/>
      </g>
     </g>
     <g id="text_11">
      <!-- 2.5 -->
      <g transform="translate(15.974687 72.567197)scale(0.06 -0.06)">
       <use xlink:href="#DejaVuSans-50"/>
       <use x="63.623047" xlink:href="#DejaVuSans-46"/>
       <use x="95.410156" xlink:href="#DejaVuSans-53"/>
      </g>
     </g>
    </g>
    <g id="ytick_7">
     <g id="line2d_11">
      <g>
       <use style="stroke:#000000;stroke-width:0.8;" x="32.516562" xlink:href="#m7e99dd061c" y="57.729724"/>
      </g>
     </g>
     <g id="text_12">
      <!-- 3.0 -->
      <g transform="translate(15.974687 60.009256)scale(0.06 -0.06)">
       <defs>
        <path d="M 40.578125 39.3125 
Q 47.65625 37.796875 51.625 33 
Q 55.609375 28.21875 55.609375 21.1875 
Q 55.609375 10.40625 48.1875 4.484375 
Q 40.765625 -1.421875 27.09375 -1.421875 
Q 22.515625 -1.421875 17.65625 -0.515625 
Q 12.796875 0.390625 7.625 2.203125 
L 7.625 11.71875 
Q 11.71875 9.328125 16.59375 8.109375 
Q 21.484375 6.890625 26.8125 6.890625 
Q 36.078125 6.890625 40.9375 10.546875 
Q 45.796875 14.203125 45.796875 21.1875 
Q 45.796875 27.640625 41.28125 31.265625 
Q 36.765625 34.90625 28.71875 34.90625 
L 20.21875 34.90625 
L 20.21875 43.015625 
L 29.109375 43.015625 
Q 36.375 43.015625 40.234375 45.921875 
Q 44.09375 48.828125 44.09375 54.296875 
Q 44.09375 59.90625 40.109375 62.90625 
Q 36.140625 65.921875 28.71875 65.921875 
Q 24.65625 65.921875 20.015625 65.03125 
Q 15.375 64.15625 9.8125 62.3125 
L 9.8125 71.09375 
Q 15.4375 72.65625 20.34375 73.4375 
Q 25.25 74.21875 29.59375 74.21875 
Q 40.828125 74.21875 47.359375 69.109375 
Q 53.90625 64.015625 53.90625 55.328125 
Q 53.90625 49.265625 50.4375 45.09375 
Q 46.96875 40.921875 40.578125 39.3125 
z
" id="DejaVuSans-51"/>
       </defs>
       <use xlink:href="#DejaVuSans-51"/>
       <use x="63.623047" xlink:href="#DejaVuSans-46"/>
       <use x="95.410156" xlink:href="#DejaVuSans-48"/>
      </g>
     </g>
    </g>
    <g id="ytick_8">
     <g id="line2d_12">
      <g>
       <use style="stroke:#000000;stroke-width:0.8;" x="32.516562" xlink:href="#m7e99dd061c" y="45.171783"/>
      </g>
     </g>
     <g id="text_13">
      <!-- 3.5 -->
      <g transform="translate(15.974687 47.451314)scale(0.06 -0.06)">
       <use xlink:href="#DejaVuSans-51"/>
       <use x="63.623047" xlink:href="#DejaVuSans-46"/>
       <use x="95.410156" xlink:href="#DejaVuSans-53"/>
      </g>
     </g>
    </g>
    <g id="ytick_9">
     <g id="line2d_13">
      <g>
       <use style="stroke:#000000;stroke-width:0.8;" x="32.516562" xlink:href="#m7e99dd061c" y="32.613841"/>
      </g>
     </g>
     <g id="text_14">
      <!-- 4.0 -->
      <g transform="translate(15.974687 34.893372)scale(0.06 -0.06)">
       <use xlink:href="#DejaVuSans-52"/>
       <use x="63.623047" xlink:href="#DejaVuSans-46"/>
       <use x="95.410156" xlink:href="#DejaVuSans-48"/>
      </g>
     </g>
    </g>
    <g id="text_15">
     <!-- Density -->
     <g transform="translate(12.518906 92.023391)rotate(-90)scale(0.07 -0.07)">
      <defs>
       <path d="M 19.671875 64.796875 
L 19.671875 8.109375 
L 31.59375 8.109375 
Q 46.6875 8.109375 53.6875 14.9375 
Q 60.6875 21.78125 60.6875 36.53125 
Q 60.6875 51.171875 53.6875 57.984375 
Q 46.6875 64.796875 31.59375 64.796875 
z
M 9.8125 72.90625 
L 30.078125 72.90625 
Q 51.265625 72.90625 61.171875 64.09375 
Q 71.09375 55.28125 71.09375 36.53125 
Q 71.09375 17.671875 61.125 8.828125 
Q 51.171875 0 30.078125 0 
L 9.8125 0 
z
" id="DejaVuSans-68"/>
       <path d="M 44.28125 53.078125 
L 44.28125 44.578125 
Q 40.484375 46.53125 36.375 47.5 
Q 32.28125 48.484375 27.875 48.484375 
Q 21.1875 48.484375 17.84375 46.4375 
Q 14.5 44.390625 14.5 40.28125 
Q 14.5 37.15625 16.890625 35.375 
Q 19.28125 33.59375 26.515625 31.984375 
L 29.59375 31.296875 
Q 39.15625 29.25 43.1875 25.515625 
Q 47.21875 21.78125 47.21875 15.09375 
Q 47.21875 7.46875 41.1875 3.015625 
Q 35.15625 -1.421875 24.609375 -1.421875 
Q 20.21875 -1.421875 15.453125 -0.5625 
Q 10.6875 0.296875 5.421875 2 
L 5.421875 11.28125 
Q 10.40625 8.6875 15.234375 7.390625 
Q 20.0625 6.109375 24.8125 6.109375 
Q 31.15625 6.109375 34.5625 8.28125 
Q 37.984375 10.453125 37.984375 14.40625 
Q 37.984375 18.0625 35.515625 20.015625 
Q 33.0625 21.96875 24.703125 23.78125 
L 21.578125 24.515625 
Q 13.234375 26.265625 9.515625 29.90625 
Q 5.8125 33.546875 5.8125 39.890625 
Q 5.8125 47.609375 11.28125 51.796875 
Q 16.75 56 26.8125 56 
Q 31.78125 56 36.171875 55.265625 
Q 40.578125 54.546875 44.28125 53.078125 
z
" id="DejaVuSans-115"/>
      </defs>
      <use xlink:href="#DejaVuSans-68"/>
      <use x="77.001953" xlink:href="#DejaVuSans-101"/>
      <use x="138.525391" xlink:href="#DejaVuSans-110"/>
      <use x="201.904297" xlink:href="#DejaVuSans-115"/>
      <use x="254.003906" xlink:href="#DejaVuSans-105"/>
      <use x="281.787109" xlink:href="#DejaVuSans-116"/>
      <use x="320.996094" xlink:href="#DejaVuSans-121"/>
     </g>
    </g>
   </g>
   <g id="patch_3">
    <path d="M 32.516562 133.077375 
L 32.516562 24.357375 
" style="fill:none;stroke:#000000;stroke-linecap:square;stroke-linejoin:miter;stroke-width:0.8;"/>
   </g>
   <g id="patch_4">
    <path d="M 144.116562 133.077375 
L 144.116562 24.357375 
" style="fill:none;stroke:#000000;stroke-linecap:square;stroke-linejoin:miter;stroke-width:0.8;"/>
   </g>
   <g id="patch_5">
    <path d="M 32.516562 133.077375 
L 144.116562 133.077375 
" style="fill:none;stroke:#000000;stroke-linecap:square;stroke-linejoin:miter;stroke-width:0.8;"/>
   </g>
   <g id="patch_6">
    <path d="M 32.516562 24.357375 
L 144.116562 24.357375 
" style="fill:none;stroke:#000000;stroke-linecap:square;stroke-linejoin:miter;stroke-width:0.8;"/>
   </g>
   <g id="text_16">
    <!-- Predicted Occupancy -->
    <g transform="translate(51.371875 12.518906)scale(0.07 -0.07)">
     <defs>
      <path d="M 39.40625 66.21875 
Q 28.65625 66.21875 22.328125 58.203125 
Q 16.015625 50.203125 16.015625 36.375 
Q 16.015625 22.609375 22.328125 14.59375 
Q 28.65625 6.59375 39.40625 6.59375 
Q 50.140625 6.59375 56.421875 14.59375 
Q 62.703125 22.609375 62.703125 36.375 
Q 62.703125 50.203125 56.421875 58.203125 
Q 50.140625 66.21875 39.40625 66.21875 
z
M 39.40625 74.21875 
Q 54.734375 74.21875 63.90625 63.9375 
Q 73.09375 53.65625 73.09375 36.375 
Q 73.09375 19.140625 63.90625 8.859375 
Q 54.734375 -1.421875 39.40625 -1.421875 
Q 24.03125 -1.421875 14.8125 8.828125 
Q 5.609375 19.09375 5.609375 36.375 
Q 5.609375 53.65625 14.8125 63.9375 
Q 24.03125 74.21875 39.40625 74.21875 
z
" id="DejaVuSans-79"/>
     </defs>
     <use xlink:href="#DejaVuSans-80"/>
     <use x="58.552734" xlink:href="#DejaVuSans-114"/>
     <use x="97.416016" xlink:href="#DejaVuSans-101"/>
     <use x="158.939453" xlink:href="#DejaVuSans-100"/>
     <use x="222.416016" xlink:href="#DejaVuSans-105"/>
     <use x="250.199219" xlink:href="#DejaVuSans-99"/>
     <use x="305.179688" xlink:href="#DejaVuSans-116"/>
     <use x="344.388672" xlink:href="#DejaVuSans-101"/>
     <use x="405.912109" xlink:href="#DejaVuSans-100"/>
     <use x="469.388672" xlink:href="#DejaVuSans-32"/>
     <use x="501.175781" xlink:href="#DejaVuSans-79"/>
     <use x="579.886719" xlink:href="#DejaVuSans-99"/>
     <use x="634.867188" xlink:href="#DejaVuSans-99"/>
     <use x="689.847656" xlink:href="#DejaVuSans-117"/>
     <use x="753.226562" xlink:href="#DejaVuSans-112"/>
     <use x="816.703125" xlink:href="#DejaVuSans-97"/>
     <use x="877.982422" xlink:href="#DejaVuSans-110"/>
     <use x="941.361328" xlink:href="#DejaVuSans-99"/>
     <use x="996.341797" xlink:href="#DejaVuSans-121"/>
    </g>
    <!-- for CRX N50 HD Motifs μ=9 -->
    <g transform="translate(40.321719 20.357375)scale(0.07 -0.07)">
     <defs>
      <path d="M 37.109375 75.984375 
L 37.109375 68.5 
L 28.515625 68.5 
Q 23.6875 68.5 21.796875 66.546875 
Q 19.921875 64.59375 19.921875 59.515625 
L 19.921875 54.6875 
L 34.71875 54.6875 
L 34.71875 47.703125 
L 19.921875 47.703125 
L 19.921875 0 
L 10.890625 0 
L 10.890625 47.703125 
L 2.296875 47.703125 
L 2.296875 54.6875 
L 10.890625 54.6875 
L 10.890625 58.5 
Q 10.890625 67.625 15.140625 71.796875 
Q 19.390625 75.984375 28.609375 75.984375 
z
" id="DejaVuSans-102"/>
      <path d="M 64.40625 67.28125 
L 64.40625 56.890625 
Q 59.421875 61.53125 53.78125 63.8125 
Q 48.140625 66.109375 41.796875 66.109375 
Q 29.296875 66.109375 22.65625 58.46875 
Q 16.015625 50.828125 16.015625 36.375 
Q 16.015625 21.96875 22.65625 14.328125 
Q 29.296875 6.6875 41.796875 6.6875 
Q 48.140625 6.6875 53.78125 8.984375 
Q 59.421875 11.28125 64.40625 15.921875 
L 64.40625 5.609375 
Q 59.234375 2.09375 53.4375 0.328125 
Q 47.65625 -1.421875 41.21875 -1.421875 
Q 24.65625 -1.421875 15.125 8.703125 
Q 5.609375 18.84375 5.609375 36.375 
Q 5.609375 53.953125 15.125 64.078125 
Q 24.65625 74.21875 41.21875 74.21875 
Q 47.75 74.21875 53.53125 72.484375 
Q 59.328125 70.75 64.40625 67.28125 
z
" id="DejaVuSans-67"/>
      <path d="M 44.390625 34.1875 
Q 47.5625 33.109375 50.5625 29.59375 
Q 53.5625 26.078125 56.59375 19.921875 
L 66.609375 0 
L 56 0 
L 46.6875 18.703125 
Q 43.0625 26.03125 39.671875 28.421875 
Q 36.28125 30.8125 30.421875 30.8125 
L 19.671875 30.8125 
L 19.671875 0 
L 9.8125 0 
L 9.8125 72.90625 
L 32.078125 72.90625 
Q 44.578125 72.90625 50.734375 67.671875 
Q 56.890625 62.453125 56.890625 51.90625 
Q 56.890625 45.015625 53.6875 40.46875 
Q 50.484375 35.9375 44.390625 34.1875 
z
M 19.671875 64.796875 
L 19.671875 38.921875 
L 32.078125 38.921875 
Q 39.203125 38.921875 42.84375 42.21875 
Q 46.484375 45.515625 46.484375 51.90625 
Q 46.484375 58.296875 42.84375 61.546875 
Q 39.203125 64.796875 32.078125 64.796875 
z
" id="DejaVuSans-82"/>
      <path d="M 6.296875 72.90625 
L 16.890625 72.90625 
L 35.015625 45.796875 
L 53.21875 72.90625 
L 63.8125 72.90625 
L 40.375 37.890625 
L 65.375 0 
L 54.78125 0 
L 34.28125 31 
L 13.625 0 
L 2.984375 0 
L 29 38.921875 
z
" id="DejaVuSans-88"/>
      <path d="M 9.8125 72.90625 
L 23.09375 72.90625 
L 55.421875 11.921875 
L 55.421875 72.90625 
L 64.984375 72.90625 
L 64.984375 0 
L 51.703125 0 
L 19.390625 60.984375 
L 19.390625 0 
L 9.8125 0 
z
" id="DejaVuSans-78"/>
      <path d="M 9.8125 72.90625 
L 19.671875 72.90625 
L 19.671875 43.015625 
L 55.515625 43.015625 
L 55.515625 72.90625 
L 65.375 72.90625 
L 65.375 0 
L 55.515625 0 
L 55.515625 34.71875 
L 19.671875 34.71875 
L 19.671875 0 
L 9.8125 0 
z
" id="DejaVuSans-72"/>
      <path d="M 9.8125 72.90625 
L 24.515625 72.90625 
L 43.109375 23.296875 
L 61.8125 72.90625 
L 76.515625 72.90625 
L 76.515625 0 
L 66.890625 0 
L 66.890625 64.015625 
L 48.09375 14.015625 
L 38.1875 14.015625 
L 19.390625 64.015625 
L 19.390625 0 
L 9.8125 0 
z
" id="DejaVuSans-77"/>
      <path d="M 8.5 -20.796875 
L 8.5 54.6875 
L 17.484375 54.6875 
L 17.484375 20.703125 
Q 17.484375 13.625 20.84375 10 
Q 24.21875 6.390625 30.8125 6.390625 
Q 38.03125 6.390625 41.671875 10.484375 
Q 45.3125 14.59375 45.3125 22.796875 
L 45.3125 54.6875 
L 54.296875 54.6875 
L 54.296875 12.59375 
Q 54.296875 9.671875 55.140625 8.28125 
Q 56 6.890625 57.8125 6.890625 
Q 58.25 6.890625 59.03125 7.15625 
Q 59.8125 7.421875 61.1875 8.015625 
L 61.1875 0.78125 
Q 59.1875 -0.34375 57.390625 -0.875 
Q 55.609375 -1.421875 53.90625 -1.421875 
Q 50.53125 -1.421875 48.53125 0.484375 
Q 46.53125 2.390625 45.796875 6.296875 
Q 43.359375 2.4375 39.8125 0.5 
Q 36.28125 -1.421875 31.5 -1.421875 
Q 26.515625 -1.421875 23.015625 0.484375 
Q 19.53125 2.390625 17.484375 6.203125 
L 17.484375 -20.796875 
z
" id="DejaVuSans-956"/>
      <path d="M 10.59375 45.40625 
L 73.1875 45.40625 
L 73.1875 37.203125 
L 10.59375 37.203125 
z
M 10.59375 25.484375 
L 73.1875 25.484375 
L 73.1875 17.1875 
L 10.59375 17.1875 
z
" id="DejaVuSans-61"/>
      <path d="M 10.984375 1.515625 
L 10.984375 10.5 
Q 14.703125 8.734375 18.5 7.8125 
Q 22.3125 6.890625 25.984375 6.890625 
Q 35.75 6.890625 40.890625 13.453125 
Q 46.046875 20.015625 46.78125 33.40625 
Q 43.953125 29.203125 39.59375 26.953125 
Q 35.25 24.703125 29.984375 24.703125 
Q 19.046875 24.703125 12.671875 31.3125 
Q 6.296875 37.9375 6.296875 49.421875 
Q 6.296875 60.640625 12.9375 67.421875 
Q 19.578125 74.21875 30.609375 74.21875 
Q 43.265625 74.21875 49.921875 64.515625 
Q 56.59375 54.828125 56.59375 36.375 
Q 56.59375 19.140625 48.40625 8.859375 
Q 40.234375 -1.421875 26.421875 -1.421875 
Q 22.703125 -1.421875 18.890625 -0.6875 
Q 15.09375 0.046875 10.984375 1.515625 
z
M 30.609375 32.421875 
Q 37.25 32.421875 41.125 36.953125 
Q 45.015625 41.5 45.015625 49.421875 
Q 45.015625 57.28125 41.125 61.84375 
Q 37.25 66.40625 30.609375 66.40625 
Q 23.96875 66.40625 20.09375 61.84375 
Q 16.21875 57.28125 16.21875 49.421875 
Q 16.21875 41.5 20.09375 36.953125 
Q 23.96875 32.421875 30.609375 32.421875 
z
" id="DejaVuSans-57"/>
     </defs>
     <use xlink:href="#DejaVuSans-102"/>
     <use x="35.205078" xlink:href="#DejaVuSans-111"/>
     <use x="96.386719" xlink:href="#DejaVuSans-114"/>
     <use x="137.5" xlink:href="#DejaVuSans-32"/>
     <use x="169.287109" xlink:href="#DejaVuSans-67"/>
     <use x="239.111328" xlink:href="#DejaVuSans-82"/>
     <use x="308.59375" xlink:href="#DejaVuSans-88"/>
     <use x="377.099609" xlink:href="#DejaVuSans-32"/>
     <use x="408.886719" xlink:href="#DejaVuSans-78"/>
     <use x="483.691406" xlink:href="#DejaVuSans-53"/>
     <use x="547.314453" xlink:href="#DejaVuSans-48"/>
     <use x="610.9375" xlink:href="#DejaVuSans-32"/>
     <use x="642.724609" xlink:href="#DejaVuSans-72"/>
     <use x="717.919922" xlink:href="#DejaVuSans-68"/>
     <use x="794.921875" xlink:href="#DejaVuSans-32"/>
     <use x="826.708984" xlink:href="#DejaVuSans-77"/>
     <use x="912.988281" xlink:href="#DejaVuSans-111"/>
     <use x="974.169922" xlink:href="#DejaVuSans-116"/>
     <use x="1013.378906" xlink:href="#DejaVuSans-105"/>
     <use x="1041.162109" xlink:href="#DejaVuSans-102"/>
     <use x="1076.367188" xlink:href="#DejaVuSans-115"/>
     <use x="1128.466797" xlink:href="#DejaVuSans-32"/>
     <use x="1160.253906" xlink:href="#DejaVuSans-956"/>
     <use x="1223.876953" xlink:href="#DejaVuSans-61"/>
     <use x="1307.666016" xlink:href="#DejaVuSans-57"/>
    </g>
   </g>
   <g id="legend_1">
    <g id="patch_7">
     <path d="M 85.23125 46.771125 
L 139.916562 46.771125 
Q 141.116562 46.771125 141.116562 45.571125 
L 141.116562 28.557375 
Q 141.116562 27.357375 139.916562 27.357375 
L 85.23125 27.357375 
Q 84.03125 27.357375 84.03125 28.557375 
L 84.03125 45.571125 
Q 84.03125 46.771125 85.23125 46.771125 
z
" style="fill:#ffffff;opacity:0.8;stroke:#cccccc;stroke-linejoin:miter;"/>
    </g>
    <g id="patch_8">
     <path d="M 86.43125 34.316437 
L 98.43125 34.316437 
L 98.43125 30.116437 
L 86.43125 30.116437 
z
" style="fill:#808080;fill-opacity:0.25;stroke:#808080;stroke-linejoin:miter;"/>
    </g>
    <g id="text_17">
     <!-- background -->
     <g transform="translate(103.23125 34.316437)scale(0.06 -0.06)">
      <defs>
       <path d="M 48.6875 27.296875 
Q 48.6875 37.203125 44.609375 42.84375 
Q 40.53125 48.484375 33.40625 48.484375 
Q 26.265625 48.484375 22.1875 42.84375 
Q 18.109375 37.203125 18.109375 27.296875 
Q 18.109375 17.390625 22.1875 11.75 
Q 26.265625 6.109375 33.40625 6.109375 
Q 40.53125 6.109375 44.609375 11.75 
Q 48.6875 17.390625 48.6875 27.296875 
z
M 18.109375 46.390625 
Q 20.953125 51.265625 25.265625 53.625 
Q 29.59375 56 35.59375 56 
Q 45.5625 56 51.78125 48.09375 
Q 58.015625 40.1875 58.015625 27.296875 
Q 58.015625 14.40625 51.78125 6.484375 
Q 45.5625 -1.421875 35.59375 -1.421875 
Q 29.59375 -1.421875 25.265625 0.953125 
Q 20.953125 3.328125 18.109375 8.203125 
L 18.109375 0 
L 9.078125 0 
L 9.078125 75.984375 
L 18.109375 75.984375 
z
" id="DejaVuSans-98"/>
       <path d="M 9.078125 75.984375 
L 18.109375 75.984375 
L 18.109375 31.109375 
L 44.921875 54.6875 
L 56.390625 54.6875 
L 27.390625 29.109375 
L 57.625 0 
L 45.90625 0 
L 18.109375 26.703125 
L 18.109375 0 
L 9.078125 0 
z
" id="DejaVuSans-107"/>
       <path d="M 45.40625 27.984375 
Q 45.40625 37.75 41.375 43.109375 
Q 37.359375 48.484375 30.078125 48.484375 
Q 22.859375 48.484375 18.828125 43.109375 
Q 14.796875 37.75 14.796875 27.984375 
Q 14.796875 18.265625 18.828125 12.890625 
Q 22.859375 7.515625 30.078125 7.515625 
Q 37.359375 7.515625 41.375 12.890625 
Q 45.40625 18.265625 45.40625 27.984375 
z
M 54.390625 6.78125 
Q 54.390625 -7.171875 48.1875 -13.984375 
Q 42 -20.796875 29.203125 -20.796875 
Q 24.46875 -20.796875 20.265625 -20.09375 
Q 16.0625 -19.390625 12.109375 -17.921875 
L 12.109375 -9.1875 
Q 16.0625 -11.328125 19.921875 -12.34375 
Q 23.78125 -13.375 27.78125 -13.375 
Q 36.625 -13.375 41.015625 -8.765625 
Q 45.40625 -4.15625 45.40625 5.171875 
L 45.40625 9.625 
Q 42.625 4.78125 38.28125 2.390625 
Q 33.9375 0 27.875 0 
Q 17.828125 0 11.671875 7.65625 
Q 5.515625 15.328125 5.515625 27.984375 
Q 5.515625 40.671875 11.671875 48.328125 
Q 17.828125 56 27.875 56 
Q 33.9375 56 38.28125 53.609375 
Q 42.625 51.21875 45.40625 46.390625 
L 45.40625 54.6875 
L 54.390625 54.6875 
z
" id="DejaVuSans-103"/>
      </defs>
      <use xlink:href="#DejaVuSans-98"/>
      <use x="63.476562" xlink:href="#DejaVuSans-97"/>
      <use x="124.755859" xlink:href="#DejaVuSans-99"/>
      <use x="179.736328" xlink:href="#DejaVuSans-107"/>
      <use x="237.646484" xlink:href="#DejaVuSans-103"/>
      <use x="301.123047" xlink:href="#DejaVuSans-114"/>
      <use x="339.986328" xlink:href="#DejaVuSans-111"/>
      <use x="401.167969" xlink:href="#DejaVuSans-117"/>
      <use x="464.546875" xlink:href="#DejaVuSans-110"/>
      <use x="527.925781" xlink:href="#DejaVuSans-100"/>
     </g>
    </g>
    <g id="patch_9">
     <path d="M 86.43125 43.123312 
L 98.43125 43.123312 
L 98.43125 38.923312 
L 86.43125 38.923312 
z
" style="fill:#dc9514;fill-opacity:0.25;stroke:#dc9514;stroke-linejoin:miter;"/>
    </g>
    <g id="text_18">
     <!-- selected -->
     <g transform="translate(103.23125 43.123312)scale(0.06 -0.06)">
      <defs>
       <path d="M 9.421875 75.984375 
L 18.40625 75.984375 
L 18.40625 0 
L 9.421875 0 
z
" id="DejaVuSans-108"/>
      </defs>
      <use xlink:href="#DejaVuSans-115"/>
      <use x="52.099609" xlink:href="#DejaVuSans-101"/>
      <use x="113.623047" xlink:href="#DejaVuSans-108"/>
      <use x="141.40625" xlink:href="#DejaVuSans-101"/>
      <use x="202.929688" xlink:href="#DejaVuSans-99"/>
      <use x="257.910156" xlink:href="#DejaVuSans-116"/>
      <use x="297.119141" xlink:href="#DejaVuSans-101"/>
      <use x="358.642578" xlink:href="#DejaVuSans-100"/>
     </g>
    </g>
   </g>
  </g>
 </g>
 <defs>
  <clipPath id="p995e84075e">
   <rect height="108.72" width="111.6" x="32.516562" y="24.357375"/>
  </clipPath>
 </defs>
</svg>
