<?xml version="1.0" encoding="utf-8" standalone="no"?>
<!DOCTYPE svg PUBLIC "-//W3C//DTD SVG 1.1//EN"
  "http://www.w3.org/Graphics/SVG/1.1/DTD/svg11.dtd">
<!-- Created with matplotlib (https://matplotlib.org/) -->
<svg height="154.020469pt" version="1.1" viewBox="0 0 205.6775 154.020469" width="205.6775pt" xmlns="http://www.w3.org/2000/svg" xmlns:xlink="http://www.w3.org/1999/xlink">
 <metadata>
  <rdf:RDF xmlns:cc="http://creativecommons.org/ns#" xmlns:dc="http://purl.org/dc/elements/1.1/" xmlns:rdf="http://www.w3.org/1999/02/22-rdf-syntax-ns#">
   <cc:Work>
    <dc:type rdf:resource="http://purl.org/dc/dcmitype/StillImage"/>
    <dc:date>2022-06-25T22:15:03.146969</dc:date>
    <dc:format>image/svg+xml</dc:format>
    <dc:creator>
     <cc:Agent>
      <dc:title>Matplotlib v3.3.2, https://matplotlib.org/</dc:title>
     </cc:Agent>
    </dc:creator>
   </cc:Work>
  </rdf:RDF>
 </metadata>
 <defs>
  <style type="text/css">*{stroke-linecap:butt;stroke-linejoin:round;}</style>
 </defs>
 <g id="figure_1">
  <g id="patch_1">
   <path d="M 0 154.020469 
L 205.6775 154.020469 
L 205.6775 0 
L 0 0 
z
" style="fill:none;"/>
  </g>
  <g id="axes_1">
   <g id="patch_2">
    <path d="M 26.792188 125.238906 
L 138.392188 125.238906 
L 138.392188 16.518906 
L 26.792188 16.518906 
z
" style="fill:#ffffff;"/>
   </g>
   <g id="PolyCollection_1">
    <defs>
     <path d="M 46.832659 -28.782322 
L 46.832659 -28.781562 
L 47.162755 -28.781562 
L 47.492852 -28.781562 
L 47.822948 -28.781562 
L 48.153045 -28.781562 
L 48.483141 -28.781562 
L 48.813238 -28.781562 
L 49.143334 -28.781562 
L 49.473431 -28.781562 
L 49.803527 -28.781562 
L 50.133624 -28.781562 
L 50.46372 -28.781562 
L 50.793817 -28.781562 
L 51.123914 -28.781562 
L 51.45401 -28.781562 
L 51.784107 -28.781562 
L 52.114203 -28.781562 
L 52.4443 -28.781562 
L 52.774396 -28.781562 
L 53.104493 -28.781562 
L 53.434589 -28.781562 
L 53.764686 -28.781562 
L 54.094782 -28.781562 
L 54.424879 -28.781562 
L 54.754975 -28.781562 
L 55.085072 -28.781562 
L 55.415168 -28.781562 
L 55.745265 -28.781562 
L 56.075361 -28.781562 
L 56.405458 -28.781562 
L 56.735554 -28.781562 
L 57.065651 -28.781562 
L 57.395747 -28.781562 
L 57.725844 -28.781562 
L 58.05594 -28.781562 
L 58.386037 -28.781562 
L 58.716133 -28.781562 
L 59.04623 -28.781562 
L 59.376326 -28.781562 
L 59.706423 -28.781562 
L 60.036519 -28.781562 
L 60.366616 -28.781562 
L 60.696712 -28.781562 
L 61.026809 -28.781562 
L 61.356906 -28.781562 
L 61.687002 -28.781562 
L 62.017099 -28.781562 
L 62.347195 -28.781562 
L 62.677292 -28.781562 
L 63.007388 -28.781562 
L 63.337485 -28.781562 
L 63.667581 -28.781562 
L 63.997678 -28.781562 
L 64.327774 -28.781562 
L 64.657871 -28.781562 
L 64.987967 -28.781562 
L 65.318064 -28.781562 
L 65.64816 -28.781562 
L 65.978257 -28.781562 
L 66.308353 -28.781562 
L 66.63845 -28.781562 
L 66.968546 -28.781562 
L 67.298643 -28.781562 
L 67.628739 -28.781562 
L 67.958836 -28.781562 
L 68.288932 -28.781562 
L 68.619029 -28.781562 
L 68.949125 -28.781562 
L 69.279222 -28.781562 
L 69.609318 -28.781562 
L 69.939415 -28.781562 
L 70.269511 -28.781562 
L 70.599608 -28.781562 
L 70.929704 -28.781562 
L 71.259801 -28.781562 
L 71.589897 -28.781562 
L 71.919994 -28.781562 
L 72.250091 -28.781562 
L 72.580187 -28.781562 
L 72.910284 -28.781562 
L 73.24038 -28.781562 
L 73.570477 -28.781562 
L 73.900573 -28.781562 
L 74.23067 -28.781562 
L 74.560766 -28.781562 
L 74.890863 -28.781562 
L 75.220959 -28.781562 
L 75.551056 -28.781562 
L 75.881152 -28.781562 
L 76.211249 -28.781562 
L 76.541345 -28.781562 
L 76.871442 -28.781562 
L 77.201538 -28.781562 
L 77.531635 -28.781562 
L 77.861731 -28.781562 
L 78.191828 -28.781562 
L 78.521924 -28.781562 
L 78.852021 -28.781562 
L 79.182117 -28.781562 
L 79.512214 -28.781562 
L 79.84231 -28.781562 
L 80.172407 -28.781562 
L 80.502503 -28.781562 
L 80.8326 -28.781562 
L 81.162696 -28.781562 
L 81.492793 -28.781562 
L 81.822889 -28.781562 
L 82.152986 -28.781562 
L 82.483083 -28.781562 
L 82.813179 -28.781562 
L 83.143276 -28.781562 
L 83.473372 -28.781562 
L 83.803469 -28.781562 
L 84.133565 -28.781562 
L 84.463662 -28.781562 
L 84.793758 -28.781562 
L 85.123855 -28.781562 
L 85.453951 -28.781562 
L 85.784048 -28.781562 
L 86.114144 -28.781562 
L 86.444241 -28.781562 
L 86.774337 -28.781562 
L 87.104434 -28.781562 
L 87.43453 -28.781562 
L 87.764627 -28.781562 
L 88.094723 -28.781562 
L 88.42482 -28.781562 
L 88.754916 -28.781562 
L 89.085013 -28.781562 
L 89.415109 -28.781562 
L 89.745206 -28.781562 
L 90.075302 -28.781562 
L 90.405399 -28.781562 
L 90.735495 -28.781562 
L 91.065592 -28.781562 
L 91.395688 -28.781562 
L 91.725785 -28.781562 
L 92.055881 -28.781562 
L 92.385978 -28.781562 
L 92.716074 -28.781562 
L 93.046171 -28.781562 
L 93.376268 -28.781562 
L 93.706364 -28.781562 
L 94.036461 -28.781562 
L 94.366557 -28.781562 
L 94.696654 -28.781562 
L 95.02675 -28.781562 
L 95.356847 -28.781562 
L 95.686943 -28.781562 
L 96.01704 -28.781562 
L 96.347136 -28.781562 
L 96.677233 -28.781562 
L 97.007329 -28.781562 
L 97.337426 -28.781562 
L 97.667522 -28.781562 
L 97.997619 -28.781562 
L 98.327715 -28.781562 
L 98.657812 -28.781562 
L 98.987908 -28.781562 
L 99.318005 -28.781562 
L 99.648101 -28.781562 
L 99.978198 -28.781562 
L 100.308294 -28.781562 
L 100.638391 -28.781562 
L 100.968487 -28.781562 
L 101.298584 -28.781562 
L 101.62868 -28.781562 
L 101.958777 -28.781562 
L 102.288873 -28.781562 
L 102.61897 -28.781562 
L 102.949066 -28.781562 
L 103.279163 -28.781562 
L 103.60926 -28.781562 
L 103.939356 -28.781562 
L 104.269453 -28.781562 
L 104.599549 -28.781562 
L 104.929646 -28.781562 
L 105.259742 -28.781562 
L 105.589839 -28.781562 
L 105.919935 -28.781562 
L 106.250032 -28.781562 
L 106.580128 -28.781562 
L 106.910225 -28.781562 
L 107.240321 -28.781562 
L 107.570418 -28.781562 
L 107.900514 -28.781562 
L 108.230611 -28.781562 
L 108.560707 -28.781562 
L 108.890804 -28.781562 
L 109.2209 -28.781562 
L 109.550997 -28.781562 
L 109.881093 -28.781562 
L 110.21119 -28.781562 
L 110.541286 -28.781562 
L 110.871383 -28.781562 
L 111.201479 -28.781562 
L 111.531576 -28.781562 
L 111.861672 -28.781562 
L 112.191769 -28.781562 
L 112.521865 -28.781562 
L 112.521865 -28.782531 
L 112.521865 -28.782531 
L 112.191769 -28.783613 
L 111.861672 -28.785698 
L 111.531576 -28.789507 
L 111.201479 -28.796126 
L 110.871383 -28.807085 
L 110.541286 -28.8244 
L 110.21119 -28.850581 
L 109.881093 -28.888568 
L 109.550997 -28.94163 
L 109.2209 -29.013215 
L 108.890804 -29.106777 
L 108.560707 -29.225529 
L 108.230611 -29.372119 
L 107.900514 -29.548165 
L 107.570418 -29.75373 
L 107.240321 -29.98687 
L 106.910225 -30.243492 
L 106.580128 -30.517803 
L 106.250032 -30.803433 
L 105.919935 -31.095101 
L 105.589839 -31.390402 
L 105.259742 -31.691117 
L 104.929646 -32.003491 
L 104.599549 -32.337234 
L 104.269453 -32.703375 
L 103.939356 -33.111515 
L 103.60926 -33.567272 
L 103.279163 -34.070658 
L 102.949066 -34.615877 
L 102.61897 -35.192603 
L 102.288873 -35.788333 
L 101.958777 -36.391078 
L 101.62868 -36.991599 
L 101.298584 -37.584588 
L 100.968487 -38.168644 
L 100.638391 -38.745317 
L 100.308294 -39.317824 
L 99.978198 -39.890032 
L 99.648101 -40.466084 
L 99.318005 -41.050624 
L 98.987908 -41.649347 
L 98.657812 -42.26943 
L 98.327715 -42.919521 
L 97.997619 -43.609117 
L 97.667522 -44.347348 
L 97.337426 -45.141277 
L 97.007329 -45.993958 
L 96.677233 -46.90265 
L 96.347136 -47.857744 
L 96.01704 -48.843076 
L 95.686943 -49.838131 
L 95.356847 -50.822149 
L 95.02675 -51.779449 
L 94.696654 -52.704561 
L 94.366557 -53.605508 
L 94.036461 -54.503858 
L 93.706364 -55.43111 
L 93.376268 -56.422208 
L 93.046171 -57.50798 
L 92.716074 -58.708757 
L 92.385978 -60.031006 
L 92.055881 -61.467812 
L 91.725785 -63.002777 
L 91.395688 -64.615908 
L 91.065592 -66.289592 
L 90.735495 -68.012921 
L 90.405399 -69.783254 
L 90.075302 -71.604709 
L 89.745206 -73.484143 
L 89.415109 -75.425779 
L 89.085013 -77.426042 
L 88.754916 -79.470169 
L 88.42482 -81.531872 
L 88.094723 -83.576646 
L 87.764627 -85.568389 
L 87.43453 -87.477906 
L 87.104434 -89.290971 
L 86.774337 -91.013286 
L 86.444241 -92.670302 
L 86.114144 -94.301553 
L 85.784048 -95.951165 
L 85.453951 -97.657821 
L 85.123855 -99.447515 
L 84.793758 -101.331024 
L 84.463662 -103.305634 
L 84.133565 -105.358893 
L 83.803469 -107.471823 
L 83.473372 -109.620348 
L 83.143276 -111.775554 
L 82.813179 -113.904525 
L 82.483083 -115.972967 
L 82.152986 -117.949196 
L 81.822889 -119.807388 
L 81.492793 -121.527846 
L 81.162696 -123.093561 
L 80.8326 -124.484739 
L 80.502503 -125.674665 
L 80.172407 -126.629977 
L 79.84231 -127.316293 
L 79.512214 -127.707287 
L 79.182117 -127.79346 
L 78.852021 -127.586771 
L 78.521924 -127.11903 
L 78.191828 -126.434398 
L 77.861731 -125.578455 
L 77.531635 -124.587376 
L 77.201538 -123.480686 
L 76.871442 -122.259822 
L 76.541345 -120.912809 
L 76.211249 -119.423062 
L 75.881152 -117.778739 
L 75.551056 -115.978784 
L 75.220959 -114.033477 
L 74.890863 -111.959979 
L 74.560766 -109.775943 
L 74.23067 -107.494963 
L 73.900573 -105.126285 
L 73.570477 -102.678395 
L 73.24038 -100.163678 
L 72.910284 -97.60069 
L 72.580187 -95.01207 
L 72.250091 -92.41879 
L 71.919994 -89.83378 
L 71.589897 -87.258539 
L 71.259801 -84.684977 
L 70.929704 -82.102067 
L 70.599608 -79.50446 
L 70.269511 -76.899153 
L 69.939415 -74.307197 
L 69.609318 -71.759588 
L 69.279222 -69.289064 
L 68.949125 -66.921126 
L 68.619029 -64.667815 
L 68.288932 -62.526523 
L 67.958836 -60.484045 
L 67.628739 -58.524029 
L 67.298643 -56.634687 
L 66.968546 -54.813649 
L 66.63845 -53.06809 
L 66.308353 -51.410339 
L 65.978257 -49.851121 
L 65.64816 -48.393607 
L 65.318064 -47.030975 
L 64.987967 -45.748516 
L 64.657871 -44.52918 
L 64.327774 -43.359932 
L 63.997678 -42.236097 
L 63.667581 -41.161975 
L 63.337485 -40.147824 
L 63.007388 -39.204884 
L 62.677292 -38.340708 
L 62.347195 -37.556587 
L 62.017099 -36.847649 
L 61.687002 -36.204972 
L 61.356906 -35.618417 
L 61.026809 -35.078903 
L 60.696712 -34.579463 
L 60.366616 -34.115117 
L 60.036519 -33.682068 
L 59.706423 -33.276826 
L 59.376326 -32.895713 
L 59.04623 -32.534895 
L 58.716133 -32.190855 
L 58.386037 -31.86105 
L 58.05594 -31.544489 
L 57.725844 -31.241952 
L 57.395747 -30.955746 
L 57.065651 -30.689031 
L 56.735554 -30.444913 
L 56.405458 -30.225584 
L 56.075361 -30.031787 
L 55.745265 -29.862726 
L 55.415168 -29.71639 
L 55.085072 -29.590133 
L 54.754975 -29.481259 
L 54.424879 -29.38746 
L 54.094782 -29.306965 
L 53.764686 -29.238456 
L 53.434589 -29.18081 
L 53.104493 -29.13282 
L 52.774396 -29.093001 
L 52.4443 -29.059554 
L 52.114203 -29.0305 
L 51.784107 -29.003937 
L 51.45401 -28.978334 
L 51.123914 -28.952761 
L 50.793817 -28.926996 
L 50.46372 -28.901453 
L 50.133624 -28.876982 
L 49.803527 -28.854575 
L 49.473431 -28.835095 
L 49.143334 -28.81907 
L 48.813238 -28.806622 
L 48.483141 -28.7975 
L 48.153045 -28.791197 
L 47.822948 -28.787093 
L 47.492852 -28.784574 
L 47.162755 -28.783116 
L 46.832659 -28.782322 
z
" id="mbd12f9e8db" style="stroke:#808080;"/>
    </defs>
    <g clip-path="url(#p22cd4e2af0)">
     <use style="fill:#808080;fill-opacity:0.25;stroke:#808080;" x="0" xlink:href="#mbd12f9e8db" y="154.020469"/>
    </g>
   </g>
   <g id="PolyCollection_2">
    <defs>
     <path d="M 52.761347 -28.81285 
L 52.761347 -28.781562 
L 53.048599 -28.781562 
L 53.335851 -28.781562 
L 53.623104 -28.781562 
L 53.910356 -28.781562 
L 54.197608 -28.781562 
L 54.48486 -28.781562 
L 54.772112 -28.781562 
L 55.059364 -28.781562 
L 55.346616 -28.781562 
L 55.633868 -28.781562 
L 55.921121 -28.781562 
L 56.208373 -28.781562 
L 56.495625 -28.781562 
L 56.782877 -28.781562 
L 57.070129 -28.781562 
L 57.357381 -28.781562 
L 57.644633 -28.781562 
L 57.931885 -28.781562 
L 58.219138 -28.781562 
L 58.50639 -28.781562 
L 58.793642 -28.781562 
L 59.080894 -28.781562 
L 59.368146 -28.781562 
L 59.655398 -28.781562 
L 59.94265 -28.781562 
L 60.229902 -28.781562 
L 60.517155 -28.781562 
L 60.804407 -28.781562 
L 61.091659 -28.781562 
L 61.378911 -28.781562 
L 61.666163 -28.781562 
L 61.953415 -28.781562 
L 62.240667 -28.781562 
L 62.527919 -28.781562 
L 62.815172 -28.781562 
L 63.102424 -28.781562 
L 63.389676 -28.781562 
L 63.676928 -28.781562 
L 63.96418 -28.781562 
L 64.251432 -28.781562 
L 64.538684 -28.781562 
L 64.825937 -28.781562 
L 65.113189 -28.781562 
L 65.400441 -28.781562 
L 65.687693 -28.781562 
L 65.974945 -28.781562 
L 66.262197 -28.781562 
L 66.549449 -28.781562 
L 66.836701 -28.781562 
L 67.123954 -28.781562 
L 67.411206 -28.781562 
L 67.698458 -28.781562 
L 67.98571 -28.781562 
L 68.272962 -28.781562 
L 68.560214 -28.781562 
L 68.847466 -28.781562 
L 69.134718 -28.781562 
L 69.421971 -28.781562 
L 69.709223 -28.781562 
L 69.996475 -28.781562 
L 70.283727 -28.781562 
L 70.570979 -28.781562 
L 70.858231 -28.781562 
L 71.145483 -28.781562 
L 71.432735 -28.781562 
L 71.719988 -28.781562 
L 72.00724 -28.781562 
L 72.294492 -28.781562 
L 72.581744 -28.781562 
L 72.868996 -28.781562 
L 73.156248 -28.781562 
L 73.4435 -28.781562 
L 73.730752 -28.781562 
L 74.018005 -28.781562 
L 74.305257 -28.781562 
L 74.592509 -28.781562 
L 74.879761 -28.781562 
L 75.167013 -28.781562 
L 75.454265 -28.781562 
L 75.741517 -28.781562 
L 76.028769 -28.781562 
L 76.316022 -28.781562 
L 76.603274 -28.781562 
L 76.890526 -28.781562 
L 77.177778 -28.781562 
L 77.46503 -28.781562 
L 77.752282 -28.781562 
L 78.039534 -28.781562 
L 78.326786 -28.781562 
L 78.614039 -28.781562 
L 78.901291 -28.781562 
L 79.188543 -28.781562 
L 79.475795 -28.781562 
L 79.763047 -28.781562 
L 80.050299 -28.781562 
L 80.337551 -28.781562 
L 80.624803 -28.781562 
L 80.912056 -28.781562 
L 81.199308 -28.781562 
L 81.48656 -28.781562 
L 81.773812 -28.781562 
L 82.061064 -28.781562 
L 82.348316 -28.781562 
L 82.635568 -28.781562 
L 82.92282 -28.781562 
L 83.210073 -28.781562 
L 83.497325 -28.781562 
L 83.784577 -28.781562 
L 84.071829 -28.781562 
L 84.359081 -28.781562 
L 84.646333 -28.781562 
L 84.933585 -28.781562 
L 85.220837 -28.781562 
L 85.50809 -28.781562 
L 85.795342 -28.781562 
L 86.082594 -28.781562 
L 86.369846 -28.781562 
L 86.657098 -28.781562 
L 86.94435 -28.781562 
L 87.231602 -28.781562 
L 87.518854 -28.781562 
L 87.806107 -28.781562 
L 88.093359 -28.781562 
L 88.380611 -28.781562 
L 88.667863 -28.781562 
L 88.955115 -28.781562 
L 89.242367 -28.781562 
L 89.529619 -28.781562 
L 89.816871 -28.781562 
L 90.104124 -28.781562 
L 90.391376 -28.781562 
L 90.678628 -28.781562 
L 90.96588 -28.781562 
L 91.253132 -28.781562 
L 91.540384 -28.781562 
L 91.827636 -28.781562 
L 92.114889 -28.781562 
L 92.402141 -28.781562 
L 92.689393 -28.781562 
L 92.976645 -28.781562 
L 93.263897 -28.781562 
L 93.551149 -28.781562 
L 93.838401 -28.781562 
L 94.125653 -28.781562 
L 94.412906 -28.781562 
L 94.700158 -28.781562 
L 94.98741 -28.781562 
L 95.274662 -28.781562 
L 95.561914 -28.781562 
L 95.849166 -28.781562 
L 96.136418 -28.781562 
L 96.42367 -28.781562 
L 96.710923 -28.781562 
L 96.998175 -28.781562 
L 97.285427 -28.781562 
L 97.572679 -28.781562 
L 97.859931 -28.781562 
L 98.147183 -28.781562 
L 98.434435 -28.781562 
L 98.721687 -28.781562 
L 99.00894 -28.781562 
L 99.296192 -28.781562 
L 99.583444 -28.781562 
L 99.870696 -28.781562 
L 100.157948 -28.781562 
L 100.4452 -28.781562 
L 100.732452 -28.781562 
L 101.019704 -28.781562 
L 101.306957 -28.781562 
L 101.594209 -28.781562 
L 101.881461 -28.781562 
L 102.168713 -28.781562 
L 102.455965 -28.781562 
L 102.743217 -28.781562 
L 103.030469 -28.781562 
L 103.317721 -28.781562 
L 103.604974 -28.781562 
L 103.892226 -28.781562 
L 104.179478 -28.781562 
L 104.46673 -28.781562 
L 104.753982 -28.781562 
L 105.041234 -28.781562 
L 105.328486 -28.781562 
L 105.615738 -28.781562 
L 105.902991 -28.781562 
L 106.190243 -28.781562 
L 106.477495 -28.781562 
L 106.764747 -28.781562 
L 107.051999 -28.781562 
L 107.339251 -28.781562 
L 107.626503 -28.781562 
L 107.913755 -28.781562 
L 108.201008 -28.781562 
L 108.48826 -28.781562 
L 108.775512 -28.781562 
L 109.062764 -28.781562 
L 109.350016 -28.781562 
L 109.637268 -28.781562 
L 109.92452 -28.781562 
L 109.92452 -28.803522 
L 109.92452 -28.803522 
L 109.637268 -28.810981 
L 109.350016 -28.820653 
L 109.062764 -28.833087 
L 108.775512 -28.848936 
L 108.48826 -28.868971 
L 108.201008 -28.894088 
L 107.913755 -28.925323 
L 107.626503 -28.963857 
L 107.339251 -29.01103 
L 107.051999 -29.068338 
L 106.764747 -29.137445 
L 106.477495 -29.220183 
L 106.190243 -29.318549 
L 105.902991 -29.434701 
L 105.615738 -29.570959 
L 105.328486 -29.729791 
L 105.041234 -29.913802 
L 104.753982 -30.125721 
L 104.46673 -30.36838 
L 104.179478 -30.644692 
L 103.892226 -30.957613 
L 103.604974 -31.310112 
L 103.317721 -31.705112 
L 103.030469 -32.145437 
L 102.743217 -32.63374 
L 102.455965 -33.172416 
L 102.168713 -33.763512 
L 101.881461 -34.408618 
L 101.594209 -35.10876 
L 101.306957 -35.864283 
L 101.019704 -36.674742 
L 100.732452 -37.538799 
L 100.4452 -38.454139 
L 100.157948 -39.417414 
L 99.870696 -40.42421 
L 99.583444 -41.469064 
L 99.296192 -42.545517 
L 99.00894 -43.646221 
L 98.721687 -44.763084 
L 98.434435 -45.887463 
L 98.147183 -47.010401 
L 97.859931 -48.122881 
L 97.572679 -49.216102 
L 97.285427 -50.281766 
L 96.998175 -51.312339 
L 96.710923 -52.301301 
L 96.42367 -53.243354 
L 96.136418 -54.134584 
L 95.849166 -54.972568 
L 95.561914 -55.756427 
L 95.274662 -56.486825 
L 94.98741 -57.165914 
L 94.700158 -57.797239 
L 94.412906 -58.385616 
L 94.125653 -58.936978 
L 93.838401 -59.458227 
L 93.551149 -59.957075 
L 93.263897 -60.441896 
L 92.976645 -60.921591 
L 92.689393 -61.40546 
L 92.402141 -61.903079 
L 92.114889 -62.424186 
L 91.827636 -62.97855 
L 91.540384 -63.575831 
L 91.253132 -64.225411 
L 90.96588 -64.936209 
L 90.678628 -65.716463 
L 90.391376 -66.573495 
L 90.104124 -67.513468 
L 89.816871 -68.541151 
L 89.529619 -69.659703 
L 89.242367 -70.870506 
L 88.955115 -72.173062 
L 88.667863 -73.564969 
L 88.380611 -75.04199 
L 88.093359 -76.59822 
L 87.806107 -78.226342 
L 87.518854 -79.917979 
L 87.231602 -81.664094 
L 86.94435 -83.455438 
L 86.657098 -85.283004 
L 86.369846 -87.138456 
L 86.082594 -89.014494 
L 85.795342 -90.90514 
L 85.50809 -92.80591 
L 85.220837 -94.713855 
L 84.933585 -96.627478 
L 84.646333 -98.546509 
L 84.359081 -100.471577 
L 84.071829 -102.403776 
L 83.784577 -104.344168 
L 83.497325 -106.293249 
L 83.210073 -108.250421 
L 82.92282 -110.213498 
L 82.635568 -112.178275 
L 82.348316 -114.138203 
L 82.061064 -116.084175 
L 81.773812 -118.004444 
L 81.48656 -119.884679 
L 81.199308 -121.708159 
L 80.912056 -123.456086 
L 80.624803 -125.108022 
L 80.337551 -126.642397 
L 80.050299 -128.037106 
L 79.763047 -129.270129 
L 79.475795 -130.320175 
L 79.188543 -131.16731 
L 78.901291 -131.793558 
L 78.614039 -132.183435 
L 78.326786 -132.32442 
L 78.039534 -132.207331 
L 77.752282 -131.826612 
L 77.46503 -131.180506 
L 77.177778 -130.271132 
L 76.890526 -129.104446 
L 76.603274 -127.690113 
L 76.316022 -126.041267 
L 76.028769 -124.1742 
L 75.741517 -122.107963 
L 75.454265 -119.863908 
L 75.167013 -117.465183 
L 74.879761 -114.936187 
L 74.592509 -112.302011 
L 74.305257 -109.587877 
L 74.018005 -106.818589 
L 73.730752 -104.018023 
L 73.4435 -101.208657 
L 73.156248 -98.411169 
L 72.868996 -95.644108 
L 72.581744 -92.923647 
L 72.294492 -90.263435 
L 72.00724 -87.674528 
L 71.719988 -85.165428 
L 71.432735 -82.742194 
L 71.145483 -80.408639 
L 70.858231 -78.166581 
L 70.570979 -76.016146 
L 70.283727 -73.956087 
L 69.996475 -71.984121 
L 69.709223 -70.097242 
L 69.421971 -68.292007 
L 69.134718 -66.564783 
L 68.847466 -64.911923 
L 68.560214 -63.329901 
L 68.272962 -61.81537 
L 67.98571 -60.365175 
L 67.698458 -58.976316 
L 67.411206 -57.64588 
L 67.123954 -56.370948 
L 66.836701 -55.148512 
L 66.549449 -53.975389 
L 66.262197 -52.848175 
L 65.974945 -51.763216 
L 65.687693 -50.716635 
L 65.400441 -49.704383 
L 65.113189 -48.722339 
L 64.825937 -47.766431 
L 64.538684 -46.832778 
L 64.251432 -45.917844 
L 63.96418 -45.01858 
L 63.676928 -44.132558 
L 63.389676 -43.25807 
L 63.102424 -42.394199 
L 62.815172 -41.540842 
L 62.527919 -40.698706 
L 62.240667 -39.869244 
L 61.953415 -39.054573 
L 61.666163 -38.257347 
L 61.378911 -37.480617 
L 61.091659 -36.72767 
L 60.804407 -36.001873 
L 60.517155 -35.306508 
L 60.229902 -34.644631 
L 59.94265 -34.018942 
L 59.655398 -33.431681 
L 59.368146 -32.884552 
L 59.080894 -32.378674 
L 58.793642 -31.914557 
L 58.50639 -31.492109 
L 58.219138 -31.110666 
L 57.931885 -30.769039 
L 57.644633 -30.465577 
L 57.357381 -30.198245 
L 57.070129 -29.964705 
L 56.782877 -29.762399 
L 56.495625 -29.588632 
L 56.208373 -29.440646 
L 55.921121 -29.315696 
L 55.633868 -29.211101 
L 55.346616 -29.124303 
L 55.059364 -29.052899 
L 54.772112 -28.99467 
L 54.48486 -28.947602 
L 54.197608 -28.909889 
L 53.910356 -28.879938 
L 53.623104 -28.856362 
L 53.335851 -28.83797 
L 53.048599 -28.823748 
L 52.761347 -28.81285 
z
" id="mfa9b64d3ee" style="stroke:#0e927b;"/>
    </defs>
    <g clip-path="url(#p22cd4e2af0)">
     <use style="fill:#0e927b;fill-opacity:0.25;stroke:#0e927b;" x="0" xlink:href="#mfa9b64d3ee" y="154.020469"/>
    </g>
   </g>
   <g id="matplotlib.axis_1">
    <g id="xtick_1">
     <g id="line2d_1">
      <defs>
       <path d="M 0 0 
L 0 3.5 
" id="m243818f345" style="stroke:#000000;stroke-width:0.8;"/>
      </defs>
      <g>
       <use style="stroke:#000000;stroke-width:0.8;" x="26.792188" xlink:href="#m243818f345" y="125.238906"/>
      </g>
     </g>
     <g id="text_1">
      <!-- 0.0 -->
      <g transform="translate(22.02125 136.797969)scale(0.06 -0.06)">
       <defs>
        <path d="M 31.78125 66.40625 
Q 24.171875 66.40625 20.328125 58.90625 
Q 16.5 51.421875 16.5 36.375 
Q 16.5 21.390625 20.328125 13.890625 
Q 24.171875 6.390625 31.78125 6.390625 
Q 39.453125 6.390625 43.28125 13.890625 
Q 47.125 21.390625 47.125 36.375 
Q 47.125 51.421875 43.28125 58.90625 
Q 39.453125 66.40625 31.78125 66.40625 
z
M 31.78125 74.21875 
Q 44.046875 74.21875 50.515625 64.515625 
Q 56.984375 54.828125 56.984375 36.375 
Q 56.984375 17.96875 50.515625 8.265625 
Q 44.046875 -1.421875 31.78125 -1.421875 
Q 19.53125 -1.421875 13.0625 8.265625 
Q 6.59375 17.96875 6.59375 36.375 
Q 6.59375 54.828125 13.0625 64.515625 
Q 19.53125 74.21875 31.78125 74.21875 
z
" id="DejaVuSans-48"/>
        <path d="M 10.6875 12.40625 
L 21 12.40625 
L 21 0 
L 10.6875 0 
z
" id="DejaVuSans-46"/>
       </defs>
       <use xlink:href="#DejaVuSans-48"/>
       <use x="63.623047" xlink:href="#DejaVuSans-46"/>
       <use x="95.410156" xlink:href="#DejaVuSans-48"/>
      </g>
     </g>
    </g>
    <g id="xtick_2">
     <g id="line2d_2">
      <g>
       <use style="stroke:#000000;stroke-width:0.8;" x="49.112188" xlink:href="#m243818f345" y="125.238906"/>
      </g>
     </g>
     <g id="text_2">
      <!-- 0.2 -->
      <g transform="translate(44.34125 136.797969)scale(0.06 -0.06)">
       <defs>
        <path d="M 19.1875 8.296875 
L 53.609375 8.296875 
L 53.609375 0 
L 7.328125 0 
L 7.328125 8.296875 
Q 12.9375 14.109375 22.625 23.890625 
Q 32.328125 33.6875 34.8125 36.53125 
Q 39.546875 41.84375 41.421875 45.53125 
Q 43.3125 49.21875 43.3125 52.78125 
Q 43.3125 58.59375 39.234375 62.25 
Q 35.15625 65.921875 28.609375 65.921875 
Q 23.96875 65.921875 18.8125 64.3125 
Q 13.671875 62.703125 7.8125 59.421875 
L 7.8125 69.390625 
Q 13.765625 71.78125 18.9375 73 
Q 24.125 74.21875 28.421875 74.21875 
Q 39.75 74.21875 46.484375 68.546875 
Q 53.21875 62.890625 53.21875 53.421875 
Q 53.21875 48.921875 51.53125 44.890625 
Q 49.859375 40.875 45.40625 35.40625 
Q 44.1875 33.984375 37.640625 27.21875 
Q 31.109375 20.453125 19.1875 8.296875 
z
" id="DejaVuSans-50"/>
       </defs>
       <use xlink:href="#DejaVuSans-48"/>
       <use x="63.623047" xlink:href="#DejaVuSans-46"/>
       <use x="95.410156" xlink:href="#DejaVuSans-50"/>
      </g>
     </g>
    </g>
    <g id="xtick_3">
     <g id="line2d_3">
      <g>
       <use style="stroke:#000000;stroke-width:0.8;" x="71.432188" xlink:href="#m243818f345" y="125.238906"/>
      </g>
     </g>
     <g id="text_3">
      <!-- 0.4 -->
      <g transform="translate(66.66125 136.797969)scale(0.06 -0.06)">
       <defs>
        <path d="M 37.796875 64.3125 
L 12.890625 25.390625 
L 37.796875 25.390625 
z
M 35.203125 72.90625 
L 47.609375 72.90625 
L 47.609375 25.390625 
L 58.015625 25.390625 
L 58.015625 17.1875 
L 47.609375 17.1875 
L 47.609375 0 
L 37.796875 0 
L 37.796875 17.1875 
L 4.890625 17.1875 
L 4.890625 26.703125 
z
" id="DejaVuSans-52"/>
       </defs>
       <use xlink:href="#DejaVuSans-48"/>
       <use x="63.623047" xlink:href="#DejaVuSans-46"/>
       <use x="95.410156" xlink:href="#DejaVuSans-52"/>
      </g>
     </g>
    </g>
    <g id="xtick_4">
     <g id="line2d_4">
      <g>
       <use style="stroke:#000000;stroke-width:0.8;" x="93.752188" xlink:href="#m243818f345" y="125.238906"/>
      </g>
     </g>
     <g id="text_4">
      <!-- 0.6 -->
      <g transform="translate(88.98125 136.797969)scale(0.06 -0.06)">
       <defs>
        <path d="M 33.015625 40.375 
Q 26.375 40.375 22.484375 35.828125 
Q 18.609375 31.296875 18.609375 23.390625 
Q 18.609375 15.53125 22.484375 10.953125 
Q 26.375 6.390625 33.015625 6.390625 
Q 39.65625 6.390625 43.53125 10.953125 
Q 47.40625 15.53125 47.40625 23.390625 
Q 47.40625 31.296875 43.53125 35.828125 
Q 39.65625 40.375 33.015625 40.375 
z
M 52.59375 71.296875 
L 52.59375 62.3125 
Q 48.875 64.0625 45.09375 64.984375 
Q 41.3125 65.921875 37.59375 65.921875 
Q 27.828125 65.921875 22.671875 59.328125 
Q 17.53125 52.734375 16.796875 39.40625 
Q 19.671875 43.65625 24.015625 45.921875 
Q 28.375 48.1875 33.59375 48.1875 
Q 44.578125 48.1875 50.953125 41.515625 
Q 57.328125 34.859375 57.328125 23.390625 
Q 57.328125 12.15625 50.6875 5.359375 
Q 44.046875 -1.421875 33.015625 -1.421875 
Q 20.359375 -1.421875 13.671875 8.265625 
Q 6.984375 17.96875 6.984375 36.375 
Q 6.984375 53.65625 15.1875 63.9375 
Q 23.390625 74.21875 37.203125 74.21875 
Q 40.921875 74.21875 44.703125 73.484375 
Q 48.484375 72.75 52.59375 71.296875 
z
" id="DejaVuSans-54"/>
       </defs>
       <use xlink:href="#DejaVuSans-48"/>
       <use x="63.623047" xlink:href="#DejaVuSans-46"/>
       <use x="95.410156" xlink:href="#DejaVuSans-54"/>
      </g>
     </g>
    </g>
    <g id="xtick_5">
     <g id="line2d_5">
      <g>
       <use style="stroke:#000000;stroke-width:0.8;" x="116.072188" xlink:href="#m243818f345" y="125.238906"/>
      </g>
     </g>
     <g id="text_5">
      <!-- 0.8 -->
      <g transform="translate(111.30125 136.797969)scale(0.06 -0.06)">
       <defs>
        <path d="M 31.78125 34.625 
Q 24.75 34.625 20.71875 30.859375 
Q 16.703125 27.09375 16.703125 20.515625 
Q 16.703125 13.921875 20.71875 10.15625 
Q 24.75 6.390625 31.78125 6.390625 
Q 38.8125 6.390625 42.859375 10.171875 
Q 46.921875 13.96875 46.921875 20.515625 
Q 46.921875 27.09375 42.890625 30.859375 
Q 38.875 34.625 31.78125 34.625 
z
M 21.921875 38.8125 
Q 15.578125 40.375 12.03125 44.71875 
Q 8.5 49.078125 8.5 55.328125 
Q 8.5 64.0625 14.71875 69.140625 
Q 20.953125 74.21875 31.78125 74.21875 
Q 42.671875 74.21875 48.875 69.140625 
Q 55.078125 64.0625 55.078125 55.328125 
Q 55.078125 49.078125 51.53125 44.71875 
Q 48 40.375 41.703125 38.8125 
Q 48.828125 37.15625 52.796875 32.3125 
Q 56.78125 27.484375 56.78125 20.515625 
Q 56.78125 9.90625 50.3125 4.234375 
Q 43.84375 -1.421875 31.78125 -1.421875 
Q 19.734375 -1.421875 13.25 4.234375 
Q 6.78125 9.90625 6.78125 20.515625 
Q 6.78125 27.484375 10.78125 32.3125 
Q 14.796875 37.15625 21.921875 38.8125 
z
M 18.3125 54.390625 
Q 18.3125 48.734375 21.84375 45.5625 
Q 25.390625 42.390625 31.78125 42.390625 
Q 38.140625 42.390625 41.71875 45.5625 
Q 45.3125 48.734375 45.3125 54.390625 
Q 45.3125 60.0625 41.71875 63.234375 
Q 38.140625 66.40625 31.78125 66.40625 
Q 25.390625 66.40625 21.84375 63.234375 
Q 18.3125 60.0625 18.3125 54.390625 
z
" id="DejaVuSans-56"/>
       </defs>
       <use xlink:href="#DejaVuSans-48"/>
       <use x="63.623047" xlink:href="#DejaVuSans-46"/>
       <use x="95.410156" xlink:href="#DejaVuSans-56"/>
      </g>
     </g>
    </g>
    <g id="xtick_6">
     <g id="line2d_6">
      <g>
       <use style="stroke:#000000;stroke-width:0.8;" x="138.392188" xlink:href="#m243818f345" y="125.238906"/>
      </g>
     </g>
     <g id="text_6">
      <!-- 1.0 -->
      <g transform="translate(133.62125 136.797969)scale(0.06 -0.06)">
       <defs>
        <path d="M 12.40625 8.296875 
L 28.515625 8.296875 
L 28.515625 63.921875 
L 10.984375 60.40625 
L 10.984375 69.390625 
L 28.421875 72.90625 
L 38.28125 72.90625 
L 38.28125 8.296875 
L 54.390625 8.296875 
L 54.390625 0 
L 12.40625 0 
z
" id="DejaVuSans-49"/>
       </defs>
       <use xlink:href="#DejaVuSans-49"/>
       <use x="63.623047" xlink:href="#DejaVuSans-46"/>
       <use x="95.410156" xlink:href="#DejaVuSans-48"/>
      </g>
     </g>
    </g>
    <g id="text_7">
     <!-- GC percentage (%) -->
     <g transform="translate(49.230625 145.364688)scale(0.07 -0.07)">
      <defs>
       <path d="M 59.515625 10.40625 
L 59.515625 29.984375 
L 43.40625 29.984375 
L 43.40625 38.09375 
L 69.28125 38.09375 
L 69.28125 6.78125 
Q 63.578125 2.734375 56.6875 0.65625 
Q 49.8125 -1.421875 42 -1.421875 
Q 24.90625 -1.421875 15.25 8.5625 
Q 5.609375 18.5625 5.609375 36.375 
Q 5.609375 54.25 15.25 64.234375 
Q 24.90625 74.21875 42 74.21875 
Q 49.125 74.21875 55.546875 72.453125 
Q 61.96875 70.703125 67.390625 67.28125 
L 67.390625 56.78125 
Q 61.921875 61.421875 55.765625 63.765625 
Q 49.609375 66.109375 42.828125 66.109375 
Q 29.4375 66.109375 22.71875 58.640625 
Q 16.015625 51.171875 16.015625 36.375 
Q 16.015625 21.625 22.71875 14.15625 
Q 29.4375 6.6875 42.828125 6.6875 
Q 48.046875 6.6875 52.140625 7.59375 
Q 56.25 8.5 59.515625 10.40625 
z
" id="DejaVuSans-71"/>
       <path d="M 64.40625 67.28125 
L 64.40625 56.890625 
Q 59.421875 61.53125 53.78125 63.8125 
Q 48.140625 66.109375 41.796875 66.109375 
Q 29.296875 66.109375 22.65625 58.46875 
Q 16.015625 50.828125 16.015625 36.375 
Q 16.015625 21.96875 22.65625 14.328125 
Q 29.296875 6.6875 41.796875 6.6875 
Q 48.140625 6.6875 53.78125 8.984375 
Q 59.421875 11.28125 64.40625 15.921875 
L 64.40625 5.609375 
Q 59.234375 2.09375 53.4375 0.328125 
Q 47.65625 -1.421875 41.21875 -1.421875 
Q 24.65625 -1.421875 15.125 8.703125 
Q 5.609375 18.84375 5.609375 36.375 
Q 5.609375 53.953125 15.125 64.078125 
Q 24.65625 74.21875 41.21875 74.21875 
Q 47.75 74.21875 53.53125 72.484375 
Q 59.328125 70.75 64.40625 67.28125 
z
" id="DejaVuSans-67"/>
       <path id="DejaVuSans-32"/>
       <path d="M 18.109375 8.203125 
L 18.109375 -20.796875 
L 9.078125 -20.796875 
L 9.078125 54.6875 
L 18.109375 54.6875 
L 18.109375 46.390625 
Q 20.953125 51.265625 25.265625 53.625 
Q 29.59375 56 35.59375 56 
Q 45.5625 56 51.78125 48.09375 
Q 58.015625 40.1875 58.015625 27.296875 
Q 58.015625 14.40625 51.78125 6.484375 
Q 45.5625 -1.421875 35.59375 -1.421875 
Q 29.59375 -1.421875 25.265625 0.953125 
Q 20.953125 3.328125 18.109375 8.203125 
z
M 48.6875 27.296875 
Q 48.6875 37.203125 44.609375 42.84375 
Q 40.53125 48.484375 33.40625 48.484375 
Q 26.265625 48.484375 22.1875 42.84375 
Q 18.109375 37.203125 18.109375 27.296875 
Q 18.109375 17.390625 22.1875 11.75 
Q 26.265625 6.109375 33.40625 6.109375 
Q 40.53125 6.109375 44.609375 11.75 
Q 48.6875 17.390625 48.6875 27.296875 
z
" id="DejaVuSans-112"/>
       <path d="M 56.203125 29.59375 
L 56.203125 25.203125 
L 14.890625 25.203125 
Q 15.484375 15.921875 20.484375 11.0625 
Q 25.484375 6.203125 34.421875 6.203125 
Q 39.59375 6.203125 44.453125 7.46875 
Q 49.3125 8.734375 54.109375 11.28125 
L 54.109375 2.78125 
Q 49.265625 0.734375 44.1875 -0.34375 
Q 39.109375 -1.421875 33.890625 -1.421875 
Q 20.796875 -1.421875 13.15625 6.1875 
Q 5.515625 13.8125 5.515625 26.8125 
Q 5.515625 40.234375 12.765625 48.109375 
Q 20.015625 56 32.328125 56 
Q 43.359375 56 49.78125 48.890625 
Q 56.203125 41.796875 56.203125 29.59375 
z
M 47.21875 32.234375 
Q 47.125 39.59375 43.09375 43.984375 
Q 39.0625 48.390625 32.421875 48.390625 
Q 24.90625 48.390625 20.390625 44.140625 
Q 15.875 39.890625 15.1875 32.171875 
z
" id="DejaVuSans-101"/>
       <path d="M 41.109375 46.296875 
Q 39.59375 47.171875 37.8125 47.578125 
Q 36.03125 48 33.890625 48 
Q 26.265625 48 22.1875 43.046875 
Q 18.109375 38.09375 18.109375 28.8125 
L 18.109375 0 
L 9.078125 0 
L 9.078125 54.6875 
L 18.109375 54.6875 
L 18.109375 46.1875 
Q 20.953125 51.171875 25.484375 53.578125 
Q 30.03125 56 36.53125 56 
Q 37.453125 56 38.578125 55.875 
Q 39.703125 55.765625 41.0625 55.515625 
z
" id="DejaVuSans-114"/>
       <path d="M 48.78125 52.59375 
L 48.78125 44.1875 
Q 44.96875 46.296875 41.140625 47.34375 
Q 37.3125 48.390625 33.40625 48.390625 
Q 24.65625 48.390625 19.8125 42.84375 
Q 14.984375 37.3125 14.984375 27.296875 
Q 14.984375 17.28125 19.8125 11.734375 
Q 24.65625 6.203125 33.40625 6.203125 
Q 37.3125 6.203125 41.140625 7.25 
Q 44.96875 8.296875 48.78125 10.40625 
L 48.78125 2.09375 
Q 45.015625 0.34375 40.984375 -0.53125 
Q 36.96875 -1.421875 32.421875 -1.421875 
Q 20.0625 -1.421875 12.78125 6.34375 
Q 5.515625 14.109375 5.515625 27.296875 
Q 5.515625 40.671875 12.859375 48.328125 
Q 20.21875 56 33.015625 56 
Q 37.15625 56 41.109375 55.140625 
Q 45.0625 54.296875 48.78125 52.59375 
z
" id="DejaVuSans-99"/>
       <path d="M 54.890625 33.015625 
L 54.890625 0 
L 45.90625 0 
L 45.90625 32.71875 
Q 45.90625 40.484375 42.875 44.328125 
Q 39.84375 48.1875 33.796875 48.1875 
Q 26.515625 48.1875 22.3125 43.546875 
Q 18.109375 38.921875 18.109375 30.90625 
L 18.109375 0 
L 9.078125 0 
L 9.078125 54.6875 
L 18.109375 54.6875 
L 18.109375 46.1875 
Q 21.34375 51.125 25.703125 53.5625 
Q 30.078125 56 35.796875 56 
Q 45.21875 56 50.046875 50.171875 
Q 54.890625 44.34375 54.890625 33.015625 
z
" id="DejaVuSans-110"/>
       <path d="M 18.3125 70.21875 
L 18.3125 54.6875 
L 36.8125 54.6875 
L 36.8125 47.703125 
L 18.3125 47.703125 
L 18.3125 18.015625 
Q 18.3125 11.328125 20.140625 9.421875 
Q 21.96875 7.515625 27.59375 7.515625 
L 36.8125 7.515625 
L 36.8125 0 
L 27.59375 0 
Q 17.1875 0 13.234375 3.875 
Q 9.28125 7.765625 9.28125 18.015625 
L 9.28125 47.703125 
L 2.6875 47.703125 
L 2.6875 54.6875 
L 9.28125 54.6875 
L 9.28125 70.21875 
z
" id="DejaVuSans-116"/>
       <path d="M 34.28125 27.484375 
Q 23.390625 27.484375 19.1875 25 
Q 14.984375 22.515625 14.984375 16.5 
Q 14.984375 11.71875 18.140625 8.90625 
Q 21.296875 6.109375 26.703125 6.109375 
Q 34.1875 6.109375 38.703125 11.40625 
Q 43.21875 16.703125 43.21875 25.484375 
L 43.21875 27.484375 
z
M 52.203125 31.203125 
L 52.203125 0 
L 43.21875 0 
L 43.21875 8.296875 
Q 40.140625 3.328125 35.546875 0.953125 
Q 30.953125 -1.421875 24.3125 -1.421875 
Q 15.921875 -1.421875 10.953125 3.296875 
Q 6 8.015625 6 15.921875 
Q 6 25.140625 12.171875 29.828125 
Q 18.359375 34.515625 30.609375 34.515625 
L 43.21875 34.515625 
L 43.21875 35.40625 
Q 43.21875 41.609375 39.140625 45 
Q 35.0625 48.390625 27.6875 48.390625 
Q 23 48.390625 18.546875 47.265625 
Q 14.109375 46.140625 10.015625 43.890625 
L 10.015625 52.203125 
Q 14.9375 54.109375 19.578125 55.046875 
Q 24.21875 56 28.609375 56 
Q 40.484375 56 46.34375 49.84375 
Q 52.203125 43.703125 52.203125 31.203125 
z
" id="DejaVuSans-97"/>
       <path d="M 45.40625 27.984375 
Q 45.40625 37.75 41.375 43.109375 
Q 37.359375 48.484375 30.078125 48.484375 
Q 22.859375 48.484375 18.828125 43.109375 
Q 14.796875 37.75 14.796875 27.984375 
Q 14.796875 18.265625 18.828125 12.890625 
Q 22.859375 7.515625 30.078125 7.515625 
Q 37.359375 7.515625 41.375 12.890625 
Q 45.40625 18.265625 45.40625 27.984375 
z
M 54.390625 6.78125 
Q 54.390625 -7.171875 48.1875 -13.984375 
Q 42 -20.796875 29.203125 -20.796875 
Q 24.46875 -20.796875 20.265625 -20.09375 
Q 16.0625 -19.390625 12.109375 -17.921875 
L 12.109375 -9.1875 
Q 16.0625 -11.328125 19.921875 -12.34375 
Q 23.78125 -13.375 27.78125 -13.375 
Q 36.625 -13.375 41.015625 -8.765625 
Q 45.40625 -4.15625 45.40625 5.171875 
L 45.40625 9.625 
Q 42.625 4.78125 38.28125 2.390625 
Q 33.9375 0 27.875 0 
Q 17.828125 0 11.671875 7.65625 
Q 5.515625 15.328125 5.515625 27.984375 
Q 5.515625 40.671875 11.671875 48.328125 
Q 17.828125 56 27.875 56 
Q 33.9375 56 38.28125 53.609375 
Q 42.625 51.21875 45.40625 46.390625 
L 45.40625 54.6875 
L 54.390625 54.6875 
z
" id="DejaVuSans-103"/>
       <path d="M 31 75.875 
Q 24.46875 64.65625 21.28125 53.65625 
Q 18.109375 42.671875 18.109375 31.390625 
Q 18.109375 20.125 21.3125 9.0625 
Q 24.515625 -2 31 -13.1875 
L 23.1875 -13.1875 
Q 15.875 -1.703125 12.234375 9.375 
Q 8.59375 20.453125 8.59375 31.390625 
Q 8.59375 42.28125 12.203125 53.3125 
Q 15.828125 64.359375 23.1875 75.875 
z
" id="DejaVuSans-40"/>
       <path d="M 72.703125 32.078125 
Q 68.453125 32.078125 66.03125 28.46875 
Q 63.625 24.859375 63.625 18.40625 
Q 63.625 12.0625 66.03125 8.421875 
Q 68.453125 4.78125 72.703125 4.78125 
Q 76.859375 4.78125 79.265625 8.421875 
Q 81.6875 12.0625 81.6875 18.40625 
Q 81.6875 24.8125 79.265625 28.4375 
Q 76.859375 32.078125 72.703125 32.078125 
z
M 72.703125 38.28125 
Q 80.421875 38.28125 84.953125 32.90625 
Q 89.5 27.546875 89.5 18.40625 
Q 89.5 9.28125 84.9375 3.921875 
Q 80.375 -1.421875 72.703125 -1.421875 
Q 64.890625 -1.421875 60.34375 3.921875 
Q 55.8125 9.28125 55.8125 18.40625 
Q 55.8125 27.59375 60.375 32.9375 
Q 64.9375 38.28125 72.703125 38.28125 
z
M 22.3125 68.015625 
Q 18.109375 68.015625 15.6875 64.375 
Q 13.28125 60.75 13.28125 54.390625 
Q 13.28125 47.953125 15.671875 44.328125 
Q 18.0625 40.71875 22.3125 40.71875 
Q 26.5625 40.71875 28.96875 44.328125 
Q 31.390625 47.953125 31.390625 54.390625 
Q 31.390625 60.6875 28.953125 64.34375 
Q 26.515625 68.015625 22.3125 68.015625 
z
M 66.40625 74.21875 
L 74.21875 74.21875 
L 28.609375 -1.421875 
L 20.796875 -1.421875 
z
M 22.3125 74.21875 
Q 30.03125 74.21875 34.609375 68.875 
Q 39.203125 63.53125 39.203125 54.390625 
Q 39.203125 45.171875 34.640625 39.84375 
Q 30.078125 34.515625 22.3125 34.515625 
Q 14.546875 34.515625 10.03125 39.859375 
Q 5.515625 45.21875 5.515625 54.390625 
Q 5.515625 63.484375 10.046875 68.84375 
Q 14.59375 74.21875 22.3125 74.21875 
z
" id="DejaVuSans-37"/>
       <path d="M 8.015625 75.875 
L 15.828125 75.875 
Q 23.140625 64.359375 26.78125 53.3125 
Q 30.421875 42.28125 30.421875 31.390625 
Q 30.421875 20.453125 26.78125 9.375 
Q 23.140625 -1.703125 15.828125 -13.1875 
L 8.015625 -13.1875 
Q 14.5 -2 17.703125 9.0625 
Q 20.90625 20.125 20.90625 31.390625 
Q 20.90625 42.671875 17.703125 53.65625 
Q 14.5 64.65625 8.015625 75.875 
z
" id="DejaVuSans-41"/>
      </defs>
      <use xlink:href="#DejaVuSans-71"/>
      <use x="77.490234" xlink:href="#DejaVuSans-67"/>
      <use x="147.314453" xlink:href="#DejaVuSans-32"/>
      <use x="179.101562" xlink:href="#DejaVuSans-112"/>
      <use x="242.578125" xlink:href="#DejaVuSans-101"/>
      <use x="304.101562" xlink:href="#DejaVuSans-114"/>
      <use x="342.964844" xlink:href="#DejaVuSans-99"/>
      <use x="397.945312" xlink:href="#DejaVuSans-101"/>
      <use x="459.46875" xlink:href="#DejaVuSans-110"/>
      <use x="522.847656" xlink:href="#DejaVuSans-116"/>
      <use x="562.056641" xlink:href="#DejaVuSans-97"/>
      <use x="623.335938" xlink:href="#DejaVuSans-103"/>
      <use x="686.8125" xlink:href="#DejaVuSans-101"/>
      <use x="748.335938" xlink:href="#DejaVuSans-32"/>
      <use x="780.123047" xlink:href="#DejaVuSans-40"/>
      <use x="819.136719" xlink:href="#DejaVuSans-37"/>
      <use x="914.15625" xlink:href="#DejaVuSans-41"/>
     </g>
    </g>
   </g>
   <g id="matplotlib.axis_2">
    <g id="ytick_1">
     <g id="line2d_7">
      <defs>
       <path d="M 0 0 
L -3.5 0 
" id="m956f084d0f" style="stroke:#000000;stroke-width:0.8;"/>
      </defs>
      <g>
       <use style="stroke:#000000;stroke-width:0.8;" x="26.792188" xlink:href="#m956f084d0f" y="125.238906"/>
      </g>
     </g>
     <g id="text_8">
      <!-- 0 -->
      <g transform="translate(15.974688 127.518437)scale(0.06 -0.06)">
       <use xlink:href="#DejaVuSans-48"/>
      </g>
     </g>
    </g>
    <g id="ytick_2">
     <g id="line2d_8">
      <g>
       <use style="stroke:#000000;stroke-width:0.8;" x="26.792188" xlink:href="#m956f084d0f" y="107.214328"/>
      </g>
     </g>
     <g id="text_9">
      <!-- 1 -->
      <g transform="translate(15.974688 109.49386)scale(0.06 -0.06)">
       <use xlink:href="#DejaVuSans-49"/>
      </g>
     </g>
    </g>
    <g id="ytick_3">
     <g id="line2d_9">
      <g>
       <use style="stroke:#000000;stroke-width:0.8;" x="26.792188" xlink:href="#m956f084d0f" y="89.189751"/>
      </g>
     </g>
     <g id="text_10">
      <!-- 2 -->
      <g transform="translate(15.974688 91.469282)scale(0.06 -0.06)">
       <use xlink:href="#DejaVuSans-50"/>
      </g>
     </g>
    </g>
    <g id="ytick_4">
     <g id="line2d_10">
      <g>
       <use style="stroke:#000000;stroke-width:0.8;" x="26.792188" xlink:href="#m956f084d0f" y="71.165173"/>
      </g>
     </g>
     <g id="text_11">
      <!-- 3 -->
      <g transform="translate(15.974688 73.444704)scale(0.06 -0.06)">
       <defs>
        <path d="M 40.578125 39.3125 
Q 47.65625 37.796875 51.625 33 
Q 55.609375 28.21875 55.609375 21.1875 
Q 55.609375 10.40625 48.1875 4.484375 
Q 40.765625 -1.421875 27.09375 -1.421875 
Q 22.515625 -1.421875 17.65625 -0.515625 
Q 12.796875 0.390625 7.625 2.203125 
L 7.625 11.71875 
Q 11.71875 9.328125 16.59375 8.109375 
Q 21.484375 6.890625 26.8125 6.890625 
Q 36.078125 6.890625 40.9375 10.546875 
Q 45.796875 14.203125 45.796875 21.1875 
Q 45.796875 27.640625 41.28125 31.265625 
Q 36.765625 34.90625 28.71875 34.90625 
L 20.21875 34.90625 
L 20.21875 43.015625 
L 29.109375 43.015625 
Q 36.375 43.015625 40.234375 45.921875 
Q 44.09375 48.828125 44.09375 54.296875 
Q 44.09375 59.90625 40.109375 62.90625 
Q 36.140625 65.921875 28.71875 65.921875 
Q 24.65625 65.921875 20.015625 65.03125 
Q 15.375 64.15625 9.8125 62.3125 
L 9.8125 71.09375 
Q 15.4375 72.65625 20.34375 73.4375 
Q 25.25 74.21875 29.59375 74.21875 
Q 40.828125 74.21875 47.359375 69.109375 
Q 53.90625 64.015625 53.90625 55.328125 
Q 53.90625 49.265625 50.4375 45.09375 
Q 46.96875 40.921875 40.578125 39.3125 
z
" id="DejaVuSans-51"/>
       </defs>
       <use xlink:href="#DejaVuSans-51"/>
      </g>
     </g>
    </g>
    <g id="ytick_5">
     <g id="line2d_11">
      <g>
       <use style="stroke:#000000;stroke-width:0.8;" x="26.792188" xlink:href="#m956f084d0f" y="53.140595"/>
      </g>
     </g>
     <g id="text_12">
      <!-- 4 -->
      <g transform="translate(15.974688 55.420126)scale(0.06 -0.06)">
       <use xlink:href="#DejaVuSans-52"/>
      </g>
     </g>
    </g>
    <g id="ytick_6">
     <g id="line2d_12">
      <g>
       <use style="stroke:#000000;stroke-width:0.8;" x="26.792188" xlink:href="#m956f084d0f" y="35.116017"/>
      </g>
     </g>
     <g id="text_13">
      <!-- 5 -->
      <g transform="translate(15.974688 37.395548)scale(0.06 -0.06)">
       <defs>
        <path d="M 10.796875 72.90625 
L 49.515625 72.90625 
L 49.515625 64.59375 
L 19.828125 64.59375 
L 19.828125 46.734375 
Q 21.96875 47.46875 24.109375 47.828125 
Q 26.265625 48.1875 28.421875 48.1875 
Q 40.625 48.1875 47.75 41.5 
Q 54.890625 34.8125 54.890625 23.390625 
Q 54.890625 11.625 47.5625 5.09375 
Q 40.234375 -1.421875 26.90625 -1.421875 
Q 22.3125 -1.421875 17.546875 -0.640625 
Q 12.796875 0.140625 7.71875 1.703125 
L 7.71875 11.625 
Q 12.109375 9.234375 16.796875 8.0625 
Q 21.484375 6.890625 26.703125 6.890625 
Q 35.15625 6.890625 40.078125 11.328125 
Q 45.015625 15.765625 45.015625 23.390625 
Q 45.015625 31 40.078125 35.4375 
Q 35.15625 39.890625 26.703125 39.890625 
Q 22.75 39.890625 18.8125 39.015625 
Q 14.890625 38.140625 10.796875 36.28125 
z
" id="DejaVuSans-53"/>
       </defs>
       <use xlink:href="#DejaVuSans-53"/>
      </g>
     </g>
    </g>
    <g id="ytick_7">
     <g id="line2d_13">
      <g>
       <use style="stroke:#000000;stroke-width:0.8;" x="26.792188" xlink:href="#m956f084d0f" y="17.091439"/>
      </g>
     </g>
     <g id="text_14">
      <!-- 6 -->
      <g transform="translate(15.974688 19.37097)scale(0.06 -0.06)">
       <use xlink:href="#DejaVuSans-54"/>
      </g>
     </g>
    </g>
    <g id="text_15">
     <!-- Density -->
     <g transform="translate(12.518906 84.184922)rotate(-90)scale(0.07 -0.07)">
      <defs>
       <path d="M 19.671875 64.796875 
L 19.671875 8.109375 
L 31.59375 8.109375 
Q 46.6875 8.109375 53.6875 14.9375 
Q 60.6875 21.78125 60.6875 36.53125 
Q 60.6875 51.171875 53.6875 57.984375 
Q 46.6875 64.796875 31.59375 64.796875 
z
M 9.8125 72.90625 
L 30.078125 72.90625 
Q 51.265625 72.90625 61.171875 64.09375 
Q 71.09375 55.28125 71.09375 36.53125 
Q 71.09375 17.671875 61.125 8.828125 
Q 51.171875 0 30.078125 0 
L 9.8125 0 
z
" id="DejaVuSans-68"/>
       <path d="M 44.28125 53.078125 
L 44.28125 44.578125 
Q 40.484375 46.53125 36.375 47.5 
Q 32.28125 48.484375 27.875 48.484375 
Q 21.1875 48.484375 17.84375 46.4375 
Q 14.5 44.390625 14.5 40.28125 
Q 14.5 37.15625 16.890625 35.375 
Q 19.28125 33.59375 26.515625 31.984375 
L 29.59375 31.296875 
Q 39.15625 29.25 43.1875 25.515625 
Q 47.21875 21.78125 47.21875 15.09375 
Q 47.21875 7.46875 41.1875 3.015625 
Q 35.15625 -1.421875 24.609375 -1.421875 
Q 20.21875 -1.421875 15.453125 -0.5625 
Q 10.6875 0.296875 5.421875 2 
L 5.421875 11.28125 
Q 10.40625 8.6875 15.234375 7.390625 
Q 20.0625 6.109375 24.8125 6.109375 
Q 31.15625 6.109375 34.5625 8.28125 
Q 37.984375 10.453125 37.984375 14.40625 
Q 37.984375 18.0625 35.515625 20.015625 
Q 33.0625 21.96875 24.703125 23.78125 
L 21.578125 24.515625 
Q 13.234375 26.265625 9.515625 29.90625 
Q 5.8125 33.546875 5.8125 39.890625 
Q 5.8125 47.609375 11.28125 51.796875 
Q 16.75 56 26.8125 56 
Q 31.78125 56 36.171875 55.265625 
Q 40.578125 54.546875 44.28125 53.078125 
z
" id="DejaVuSans-115"/>
       <path d="M 9.421875 54.6875 
L 18.40625 54.6875 
L 18.40625 0 
L 9.421875 0 
z
M 9.421875 75.984375 
L 18.40625 75.984375 
L 18.40625 64.59375 
L 9.421875 64.59375 
z
" id="DejaVuSans-105"/>
       <path d="M 32.171875 -5.078125 
Q 28.375 -14.84375 24.75 -17.8125 
Q 21.140625 -20.796875 15.09375 -20.796875 
L 7.90625 -20.796875 
L 7.90625 -13.28125 
L 13.1875 -13.28125 
Q 16.890625 -13.28125 18.9375 -11.515625 
Q 21 -9.765625 23.484375 -3.21875 
L 25.09375 0.875 
L 2.984375 54.6875 
L 12.5 54.6875 
L 29.59375 11.921875 
L 46.6875 54.6875 
L 56.203125 54.6875 
z
" id="DejaVuSans-121"/>
      </defs>
      <use xlink:href="#DejaVuSans-68"/>
      <use x="77.001953" xlink:href="#DejaVuSans-101"/>
      <use x="138.525391" xlink:href="#DejaVuSans-110"/>
      <use x="201.904297" xlink:href="#DejaVuSans-115"/>
      <use x="254.003906" xlink:href="#DejaVuSans-105"/>
      <use x="281.787109" xlink:href="#DejaVuSans-116"/>
      <use x="320.996094" xlink:href="#DejaVuSans-121"/>
     </g>
    </g>
   </g>
   <g id="patch_3">
    <path d="M 26.792188 125.238906 
L 26.792188 16.518906 
" style="fill:none;stroke:#000000;stroke-linecap:square;stroke-linejoin:miter;stroke-width:0.8;"/>
   </g>
   <g id="patch_4">
    <path d="M 138.392188 125.238906 
L 138.392188 16.518906 
" style="fill:none;stroke:#000000;stroke-linecap:square;stroke-linejoin:miter;stroke-width:0.8;"/>
   </g>
   <g id="patch_5">
    <path d="M 26.792188 125.238906 
L 138.392188 125.238906 
" style="fill:none;stroke:#000000;stroke-linecap:square;stroke-linejoin:miter;stroke-width:0.8;"/>
   </g>
   <g id="patch_6">
    <path d="M 26.792188 16.518906 
L 138.392188 16.518906 
" style="fill:none;stroke:#000000;stroke-linecap:square;stroke-linejoin:miter;stroke-width:0.8;"/>
   </g>
   <g id="text_16">
    <!-- GC Content Distribution -->
    <g transform="translate(40.873828 12.518906)scale(0.07 -0.07)">
     <defs>
      <path d="M 30.609375 48.390625 
Q 23.390625 48.390625 19.1875 42.75 
Q 14.984375 37.109375 14.984375 27.296875 
Q 14.984375 17.484375 19.15625 11.84375 
Q 23.34375 6.203125 30.609375 6.203125 
Q 37.796875 6.203125 41.984375 11.859375 
Q 46.1875 17.53125 46.1875 27.296875 
Q 46.1875 37.015625 41.984375 42.703125 
Q 37.796875 48.390625 30.609375 48.390625 
z
M 30.609375 56 
Q 42.328125 56 49.015625 48.375 
Q 55.71875 40.765625 55.71875 27.296875 
Q 55.71875 13.875 49.015625 6.21875 
Q 42.328125 -1.421875 30.609375 -1.421875 
Q 18.84375 -1.421875 12.171875 6.21875 
Q 5.515625 13.875 5.515625 27.296875 
Q 5.515625 40.765625 12.171875 48.375 
Q 18.84375 56 30.609375 56 
z
" id="DejaVuSans-111"/>
      <path d="M 48.6875 27.296875 
Q 48.6875 37.203125 44.609375 42.84375 
Q 40.53125 48.484375 33.40625 48.484375 
Q 26.265625 48.484375 22.1875 42.84375 
Q 18.109375 37.203125 18.109375 27.296875 
Q 18.109375 17.390625 22.1875 11.75 
Q 26.265625 6.109375 33.40625 6.109375 
Q 40.53125 6.109375 44.609375 11.75 
Q 48.6875 17.390625 48.6875 27.296875 
z
M 18.109375 46.390625 
Q 20.953125 51.265625 25.265625 53.625 
Q 29.59375 56 35.59375 56 
Q 45.5625 56 51.78125 48.09375 
Q 58.015625 40.1875 58.015625 27.296875 
Q 58.015625 14.40625 51.78125 6.484375 
Q 45.5625 -1.421875 35.59375 -1.421875 
Q 29.59375 -1.421875 25.265625 0.953125 
Q 20.953125 3.328125 18.109375 8.203125 
L 18.109375 0 
L 9.078125 0 
L 9.078125 75.984375 
L 18.109375 75.984375 
z
" id="DejaVuSans-98"/>
      <path d="M 8.5 21.578125 
L 8.5 54.6875 
L 17.484375 54.6875 
L 17.484375 21.921875 
Q 17.484375 14.15625 20.5 10.265625 
Q 23.53125 6.390625 29.59375 6.390625 
Q 36.859375 6.390625 41.078125 11.03125 
Q 45.3125 15.671875 45.3125 23.6875 
L 45.3125 54.6875 
L 54.296875 54.6875 
L 54.296875 0 
L 45.3125 0 
L 45.3125 8.40625 
Q 42.046875 3.421875 37.71875 1 
Q 33.40625 -1.421875 27.6875 -1.421875 
Q 18.265625 -1.421875 13.375 4.4375 
Q 8.5 10.296875 8.5 21.578125 
z
M 31.109375 56 
z
" id="DejaVuSans-117"/>
     </defs>
     <use xlink:href="#DejaVuSans-71"/>
     <use x="77.490234" xlink:href="#DejaVuSans-67"/>
     <use x="147.314453" xlink:href="#DejaVuSans-32"/>
     <use x="179.101562" xlink:href="#DejaVuSans-67"/>
     <use x="248.925781" xlink:href="#DejaVuSans-111"/>
     <use x="310.107422" xlink:href="#DejaVuSans-110"/>
     <use x="373.486328" xlink:href="#DejaVuSans-116"/>
     <use x="412.695312" xlink:href="#DejaVuSans-101"/>
     <use x="474.21875" xlink:href="#DejaVuSans-110"/>
     <use x="537.597656" xlink:href="#DejaVuSans-116"/>
     <use x="576.806641" xlink:href="#DejaVuSans-32"/>
     <use x="608.59375" xlink:href="#DejaVuSans-68"/>
     <use x="685.595703" xlink:href="#DejaVuSans-105"/>
     <use x="713.378906" xlink:href="#DejaVuSans-115"/>
     <use x="765.478516" xlink:href="#DejaVuSans-116"/>
     <use x="804.6875" xlink:href="#DejaVuSans-114"/>
     <use x="845.800781" xlink:href="#DejaVuSans-105"/>
     <use x="873.583984" xlink:href="#DejaVuSans-98"/>
     <use x="937.060547" xlink:href="#DejaVuSans-117"/>
     <use x="1000.439453" xlink:href="#DejaVuSans-116"/>
     <use x="1039.648438" xlink:href="#DejaVuSans-105"/>
     <use x="1067.431641" xlink:href="#DejaVuSans-111"/>
     <use x="1128.613281" xlink:href="#DejaVuSans-110"/>
    </g>
   </g>
   <g id="legend_1">
    <g id="patch_7">
     <path d="M 142.592187 38.932656 
L 197.2775 38.932656 
Q 198.4775 38.932656 198.4775 37.732656 
L 198.4775 20.718906 
Q 198.4775 19.518906 197.2775 19.518906 
L 142.592187 19.518906 
Q 141.392188 19.518906 141.392188 20.718906 
L 141.392188 37.732656 
Q 141.392188 38.932656 142.592187 38.932656 
z
" style="fill:#ffffff;opacity:0.8;stroke:#cccccc;stroke-linejoin:miter;"/>
    </g>
    <g id="patch_8">
     <path d="M 143.792188 26.477969 
L 155.792188 26.477969 
L 155.792188 22.277969 
L 143.792188 22.277969 
z
" style="fill:#808080;fill-opacity:0.25;stroke:#808080;stroke-linejoin:miter;"/>
    </g>
    <g id="text_17">
     <!-- background -->
     <g transform="translate(160.592188 26.477969)scale(0.06 -0.06)">
      <defs>
       <path d="M 9.078125 75.984375 
L 18.109375 75.984375 
L 18.109375 31.109375 
L 44.921875 54.6875 
L 56.390625 54.6875 
L 27.390625 29.109375 
L 57.625 0 
L 45.90625 0 
L 18.109375 26.703125 
L 18.109375 0 
L 9.078125 0 
z
" id="DejaVuSans-107"/>
       <path d="M 45.40625 46.390625 
L 45.40625 75.984375 
L 54.390625 75.984375 
L 54.390625 0 
L 45.40625 0 
L 45.40625 8.203125 
Q 42.578125 3.328125 38.25 0.953125 
Q 33.9375 -1.421875 27.875 -1.421875 
Q 17.96875 -1.421875 11.734375 6.484375 
Q 5.515625 14.40625 5.515625 27.296875 
Q 5.515625 40.1875 11.734375 48.09375 
Q 17.96875 56 27.875 56 
Q 33.9375 56 38.25 53.625 
Q 42.578125 51.265625 45.40625 46.390625 
z
M 14.796875 27.296875 
Q 14.796875 17.390625 18.875 11.75 
Q 22.953125 6.109375 30.078125 6.109375 
Q 37.203125 6.109375 41.296875 11.75 
Q 45.40625 17.390625 45.40625 27.296875 
Q 45.40625 37.203125 41.296875 42.84375 
Q 37.203125 48.484375 30.078125 48.484375 
Q 22.953125 48.484375 18.875 42.84375 
Q 14.796875 37.203125 14.796875 27.296875 
z
" id="DejaVuSans-100"/>
      </defs>
      <use xlink:href="#DejaVuSans-98"/>
      <use x="63.476562" xlink:href="#DejaVuSans-97"/>
      <use x="124.755859" xlink:href="#DejaVuSans-99"/>
      <use x="179.736328" xlink:href="#DejaVuSans-107"/>
      <use x="237.646484" xlink:href="#DejaVuSans-103"/>
      <use x="301.123047" xlink:href="#DejaVuSans-114"/>
      <use x="339.986328" xlink:href="#DejaVuSans-111"/>
      <use x="401.167969" xlink:href="#DejaVuSans-117"/>
      <use x="464.546875" xlink:href="#DejaVuSans-110"/>
      <use x="527.925781" xlink:href="#DejaVuSans-100"/>
     </g>
    </g>
    <g id="patch_9">
     <path d="M 143.792188 35.284844 
L 155.792188 35.284844 
L 155.792188 31.084844 
L 143.792188 31.084844 
z
" style="fill:#0e927b;fill-opacity:0.25;stroke:#0e927b;stroke-linejoin:miter;"/>
    </g>
    <g id="text_18">
     <!-- scrambled -->
     <g transform="translate(160.592188 35.284844)scale(0.06 -0.06)">
      <defs>
       <path d="M 52 44.1875 
Q 55.375 50.25 60.0625 53.125 
Q 64.75 56 71.09375 56 
Q 79.640625 56 84.28125 50.015625 
Q 88.921875 44.046875 88.921875 33.015625 
L 88.921875 0 
L 79.890625 0 
L 79.890625 32.71875 
Q 79.890625 40.578125 77.09375 44.375 
Q 74.3125 48.1875 68.609375 48.1875 
Q 61.625 48.1875 57.5625 43.546875 
Q 53.515625 38.921875 53.515625 30.90625 
L 53.515625 0 
L 44.484375 0 
L 44.484375 32.71875 
Q 44.484375 40.625 41.703125 44.40625 
Q 38.921875 48.1875 33.109375 48.1875 
Q 26.21875 48.1875 22.15625 43.53125 
Q 18.109375 38.875 18.109375 30.90625 
L 18.109375 0 
L 9.078125 0 
L 9.078125 54.6875 
L 18.109375 54.6875 
L 18.109375 46.1875 
Q 21.1875 51.21875 25.484375 53.609375 
Q 29.78125 56 35.6875 56 
Q 41.65625 56 45.828125 52.96875 
Q 50 49.953125 52 44.1875 
z
" id="DejaVuSans-109"/>
       <path d="M 9.421875 75.984375 
L 18.40625 75.984375 
L 18.40625 0 
L 9.421875 0 
z
" id="DejaVuSans-108"/>
      </defs>
      <use xlink:href="#DejaVuSans-115"/>
      <use x="52.099609" xlink:href="#DejaVuSans-99"/>
      <use x="107.080078" xlink:href="#DejaVuSans-114"/>
      <use x="148.193359" xlink:href="#DejaVuSans-97"/>
      <use x="209.472656" xlink:href="#DejaVuSans-109"/>
      <use x="306.884766" xlink:href="#DejaVuSans-98"/>
      <use x="370.361328" xlink:href="#DejaVuSans-108"/>
      <use x="398.144531" xlink:href="#DejaVuSans-101"/>
      <use x="459.667969" xlink:href="#DejaVuSans-100"/>
     </g>
    </g>
   </g>
  </g>
 </g>
 <defs>
  <clipPath id="p22cd4e2af0">
   <rect height="108.72" width="111.6" x="26.792188" y="16.518906"/>
  </clipPath>
 </defs>
</svg>
